{"glyphs":{"0":{"ha":617,"x_min":72,"x_max":544,"o":"m 307 -14 q 137 55 201 -14 q 72 235 72 124 l 72 738 q 137 917 72 849 q 307 986 201 986 q 479 917 414 986 q 544 738 544 849 l 544 235 q 479 55 544 124 q 307 -14 414 -14 m 307 72 q 408 115 371 72 q 446 229 446 158 l 446 743 q 408 857 446 814 q 307 900 371 900 q 208 857 246 900 q 171 743 171 814 l 171 229 q 208 115 171 158 q 307 72 246 72 z "},"1":{"ha":356,"x_min":14,"x_max":274,"o":"m 167 968 q 185 972 175 972 l 260 972 q 274 958 274 972 l 274 14 q 260 0 274 0 l 189 0 q 175 14 175 0 l 175 856 q 173 860 175 858 q 168 860 171 861 l 38 817 l 33 815 q 21 828 24 815 l 14 879 l 14 882 q 24 896 14 889 l 167 968 z "},"2":{"ha":558,"x_min":54,"x_max":519,"o":"m 175 93 q 175 88 174 90 q 179 86 176 86 l 506 86 q 519 72 519 86 l 519 14 q 506 0 519 0 l 69 0 q 56 14 56 0 l 56 76 q 61 94 56 88 q 110 172 104 163 q 303 486 232 365 q 392 739 392 639 q 358 854 392 811 q 271 897 325 897 q 185 855 218 897 q 154 743 153 813 l 154 690 q 140 676 154 676 l 68 676 q 54 690 54 676 l 54 746 q 117 918 57 853 q 275 983 178 983 q 432 916 372 983 q 492 739 492 849 q 393 444 492 608 q 253 217 343 360 l 175 93 z "},"3":{"ha":567,"x_min":51,"x_max":494,"o":"m 472 453 q 494 294 494 382 q 479 160 494 221 q 274 -11 440 -11 q 130 38 186 -11 q 60 172 74 86 q 51 279 51 221 q 65 293 51 293 l 136 293 q 150 279 150 293 q 158 189 150 229 q 274 75 182 75 q 346 101 317 75 q 388 178 375 128 q 399 303 399 236 q 382 449 399 390 q 340 516 368 493 q 274 539 313 539 q 242 531 261 539 q 222 532 229 524 l 186 569 q 185 589 179 579 l 369 879 q 369 883 371 881 q 365 886 368 886 l 72 886 q 58 900 58 886 l 58 958 q 72 972 58 972 l 478 972 q 492 958 492 972 l 492 896 q 486 878 492 889 l 314 608 q 313 603 313 606 q 317 601 314 601 q 413 556 372 596 q 472 453 454 517 z "},"4":{"ha":576,"x_min":31,"x_max":546,"o":"m 532 356 q 546 342 546 356 l 546 281 q 532 267 546 267 l 489 267 q 483 261 483 267 l 483 14 q 469 0 483 0 l 399 0 q 385 14 385 0 l 385 261 q 379 267 385 267 l 44 267 q 31 281 31 267 l 31 333 q 33 350 31 339 l 242 961 q 258 972 246 972 l 335 972 q 346 957 350 972 l 146 363 q 146 358 144 360 q 150 356 147 356 l 379 356 q 385 361 385 356 l 385 574 q 399 588 385 588 l 469 588 q 483 574 483 588 l 483 361 q 489 356 483 356 l 532 356 z "},"5":{"ha":568,"x_min":74,"x_max":517,"o":"m 503 429 q 517 296 517 378 q 508 181 517 233 q 440 38 494 88 q 294 -11 385 -11 q 149 38 204 -11 q 79 183 94 86 l 75 225 l 75 228 q 88 239 75 239 l 158 239 q 174 225 172 239 l 178 192 q 294 75 200 75 q 368 103 339 75 q 408 186 397 132 q 418 297 418 231 q 406 417 418 367 q 294 514 381 514 q 175 418 199 514 q 160 406 171 406 l 88 406 q 74 419 74 406 l 74 958 q 88 972 74 972 l 481 972 q 494 958 494 972 l 494 900 q 481 886 494 886 l 178 886 q 172 881 172 886 l 171 536 q 173 532 171 533 q 178 533 175 531 q 237 584 200 567 q 319 601 274 601 q 440 557 393 601 q 503 429 488 513 z "},"6":{"ha":569,"x_min":74,"x_max":518,"o":"m 507 419 q 518 296 518 364 q 513 193 518 236 q 445 42 501 94 q 296 -11 389 -11 q 154 38 210 -11 q 85 181 99 86 q 75 290 75 225 l 74 746 q 135 919 74 854 q 296 983 196 983 q 445 918 386 983 q 504 746 504 853 l 504 724 q 490 710 504 710 l 419 710 q 406 724 406 710 l 406 743 q 374 852 406 810 q 296 894 342 894 q 207 853 240 894 q 174 743 174 811 l 174 557 q 176 553 174 554 q 181 556 178 553 q 231 598 200 583 q 299 613 261 613 q 438 561 383 613 q 507 419 492 510 m 413 201 q 419 303 419 257 q 407 422 419 367 q 367 500 396 474 q 296 526 339 526 q 182 417 206 526 q 174 303 174 372 q 181 194 174 238 q 296 75 204 75 q 373 107 343 75 q 413 201 403 139 z "},"7":{"ha":508,"x_min":32,"x_max":485,"o":"m 154 0 q 144 4 147 0 q 142 15 140 8 l 379 881 q 378 884 381 882 q 374 886 376 886 l 119 886 q 114 881 114 886 l 114 824 q 100 810 114 810 l 46 810 q 32 824 32 810 l 32 958 q 46 972 32 972 l 471 972 q 485 958 485 972 l 485 894 q 482 878 485 892 l 246 13 q 231 0 243 0 l 154 0 z "},"8":{"ha":586,"x_min":72,"x_max":514,"o":"m 410 519 q 410 511 403 515 q 483 432 461 485 q 514 271 514 364 q 494 139 514 194 q 418 28 471 68 q 292 -11 365 -11 q 169 28 221 -11 q 92 138 117 67 q 72 272 72 199 q 99 422 72 361 q 176 511 122 481 q 176 519 182 515 q 103 594 131 543 q 72 736 72 653 q 103 878 72 821 q 178 958 129 929 q 292 986 226 986 q 406 959 357 986 q 481 881 454 932 q 514 735 514 822 q 485 597 514 651 q 410 519 457 546 m 190 831 q 169 728 169 789 q 192 624 169 665 q 292 556 222 556 q 356 575 329 556 q 397 629 383 594 q 417 729 417 671 q 393 835 417 796 q 292 900 361 900 q 190 831 221 900 m 406 179 q 417 276 417 224 q 397 396 417 349 q 292 476 368 476 q 227 454 254 476 q 186 390 200 432 q 169 276 169 344 q 182 175 169 219 q 223 101 194 128 q 292 75 251 75 q 363 102 333 75 q 406 179 393 129 z "},"9":{"ha":560,"x_min":42,"x_max":486,"o":"m 486 226 q 425 53 486 118 q 264 -11 364 -11 q 115 54 174 -11 q 56 226 56 119 l 56 249 q 69 263 56 263 l 140 263 q 154 249 154 263 l 154 229 q 186 120 154 163 q 264 78 218 78 q 353 119 319 78 q 386 229 386 161 l 386 415 q 384 419 386 418 q 379 417 382 419 q 329 374 360 389 q 261 360 299 360 q 122 411 176 360 q 53 553 68 463 q 42 676 42 608 q 47 779 42 736 q 115 931 58 878 q 264 983 171 983 q 406 935 350 983 q 475 792 461 886 q 485 682 485 747 l 486 226 m 264 446 q 378 556 354 446 q 386 669 386 600 q 379 778 386 735 q 264 897 356 897 q 187 865 217 897 q 147 771 157 833 q 140 669 140 715 q 153 550 140 607 q 192 472 164 499 q 264 446 221 446 z "},"\u0000":{"ha":0,"x_min":0,"x_max":0,"o":""},"\r":{"ha":278,"x_min":0,"x_max":0,"o":""}," ":{"ha":278,"x_min":0,"x_max":0,"o":""},"A":{"ha":569,"x_min":17,"x_max":551,"o":"m 467 0 q 451 13 454 0 l 417 185 q 415 189 417 188 q 410 190 413 190 l 158 190 q 153 189 156 190 q 151 185 151 188 l 117 13 q 101 0 115 0 l 31 0 q 20 4 24 0 q 18 15 17 8 l 226 960 q 242 972 229 972 l 325 972 q 340 960 339 972 l 551 15 l 551 13 q 539 0 551 0 l 467 0 m 169 276 q 174 271 169 271 l 393 271 q 397 276 397 271 l 286 822 q 283 826 285 826 q 281 822 282 826 l 169 276 z "},"Á":{"ha":569,"x_min":17,"x_max":551,"o":"m 467 0 q 451 13 454 0 l 417 185 q 415 189 417 188 q 410 190 413 190 l 158 190 q 153 189 156 190 q 151 185 151 188 l 117 13 q 101 0 115 0 l 31 0 q 20 4 24 0 q 18 15 17 8 l 226 960 q 242 972 229 972 l 325 972 q 340 960 339 972 l 551 15 l 551 13 q 539 0 551 0 l 467 0 m 169 276 q 174 271 169 271 l 393 271 q 397 276 397 271 l 286 822 q 283 826 285 826 q 281 822 282 826 l 169 276 m 236 1064 q 225 1069 228 1064 q 226 1081 222 1074 l 313 1232 q 329 1242 319 1242 l 386 1242 q 397 1237 394 1242 q 394 1225 399 1232 l 297 1074 q 281 1064 290 1064 l 236 1064 z "},"Ă":{"ha":569,"x_min":17,"x_max":551,"o":"m 467 0 q 451 13 454 0 l 417 185 q 415 189 417 188 q 410 190 413 190 l 158 190 q 153 189 156 190 q 151 185 151 188 l 117 13 q 101 0 115 0 l 31 0 q 20 4 24 0 q 18 15 17 8 l 226 960 q 242 972 229 972 l 325 972 q 340 960 339 972 l 551 15 l 551 13 q 539 0 551 0 l 467 0 m 169 276 q 174 271 169 271 l 393 271 q 397 276 397 271 l 286 822 q 283 826 285 826 q 281 822 282 826 l 169 276 m 285 1044 q 185 1082 225 1044 q 139 1176 144 1119 q 153 1190 139 1190 l 185 1190 q 200 1176 199 1190 q 228 1119 204 1142 q 285 1097 251 1097 q 342 1119 318 1097 q 369 1176 365 1142 q 385 1190 371 1190 l 417 1190 q 431 1176 431 1190 q 385 1081 425 1118 q 285 1044 344 1044 z "},"Ắ":{"ha":569,"x_min":17,"x_max":551,"o":"m 467 0 q 451 13 454 0 l 417 185 q 415 189 417 188 q 410 190 413 190 l 158 190 q 153 189 156 190 q 151 185 151 188 l 117 13 q 101 0 115 0 l 31 0 q 20 4 24 0 q 18 15 17 8 l 226 960 q 242 972 229 972 l 325 972 q 340 960 339 972 l 551 15 l 551 13 q 539 0 551 0 l 467 0 m 169 276 q 174 271 169 271 l 393 271 q 397 276 397 271 l 286 822 q 283 826 285 826 q 281 822 282 826 l 169 276 z "},"Ặ":{"ha":569,"x_min":17,"x_max":551,"o":"m 467 0 q 451 13 454 0 l 417 185 q 415 189 417 188 q 410 190 413 190 l 158 190 q 153 189 156 190 q 151 185 151 188 l 117 13 q 101 0 115 0 l 31 0 q 20 4 24 0 q 18 15 17 8 l 226 960 q 242 972 229 972 l 325 972 q 340 960 339 972 l 551 15 l 551 13 q 539 0 551 0 l 467 0 m 169 276 q 174 271 169 271 l 393 271 q 397 276 397 271 l 286 822 q 283 826 285 826 q 281 822 282 826 l 169 276 m 286 -265 q 233 -244 254 -265 q 213 -192 213 -224 q 233 -139 213 -160 q 286 -118 254 -118 q 339 -139 318 -118 q 360 -192 360 -160 q 339 -244 360 -224 q 286 -265 318 -265 m 285 1075 q 185 1113 225 1075 q 139 1207 144 1150 q 153 1221 139 1221 l 185 1221 q 200 1207 199 1221 q 228 1149 204 1171 q 285 1126 251 1126 q 342 1149 318 1126 q 369 1207 365 1171 q 385 1221 371 1221 l 417 1221 q 431 1207 431 1221 q 385 1113 425 1150 q 285 1075 344 1075 z "},"Ằ":{"ha":569,"x_min":17,"x_max":551,"o":"m 467 0 q 451 13 454 0 l 417 185 q 415 189 417 188 q 410 190 413 190 l 158 190 q 153 189 156 190 q 151 185 151 188 l 117 13 q 101 0 115 0 l 31 0 q 20 4 24 0 q 18 15 17 8 l 226 960 q 242 972 229 972 l 325 972 q 340 960 339 972 l 551 15 l 551 13 q 539 0 551 0 l 467 0 m 169 276 q 174 271 169 271 l 393 271 q 397 276 397 271 l 286 822 q 283 826 285 826 q 281 822 282 826 l 169 276 z "},"Ẳ":{"ha":569,"x_min":17,"x_max":551,"o":"m 467 0 q 451 13 454 0 l 417 185 q 415 189 417 188 q 410 190 413 190 l 158 190 q 153 189 156 190 q 151 185 151 188 l 117 13 q 101 0 115 0 l 31 0 q 20 4 24 0 q 18 15 17 8 l 226 960 q 242 972 229 972 l 325 972 q 340 960 339 972 l 551 15 l 551 13 q 539 0 551 0 l 467 0 m 169 276 q 174 271 169 271 l 393 271 q 397 276 397 271 l 286 822 q 283 826 285 826 q 281 822 282 826 l 169 276 m 276 1251 q 267 1258 269 1253 q 268 1268 265 1263 q 287 1302 276 1289 q 313 1331 297 1315 q 337 1360 329 1347 q 344 1392 344 1372 q 328 1425 344 1411 q 289 1439 313 1439 q 251 1429 265 1439 q 218 1393 236 1419 q 199 1389 210 1381 l 179 1401 q 175 1421 168 1410 q 226 1476 201 1460 q 292 1492 250 1492 q 371 1464 340 1492 q 401 1392 401 1436 q 389 1342 401 1363 q 351 1297 376 1322 q 317 1254 325 1271 q 299 1246 310 1242 l 276 1251 m 285 1075 q 185 1113 225 1075 q 139 1207 144 1150 q 153 1221 139 1221 l 185 1221 q 200 1207 199 1221 q 228 1149 204 1171 q 285 1126 251 1126 q 342 1149 318 1126 q 369 1207 365 1171 q 385 1221 371 1221 l 417 1221 q 431 1207 431 1221 q 385 1112 425 1149 q 285 1075 344 1075 z "},"Ẵ":{"ha":569,"x_min":17,"x_max":551,"o":"m 467 0 q 451 13 454 0 l 417 185 q 415 189 417 188 q 410 190 413 190 l 158 190 q 153 189 156 190 q 151 185 151 188 l 117 13 q 101 0 115 0 l 31 0 q 20 4 24 0 q 18 15 17 8 l 226 960 q 242 972 229 972 l 325 972 q 340 960 339 972 l 551 15 l 551 13 q 539 0 551 0 l 467 0 m 169 276 q 174 271 169 271 l 393 271 q 397 276 397 271 l 286 822 q 283 826 285 826 q 281 822 282 826 l 169 276 z "},"Ǎ":{"ha":569,"x_min":17,"x_max":551,"o":"m 467 0 q 451 13 454 0 l 417 185 q 415 189 417 188 q 410 190 413 190 l 158 190 q 153 189 156 190 q 151 185 151 188 l 117 13 q 101 0 115 0 l 31 0 q 20 4 24 0 q 18 15 17 8 l 226 960 q 242 972 229 972 l 325 972 q 340 960 339 972 l 551 15 l 551 13 q 539 0 551 0 l 467 0 m 169 276 q 174 271 169 271 l 393 271 q 397 276 397 271 l 286 822 q 283 826 285 826 q 281 822 282 826 l 169 276 z "},"Â":{"ha":569,"x_min":17,"x_max":551,"o":"m 467 0 q 451 13 454 0 l 417 185 q 415 189 417 188 q 410 190 413 190 l 158 190 q 153 189 156 190 q 151 185 151 188 l 117 13 q 101 0 115 0 l 31 0 q 20 4 24 0 q 18 15 17 8 l 226 960 q 242 972 229 972 l 325 972 q 340 960 339 972 l 551 15 l 551 13 q 539 0 551 0 l 467 0 m 169 276 q 174 271 169 271 l 393 271 q 397 276 397 271 l 286 822 q 283 826 285 826 q 281 822 282 826 l 169 276 m 142 1072 q 131 1077 133 1072 q 133 1089 129 1082 l 224 1232 q 240 1242 231 1242 l 324 1242 q 340 1232 333 1242 l 433 1089 q 436 1081 436 1083 q 425 1072 436 1072 l 364 1072 q 347 1082 354 1072 l 288 1183 q 283 1186 286 1186 q 279 1183 281 1186 l 218 1082 q 201 1072 211 1072 l 142 1072 z "},"Ấ":{"ha":569,"x_min":17,"x_max":611,"o":"m 467 0 q 451 13 454 0 l 417 185 q 415 189 417 188 q 410 190 413 190 l 158 190 q 153 189 156 190 q 151 185 151 188 l 117 13 q 101 0 115 0 l 31 0 q 20 4 24 0 q 18 15 17 8 l 226 960 q 242 972 229 972 l 325 972 q 340 960 339 972 l 551 15 l 551 13 q 539 0 551 0 l 467 0 m 169 276 q 174 271 169 271 l 393 271 q 397 276 397 271 l 286 822 q 283 826 285 826 q 281 822 282 826 l 169 276 z "},"Ậ":{"ha":569,"x_min":17,"x_max":551,"o":"m 467 0 q 451 13 454 0 l 417 185 q 415 189 417 188 q 410 190 413 190 l 158 190 q 153 189 156 190 q 151 185 151 188 l 117 13 q 101 0 115 0 l 31 0 q 20 4 24 0 q 18 15 17 8 l 226 960 q 242 972 229 972 l 325 972 q 340 960 339 972 l 551 15 l 551 13 q 539 0 551 0 l 467 0 m 169 276 q 174 271 169 271 l 393 271 q 397 276 397 271 l 286 822 q 283 826 285 826 q 281 822 282 826 l 169 276 m 286 -265 q 233 -244 254 -265 q 213 -192 213 -224 q 233 -139 213 -160 q 286 -118 254 -118 q 339 -139 318 -118 q 360 -192 360 -160 q 339 -244 360 -224 q 286 -265 318 -265 m 142 1072 q 131 1077 133 1072 q 133 1089 129 1082 l 224 1232 q 240 1242 231 1242 l 324 1242 q 340 1232 333 1242 l 433 1089 q 436 1081 436 1083 q 425 1072 436 1072 l 364 1072 q 347 1082 354 1072 l 288 1183 q 283 1186 286 1186 q 279 1183 281 1186 l 218 1082 q 201 1072 211 1072 l 142 1072 z "},"Ầ":{"ha":569,"x_min":17,"x_max":551,"o":"m 467 0 q 451 13 454 0 l 417 185 q 415 189 417 188 q 410 190 413 190 l 158 190 q 153 189 156 190 q 151 185 151 188 l 117 13 q 101 0 115 0 l 31 0 q 20 4 24 0 q 18 15 17 8 l 226 960 q 242 972 229 972 l 325 972 q 340 960 339 972 l 551 15 l 551 13 q 539 0 551 0 l 467 0 m 169 276 q 174 271 169 271 l 393 271 q 397 276 397 271 l 286 822 q 283 826 285 826 q 281 822 282 826 l 169 276 z "},"Ẩ":{"ha":569,"x_min":17,"x_max":572,"o":"m 467 0 q 451 13 454 0 l 417 185 q 415 189 417 188 q 410 190 413 190 l 158 190 q 153 189 156 190 q 151 185 151 188 l 117 13 q 101 0 115 0 l 31 0 q 20 4 24 0 q 18 15 17 8 l 226 960 q 242 972 229 972 l 325 972 q 340 960 339 972 l 551 15 l 551 13 q 539 0 551 0 l 467 0 m 169 276 q 174 271 169 271 l 393 271 q 397 276 397 271 l 286 822 q 283 826 285 826 q 281 822 282 826 l 169 276 m 443 1203 q 433 1219 428 1207 q 479 1283 446 1250 q 505 1314 497 1301 q 513 1347 513 1326 q 497 1381 513 1367 q 457 1394 481 1394 q 418 1385 433 1394 q 383 1347 403 1375 q 364 1344 375 1336 l 343 1358 q 339 1378 332 1367 q 390 1433 365 1417 q 458 1450 415 1450 q 540 1421 508 1450 q 572 1347 572 1392 q 559 1296 572 1317 q 519 1250 546 1275 q 483 1206 492 1222 q 465 1197 476 1193 l 443 1203 m 142 1072 q 131 1077 133 1072 q 133 1089 129 1082 l 224 1232 q 240 1242 231 1242 l 324 1242 q 340 1232 333 1242 l 433 1089 q 436 1081 436 1083 q 425 1072 436 1072 l 364 1072 q 347 1082 354 1072 l 288 1183 q 283 1186 286 1186 q 279 1183 281 1186 l 218 1082 q 201 1072 211 1072 l 142 1072 z "},"Ẫ":{"ha":569,"x_min":17,"x_max":551,"o":"m 467 0 q 451 13 454 0 l 417 185 q 415 189 417 188 q 410 190 413 190 l 158 190 q 153 189 156 190 q 151 185 151 188 l 117 13 q 101 0 115 0 l 31 0 q 20 4 24 0 q 18 15 17 8 l 226 960 q 242 972 229 972 l 325 972 q 340 960 339 972 l 551 15 l 551 13 q 539 0 551 0 l 467 0 m 169 276 q 174 271 169 271 l 393 271 q 397 276 397 271 l 286 822 q 283 826 285 826 q 281 822 282 826 l 169 276 z "},"Ä":{"ha":569,"x_min":17,"x_max":551,"o":"m 467 0 q 451 13 454 0 l 417 185 q 415 189 417 188 q 410 190 413 190 l 158 190 q 153 189 156 190 q 151 185 151 188 l 117 13 q 101 0 115 0 l 31 0 q 20 4 24 0 q 18 15 17 8 l 226 960 q 242 972 229 972 l 325 972 q 340 960 339 972 l 551 15 l 551 13 q 539 0 551 0 l 467 0 m 169 276 q 174 271 169 271 l 393 271 q 397 276 397 271 l 286 822 q 283 826 285 826 q 281 822 282 826 l 169 276 z "},"Ạ":{"ha":569,"x_min":17,"x_max":551,"o":"m 467 0 q 451 13 454 0 l 417 185 q 415 189 417 188 q 410 190 413 190 l 158 190 q 153 189 156 190 q 151 185 151 188 l 117 13 q 101 0 115 0 l 31 0 q 20 4 24 0 q 18 15 17 8 l 226 960 q 242 972 229 972 l 325 972 q 340 960 339 972 l 551 15 l 551 13 q 539 0 551 0 l 467 0 m 169 276 q 174 271 169 271 l 393 271 q 397 276 397 271 l 286 822 q 283 826 285 826 q 281 822 282 826 l 169 276 m 286 -265 q 233 -244 254 -265 q 213 -192 213 -224 q 233 -139 213 -160 q 286 -118 254 -118 q 339 -139 318 -118 q 360 -192 360 -160 q 339 -244 360 -224 q 286 -265 318 -265 z "},"À":{"ha":569,"x_min":17,"x_max":551,"o":"m 467 0 q 451 13 454 0 l 417 185 q 415 189 417 188 q 410 190 413 190 l 158 190 q 153 189 156 190 q 151 185 151 188 l 117 13 q 101 0 115 0 l 31 0 q 20 4 24 0 q 18 15 17 8 l 226 960 q 242 972 229 972 l 325 972 q 340 960 339 972 l 551 15 l 551 13 q 539 0 551 0 l 467 0 m 169 276 q 174 271 169 271 l 393 271 q 397 276 397 271 l 286 822 q 283 826 285 826 q 281 822 282 826 l 169 276 m 314 1081 q 317 1072 317 1075 q 304 1064 317 1064 l 260 1064 q 243 1074 250 1064 l 146 1225 q 143 1233 143 1231 q 154 1242 143 1242 l 213 1242 q 229 1232 222 1242 l 314 1081 z "},"Ả":{"ha":569,"x_min":17,"x_max":551,"o":"m 467 0 q 451 13 454 0 l 417 185 q 415 189 417 188 q 410 190 413 190 l 158 190 q 153 189 156 190 q 151 185 151 188 l 117 13 q 101 0 115 0 l 31 0 q 20 4 24 0 q 18 15 17 8 l 226 960 q 242 972 229 972 l 325 972 q 340 960 339 972 l 551 15 l 551 13 q 539 0 551 0 l 467 0 m 169 276 q 174 271 169 271 l 393 271 q 397 276 397 271 l 286 822 q 283 826 285 826 q 281 822 282 826 l 169 276 m 272 1032 q 263 1040 265 1035 q 264 1050 261 1044 q 311 1115 278 1082 q 338 1147 329 1133 q 346 1181 346 1160 q 328 1216 346 1201 q 288 1231 311 1231 q 248 1219 264 1231 q 213 1181 232 1208 q 193 1178 204 1169 l 171 1192 q 167 1211 160 1200 q 219 1269 194 1251 q 290 1286 244 1286 q 374 1257 342 1286 q 406 1181 406 1228 q 393 1130 406 1150 q 354 1082 381 1110 q 315 1035 325 1056 q 297 1026 310 1025 l 272 1032 z "},"Ā":{"ha":569,"x_min":17,"x_max":551,"o":"m 467 0 q 451 13 454 0 l 417 185 q 415 189 417 188 q 410 190 413 190 l 158 190 q 153 189 156 190 q 151 185 151 188 l 117 13 q 101 0 115 0 l 31 0 q 20 4 24 0 q 18 15 17 8 l 226 960 q 242 972 229 972 l 325 972 q 340 960 339 972 l 551 15 l 551 13 q 539 0 551 0 l 467 0 m 169 276 q 174 271 169 271 l 393 271 q 397 276 397 271 l 286 822 q 283 826 285 826 q 281 822 282 826 l 169 276 m 156 1096 q 142 1110 142 1096 l 142 1154 q 156 1168 142 1168 l 410 1168 q 424 1154 424 1168 l 424 1110 q 410 1096 424 1096 l 156 1096 z "},"Ą":{"ha":569,"x_min":17,"x_max":572,"o":"m 467 0 q 451 13 454 0 l 417 185 q 415 189 417 188 q 410 190 413 190 l 158 190 q 153 189 156 190 q 151 185 151 188 l 117 13 q 101 0 115 0 l 31 0 q 20 4 24 0 q 18 15 17 8 l 226 960 q 242 972 229 972 l 325 972 q 340 960 339 972 l 551 15 l 551 13 q 539 0 551 0 l 467 0 m 169 276 q 174 271 169 271 l 393 271 q 397 276 397 271 l 286 822 q 283 826 285 826 q 281 822 282 826 l 169 276 m 572 -240 q 563 -253 572 -249 q 522 -257 544 -257 q 443 -231 475 -257 q 411 -143 411 -206 q 426 -74 411 -108 q 474 -10 442 -39 l 479 -4 q 493 0 483 0 l 531 0 q 542 -6 540 0 q 538 -17 544 -11 q 495 -75 511 -44 q 479 -135 479 -106 q 495 -183 479 -168 q 536 -199 511 -199 q 551 -197 546 -199 l 557 -196 q 568 -207 565 -196 l 572 -236 l 572 -240 z "},"Å":{"ha":569,"x_min":17,"x_max":551,"o":"m 467 0 q 451 13 454 0 l 417 185 q 415 189 417 188 q 410 190 413 190 l 158 190 q 153 189 156 190 q 151 185 151 188 l 117 13 q 101 0 115 0 l 31 0 q 20 4 24 0 q 18 15 17 8 l 226 960 q 242 972 229 972 l 325 972 q 340 960 339 972 l 551 15 l 551 13 q 539 0 551 0 l 467 0 m 169 276 q 174 271 169 271 l 393 271 q 397 276 397 271 l 286 822 q 283 826 285 826 q 281 822 282 826 l 169 276 m 285 1074 q 181 1117 224 1074 q 138 1224 138 1160 q 181 1330 138 1286 q 285 1374 224 1374 q 390 1330 347 1374 q 432 1224 432 1286 q 390 1117 432 1160 q 285 1074 347 1074 m 285 1133 q 347 1159 321 1133 q 372 1224 372 1185 q 347 1289 372 1263 q 285 1315 321 1315 q 223 1289 249 1315 q 197 1224 197 1263 q 223 1159 197 1185 q 285 1133 249 1133 z "},"Ã":{"ha":569,"x_min":17,"x_max":551,"o":"m 467 0 q 451 13 454 0 l 417 185 q 415 189 417 188 q 410 190 413 190 l 158 190 q 153 189 156 190 q 151 185 151 188 l 117 13 q 101 0 115 0 l 31 0 q 20 4 24 0 q 18 15 17 8 l 226 960 q 242 972 229 972 l 325 972 q 340 960 339 972 l 551 15 l 551 13 q 539 0 551 0 l 467 0 m 169 276 q 174 271 169 271 l 393 271 q 397 276 397 271 l 286 822 q 283 826 285 826 q 281 822 282 826 l 169 276 m 371 1114 q 336 1122 351 1114 q 296 1144 321 1129 q 278 1157 290 1149 q 256 1169 265 1165 q 235 1172 246 1172 q 201 1165 215 1172 q 172 1136 186 1157 q 153 1132 164 1124 l 128 1150 q 122 1169 117 1158 q 228 1242 160 1242 q 268 1233 250 1242 q 308 1210 286 1225 q 324 1199 311 1207 q 348 1185 336 1190 q 371 1181 360 1181 q 403 1189 389 1181 q 431 1219 417 1197 q 439 1226 433 1225 q 450 1225 444 1228 l 475 1208 q 481 1197 481 1204 q 475 1181 481 1190 q 426 1130 456 1146 q 371 1114 397 1114 z "},"Æ":{"ha":971,"x_min":19,"x_max":915,"o":"m 915 900 q 901 886 915 886 l 579 886 q 574 881 574 886 l 574 536 q 579 531 574 531 l 782 531 q 796 517 796 531 l 796 457 q 782 443 796 443 l 579 443 q 574 438 574 443 l 574 92 q 579 86 574 86 l 901 86 q 915 72 915 86 l 915 14 q 901 0 915 0 l 488 0 q 474 14 474 0 l 474 185 q 468 190 474 190 l 203 190 q 197 186 200 190 l 122 11 q 107 0 118 0 l 33 0 q 23 5 26 0 q 22 17 19 10 l 435 961 q 450 972 439 972 l 901 972 q 915 958 915 972 l 915 900 m 236 278 q 236 273 235 275 q 240 271 238 271 l 468 271 q 474 276 474 271 l 475 821 q 472 825 475 825 q 468 822 469 825 l 236 278 z "},"B":{"ha":624,"x_min":100,"x_max":576,"o":"m 575 264 q 508 69 576 139 q 326 0 440 0 l 114 0 q 100 14 100 0 l 100 958 q 114 972 100 972 l 314 972 q 501 906 433 972 q 569 718 569 840 q 454 506 569 563 q 451 503 451 504 q 453 500 451 501 q 575 264 575 429 m 204 886 q 199 881 199 886 l 199 546 q 204 540 199 540 l 314 540 q 431 585 389 540 q 472 710 472 629 q 431 840 472 793 q 314 886 389 886 l 204 886 m 319 88 q 435 137 393 88 q 476 275 476 186 q 435 415 476 365 q 319 465 393 465 l 204 465 q 199 460 199 465 l 199 93 q 204 88 199 88 l 319 88 z "},"C":{"ha":619,"x_min":76,"x_max":550,"o":"m 313 -11 q 141 54 206 -11 q 76 229 76 119 l 76 744 q 141 918 76 853 q 313 983 206 983 q 485 919 421 983 q 550 744 550 854 l 550 721 q 536 707 550 707 l 464 703 q 450 717 450 703 l 450 751 q 413 857 450 817 q 313 897 375 897 q 213 857 251 897 q 175 751 175 817 l 175 221 q 213 115 175 156 q 313 75 251 75 q 413 115 375 75 q 450 221 450 156 l 450 256 q 464 269 450 269 l 536 265 q 550 251 550 265 l 550 229 q 485 54 550 119 q 313 -11 419 -11 z "},"Ć":{"ha":619,"x_min":76,"x_max":550,"o":"m 313 -11 q 141 54 206 -11 q 76 229 76 119 l 76 744 q 141 918 76 853 q 313 983 206 983 q 485 919 421 983 q 550 744 550 854 l 550 721 q 536 707 550 707 l 464 703 q 450 717 450 703 l 450 751 q 413 857 450 817 q 313 897 375 897 q 213 857 251 897 q 175 751 175 817 l 175 221 q 213 115 175 156 q 313 75 251 75 q 413 115 375 75 q 450 221 450 156 l 450 256 q 464 269 450 269 l 536 265 q 550 251 550 265 l 550 229 q 485 54 550 119 q 313 -11 419 -11 m 264 1064 q 253 1069 256 1064 q 254 1081 250 1074 l 340 1232 q 357 1242 347 1242 l 414 1242 q 424 1237 422 1242 q 422 1225 426 1232 l 325 1074 q 308 1064 318 1064 l 264 1064 z "},"Č":{"ha":619,"x_min":76,"x_max":550,"o":"m 313 -11 q 141 54 206 -11 q 76 229 76 119 l 76 744 q 141 918 76 853 q 313 983 206 983 q 485 919 421 983 q 550 744 550 854 l 550 721 q 536 707 550 707 l 464 703 q 450 717 450 703 l 450 751 q 413 857 450 817 q 313 897 375 897 q 213 857 251 897 q 175 751 175 817 l 175 221 q 213 115 175 156 q 313 75 251 75 q 413 115 375 75 q 450 221 450 156 l 450 256 q 464 269 450 269 l 536 265 q 550 251 550 265 l 550 229 q 485 54 550 119 q 313 -11 419 -11 m 165 1225 q 163 1233 163 1231 q 174 1242 163 1242 l 233 1242 q 250 1232 243 1242 l 311 1131 q 315 1129 313 1129 q 319 1131 318 1129 l 379 1232 q 396 1242 386 1242 l 457 1242 q 467 1237 465 1242 q 465 1225 469 1232 l 372 1082 q 356 1072 365 1072 l 272 1072 q 256 1082 263 1072 l 165 1225 z "},"Ç":{"ha":619,"x_min":76,"x_max":550,"o":"m 550 721 q 536 707 550 707 l 464 703 q 450 717 450 703 l 450 751 q 413 857 450 817 q 313 897 375 897 q 213 857 251 897 q 175 751 175 817 l 175 221 q 213 115 175 156 q 313 75 251 75 q 413 115 375 75 q 450 221 450 156 l 450 256 q 464 269 450 269 l 536 265 q 550 251 550 265 l 550 229 q 498 69 550 132 q 357 -7 446 6 q 354 -14 350 -10 q 411 -142 411 -75 q 378 -229 411 -203 q 299 -256 346 -256 q 258 -251 276 -256 q 247 -236 246 -249 l 251 -206 q 265 -194 254 -194 q 271 -196 267 -196 q 316 -187 297 -199 q 339 -147 335 -176 q 340 -131 340 -142 q 279 -11 340 -72 q 272 -8 276 -8 q 130 67 183 3 q 76 229 76 131 l 76 744 q 141 918 76 853 q 313 983 206 983 q 485 919 421 983 q 550 744 550 854 l 550 721 z "},"Ĉ":{"ha":619,"x_min":76,"x_max":550,"o":"m 313 -11 q 141 54 206 -11 q 76 229 76 119 l 76 744 q 141 918 76 853 q 313 983 206 983 q 485 919 421 983 q 550 744 550 854 l 550 721 q 536 707 550 707 l 464 703 q 450 717 450 703 l 450 751 q 413 857 450 817 q 313 897 375 897 q 213 857 251 897 q 175 751 175 817 l 175 221 q 213 115 175 156 q 313 75 251 75 q 413 115 375 75 q 450 221 450 156 l 450 256 q 464 269 450 269 l 536 265 q 550 251 550 265 l 550 229 q 485 54 550 119 q 313 -11 419 -11 m 171 1072 q 160 1077 163 1072 q 163 1089 158 1082 l 253 1232 q 269 1242 260 1242 l 353 1242 q 369 1232 363 1242 l 463 1089 q 465 1081 465 1083 q 454 1072 465 1072 l 393 1072 q 376 1082 383 1072 l 317 1183 q 313 1186 315 1186 q 308 1183 310 1186 l 247 1082 q 231 1072 240 1072 l 171 1072 z "},"Ċ":{"ha":619,"x_min":76,"x_max":550,"o":"m 313 -11 q 141 54 206 -11 q 76 229 76 119 l 76 744 q 141 918 76 853 q 313 983 206 983 q 485 919 421 983 q 550 744 550 854 l 550 721 q 536 707 550 707 l 464 703 q 450 717 450 703 l 450 751 q 413 857 450 817 q 313 897 375 897 q 213 857 251 897 q 175 751 175 817 l 175 221 q 213 115 175 156 q 313 75 251 75 q 413 115 375 75 q 450 221 450 156 l 450 256 q 464 269 450 269 l 536 265 q 550 251 550 265 l 550 229 q 485 54 550 119 q 313 -11 419 -11 m 314 1100 q 258 1122 279 1100 q 236 1178 236 1144 q 258 1234 236 1213 q 314 1256 279 1256 q 369 1234 347 1256 q 392 1178 392 1213 q 369 1122 392 1144 q 314 1100 347 1100 z "},"D":{"ha":646,"x_min":100,"x_max":563,"o":"m 114 0 q 100 14 100 0 l 100 958 q 114 972 100 972 l 328 972 q 499 902 435 972 q 563 714 563 832 l 563 258 q 499 70 563 140 q 328 0 435 0 l 114 0 m 199 92 q 204 86 199 86 l 326 88 q 424 135 388 88 q 463 263 461 182 l 463 710 q 426 839 463 792 q 326 886 390 886 l 204 886 q 199 881 199 886 l 199 92 z "},"Ð":{"ha":707,"x_min":100,"x_max":622,"o":"m 388 972 q 558 902 494 972 q 622 714 622 832 l 622 258 q 558 70 622 140 q 388 0 494 0 l 174 0 q 160 14 160 0 l 160 471 q 154 476 160 476 l 114 476 q 100 490 100 476 l 100 526 q 114 540 100 540 l 154 540 q 160 546 160 540 l 160 958 q 174 972 160 972 l 388 972 m 522 710 q 486 839 522 792 q 386 886 450 886 l 264 886 q 258 881 258 886 l 258 546 q 264 540 258 540 l 368 540 q 382 526 382 540 l 382 490 q 368 476 382 476 l 264 476 q 258 471 258 476 l 258 92 q 264 86 258 86 l 388 88 q 485 135 449 88 q 522 263 521 182 l 522 710 z "},"Ď":{"ha":646,"x_min":100,"x_max":563,"o":"m 114 0 q 100 14 100 0 l 100 958 q 114 972 100 972 l 328 972 q 499 902 435 972 q 563 714 563 832 l 563 258 q 499 70 563 140 q 328 0 435 0 l 114 0 m 199 92 q 204 86 199 86 l 326 88 q 424 135 388 88 q 463 263 461 182 l 463 710 q 426 839 463 792 q 326 886 390 886 l 204 886 q 199 881 199 886 l 199 92 z "},"Đ":{"ha":707,"x_min":100,"x_max":622,"o":"m 388 972 q 558 902 494 972 q 622 714 622 832 l 622 258 q 558 70 622 140 q 388 0 494 0 l 174 0 q 160 14 160 0 l 160 471 q 154 476 160 476 l 114 476 q 100 490 100 476 l 100 526 q 114 540 100 540 l 154 540 q 160 546 160 540 l 160 958 q 174 972 160 972 l 388 972 m 522 710 q 486 839 522 792 q 386 886 450 886 l 264 886 q 258 881 258 886 l 258 546 q 264 540 258 540 l 368 540 q 382 526 382 540 l 382 490 q 368 476 382 476 l 264 476 q 258 471 258 476 l 258 92 q 264 86 258 86 l 388 88 q 485 135 449 88 q 522 263 521 182 l 522 710 z "},"E":{"ha":596,"x_min":100,"x_max":540,"o":"m 540 900 q 526 886 540 886 l 204 886 q 199 881 199 886 l 199 536 q 204 531 199 531 l 407 531 q 421 517 421 531 l 421 457 q 407 443 421 443 l 204 443 q 199 438 199 443 l 199 92 q 204 86 199 86 l 526 86 q 540 72 540 86 l 540 14 q 526 0 540 0 l 114 0 q 100 14 100 0 l 100 958 q 114 972 100 972 l 526 972 q 540 958 540 972 l 540 900 z "},"É":{"ha":596,"x_min":100,"x_max":540,"o":"m 540 900 q 526 886 540 886 l 204 886 q 199 881 199 886 l 199 536 q 204 531 199 531 l 407 531 q 421 517 421 531 l 421 457 q 407 443 421 443 l 204 443 q 199 438 199 443 l 199 92 q 204 86 199 86 l 526 86 q 540 72 540 86 l 540 14 q 526 0 540 0 l 114 0 q 100 14 100 0 l 100 958 q 114 972 100 972 l 526 972 q 540 958 540 972 l 540 900 m 272 1064 q 261 1069 264 1064 q 263 1081 258 1074 l 349 1232 q 365 1242 356 1242 l 422 1242 q 433 1237 431 1242 q 431 1225 435 1232 l 333 1074 q 317 1064 326 1064 l 272 1064 z "},"Ě":{"ha":596,"x_min":100,"x_max":540,"o":"m 540 900 q 526 886 540 886 l 204 886 q 199 881 199 886 l 199 536 q 204 531 199 531 l 407 531 q 421 517 421 531 l 421 457 q 407 443 421 443 l 204 443 q 199 438 199 443 l 199 92 q 204 86 199 86 l 526 86 q 540 72 540 86 l 540 14 q 526 0 540 0 l 114 0 q 100 14 100 0 l 100 958 q 114 972 100 972 l 526 972 q 540 958 540 972 l 540 900 m 174 1225 q 171 1233 171 1231 q 182 1242 171 1242 l 242 1242 q 258 1232 251 1242 l 319 1131 q 324 1129 321 1129 q 328 1131 326 1129 l 388 1232 q 404 1242 394 1242 l 465 1242 q 476 1237 474 1242 q 474 1225 478 1232 l 381 1082 q 364 1072 374 1072 l 281 1072 q 264 1082 271 1072 l 174 1225 z "},"Ȩ":{"ha":596,"x_min":100,"x_max":540,"o":"m 540 900 q 526 886 540 886 l 204 886 q 199 881 199 886 l 199 536 q 204 531 199 531 l 407 531 q 421 517 421 531 l 421 457 q 407 443 421 443 l 204 443 q 199 438 199 443 l 199 92 q 204 86 199 86 l 526 86 q 540 72 540 86 l 540 14 q 526 0 540 0 l 363 0 q 358 -2 360 0 q 360 -7 357 -4 q 413 -132 413 -61 q 410 -164 413 -144 q 372 -226 401 -208 q 301 -244 342 -244 q 260 -240 278 -244 q 250 -225 249 -239 l 254 -194 q 268 -183 257 -183 q 274 -185 269 -185 q 323 -174 303 -189 q 343 -121 343 -158 q 283 -3 343 -65 q 276 0 281 0 l 114 0 q 100 14 100 0 l 100 958 q 114 972 100 972 l 526 972 q 540 958 540 972 l 540 900 z "},"Ê":{"ha":596,"x_min":100,"x_max":540,"o":"m 540 900 q 526 886 540 886 l 204 886 q 199 881 199 886 l 199 536 q 204 531 199 531 l 407 531 q 421 517 421 531 l 421 457 q 407 443 421 443 l 204 443 q 199 438 199 443 l 199 92 q 204 86 199 86 l 526 86 q 540 72 540 86 l 540 14 q 526 0 540 0 l 114 0 q 100 14 100 0 l 100 958 q 114 972 100 972 l 526 972 q 540 958 540 972 l 540 900 m 178 1072 q 167 1077 169 1072 q 169 1089 165 1082 l 260 1232 q 276 1242 267 1242 l 360 1242 q 376 1232 369 1242 l 469 1089 q 472 1081 472 1083 q 461 1072 472 1072 l 400 1072 q 383 1082 390 1072 l 324 1183 q 319 1186 322 1186 q 315 1183 317 1186 l 254 1082 q 238 1072 247 1072 l 178 1072 z "},"Ế":{"ha":596,"x_min":100,"x_max":647,"o":"m 540 900 q 526 886 540 886 l 204 886 q 199 881 199 886 l 199 536 q 204 531 199 531 l 407 531 q 421 517 421 531 l 421 457 q 407 443 421 443 l 204 443 q 199 438 199 443 l 199 92 q 204 86 199 86 l 526 86 q 540 72 540 86 l 540 14 q 526 0 540 0 l 114 0 q 100 14 100 0 l 100 958 q 114 972 100 972 l 526 972 q 540 958 540 972 l 540 900 z "},"Ệ":{"ha":596,"x_min":100,"x_max":540,"o":"m 540 900 q 526 886 540 886 l 204 886 q 199 881 199 886 l 199 536 q 204 531 199 531 l 407 531 q 421 517 421 531 l 421 457 q 407 443 421 443 l 204 443 q 199 438 199 443 l 199 92 q 204 86 199 86 l 526 86 q 540 72 540 86 l 540 14 q 526 0 540 0 l 114 0 q 100 14 100 0 l 100 958 q 114 972 100 972 l 526 972 q 540 958 540 972 l 540 900 m 315 -265 q 263 -244 283 -265 q 242 -192 242 -224 q 263 -139 242 -160 q 315 -118 283 -118 q 368 -139 347 -118 q 389 -192 389 -160 q 368 -244 389 -224 q 315 -265 347 -265 m 178 1072 q 167 1077 169 1072 q 169 1089 165 1082 l 260 1232 q 276 1242 267 1242 l 360 1242 q 376 1232 369 1242 l 469 1089 q 472 1081 472 1083 q 461 1072 472 1072 l 400 1072 q 383 1082 390 1072 l 324 1183 q 319 1186 322 1186 q 315 1183 317 1186 l 254 1082 q 238 1072 247 1072 l 178 1072 z "},"Ề":{"ha":596,"x_min":100,"x_max":549,"o":"m 540 900 q 526 886 540 886 l 204 886 q 199 881 199 886 l 199 536 q 204 531 199 531 l 407 531 q 421 517 421 531 l 421 457 q 407 443 421 443 l 204 443 q 199 438 199 443 l 199 92 q 204 86 199 86 l 526 86 q 540 72 540 86 l 540 14 q 526 0 540 0 l 114 0 q 100 14 100 0 l 100 958 q 114 972 100 972 l 526 972 q 540 958 540 972 l 540 900 z "},"Ể":{"ha":596,"x_min":100,"x_max":608,"o":"m 540 900 q 526 886 540 886 l 204 886 q 199 881 199 886 l 199 536 q 204 531 199 531 l 407 531 q 421 517 421 531 l 421 457 q 407 443 421 443 l 204 443 q 199 438 199 443 l 199 92 q 204 86 199 86 l 526 86 q 540 72 540 86 l 540 14 q 526 0 540 0 l 114 0 q 100 14 100 0 l 100 958 q 114 972 100 972 l 526 972 q 540 958 540 972 l 540 900 m 479 1203 q 469 1219 464 1207 q 515 1283 482 1250 q 541 1314 533 1301 q 549 1347 549 1326 q 533 1381 549 1367 q 493 1394 517 1394 q 454 1385 469 1394 q 419 1347 439 1375 q 400 1344 411 1336 l 379 1358 q 375 1378 368 1367 q 426 1433 401 1417 q 494 1450 451 1450 q 576 1421 544 1450 q 608 1347 608 1392 q 595 1296 608 1317 q 556 1250 582 1275 q 519 1206 528 1222 q 501 1197 513 1193 l 479 1203 m 178 1072 q 167 1077 169 1072 q 169 1089 165 1082 l 260 1232 q 276 1242 267 1242 l 360 1242 q 376 1232 369 1242 l 469 1089 q 472 1081 472 1083 q 461 1072 472 1072 l 400 1072 q 383 1082 390 1072 l 324 1183 q 319 1186 322 1186 q 315 1183 317 1186 l 254 1082 q 238 1072 247 1072 l 178 1072 z "},"Ễ":{"ha":596,"x_min":100,"x_max":540,"o":"m 540 900 q 526 886 540 886 l 204 886 q 199 881 199 886 l 199 536 q 204 531 199 531 l 407 531 q 421 517 421 531 l 421 457 q 407 443 421 443 l 204 443 q 199 438 199 443 l 199 92 q 204 86 199 86 l 526 86 q 540 72 540 86 l 540 14 q 526 0 540 0 l 114 0 q 100 14 100 0 l 100 958 q 114 972 100 972 l 526 972 q 540 958 540 972 l 540 900 z "},"Ë":{"ha":596,"x_min":100,"x_max":540,"o":"m 540 900 q 526 886 540 886 l 204 886 q 199 881 199 886 l 199 536 q 204 531 199 531 l 407 531 q 421 517 421 531 l 421 457 q 407 443 421 443 l 204 443 q 199 438 199 443 l 199 92 q 204 86 199 86 l 526 86 q 540 72 540 86 l 540 14 q 526 0 540 0 l 114 0 q 100 14 100 0 l 100 958 q 114 972 100 972 l 526 972 q 540 958 540 972 l 540 900 z "},"Ė":{"ha":596,"x_min":100,"x_max":540,"o":"m 540 900 q 526 886 540 886 l 204 886 q 199 881 199 886 l 199 536 q 204 531 199 531 l 407 531 q 421 517 421 531 l 421 457 q 407 443 421 443 l 204 443 q 199 438 199 443 l 199 92 q 204 86 199 86 l 526 86 q 540 72 540 86 l 540 14 q 526 0 540 0 l 114 0 q 100 14 100 0 l 100 958 q 114 972 100 972 l 526 972 q 540 958 540 972 l 540 900 m 321 1100 q 265 1122 286 1100 q 243 1178 243 1144 q 265 1234 243 1213 q 321 1256 286 1256 q 376 1234 354 1256 q 399 1178 399 1213 q 376 1122 399 1144 q 321 1100 354 1100 z "},"Ẹ":{"ha":596,"x_min":100,"x_max":540,"o":"m 540 900 q 526 886 540 886 l 204 886 q 199 881 199 886 l 199 536 q 204 531 199 531 l 407 531 q 421 517 421 531 l 421 457 q 407 443 421 443 l 204 443 q 199 438 199 443 l 199 92 q 204 86 199 86 l 526 86 q 540 72 540 86 l 540 14 q 526 0 540 0 l 114 0 q 100 14 100 0 l 100 958 q 114 972 100 972 l 526 972 q 540 958 540 972 l 540 900 m 315 -265 q 263 -244 283 -265 q 242 -192 242 -224 q 263 -139 242 -160 q 315 -118 283 -118 q 368 -139 347 -118 q 389 -192 389 -160 q 368 -244 389 -224 q 315 -265 347 -265 z "},"È":{"ha":596,"x_min":100,"x_max":540,"o":"m 540 900 q 526 886 540 886 l 204 886 q 199 881 199 886 l 199 536 q 204 531 199 531 l 407 531 q 421 517 421 531 l 421 457 q 407 443 421 443 l 204 443 q 199 438 199 443 l 199 92 q 204 86 199 86 l 526 86 q 540 72 540 86 l 540 14 q 526 0 540 0 l 114 0 q 100 14 100 0 l 100 958 q 114 972 100 972 l 526 972 q 540 958 540 972 l 540 900 m 350 1081 q 353 1072 353 1075 q 340 1064 353 1064 l 296 1064 q 279 1074 286 1064 l 182 1225 q 179 1233 179 1231 q 190 1242 179 1242 l 249 1242 q 265 1232 258 1242 l 350 1081 z "},"Ẻ":{"ha":596,"x_min":100,"x_max":540,"o":"m 540 900 q 526 886 540 886 l 204 886 q 199 881 199 886 l 199 536 q 204 531 199 531 l 407 531 q 421 517 421 531 l 421 457 q 407 443 421 443 l 204 443 q 199 438 199 443 l 199 92 q 204 86 199 86 l 526 86 q 540 72 540 86 l 540 14 q 526 0 540 0 l 114 0 q 100 14 100 0 l 100 958 q 114 972 100 972 l 526 972 q 540 958 540 972 l 540 900 m 308 1032 q 299 1040 301 1035 q 300 1050 297 1044 q 347 1115 314 1082 q 374 1147 365 1133 q 382 1181 382 1160 q 365 1216 382 1201 q 324 1231 347 1231 q 284 1219 300 1231 q 249 1181 268 1208 q 229 1178 240 1169 l 207 1192 q 203 1211 196 1200 q 256 1269 231 1251 q 326 1286 281 1286 q 410 1257 378 1286 q 442 1181 442 1228 q 429 1130 442 1150 q 390 1082 417 1110 q 351 1035 361 1056 q 333 1026 346 1025 l 308 1032 z "},"Ē":{"ha":596,"x_min":100,"x_max":540,"o":"m 540 900 q 526 886 540 886 l 204 886 q 199 881 199 886 l 199 536 q 204 531 199 531 l 407 531 q 421 517 421 531 l 421 457 q 407 443 421 443 l 204 443 q 199 438 199 443 l 199 92 q 204 86 199 86 l 526 86 q 540 72 540 86 l 540 14 q 526 0 540 0 l 114 0 q 100 14 100 0 l 100 958 q 114 972 100 972 l 526 972 q 540 958 540 972 l 540 900 m 192 1096 q 178 1110 178 1096 l 178 1154 q 192 1168 178 1168 l 446 1168 q 460 1154 460 1168 l 460 1110 q 446 1096 460 1096 l 192 1096 z "},"Ę":{"ha":596,"x_min":100,"x_max":540,"o":"m 540 900 q 526 886 540 886 l 204 886 q 199 881 199 886 l 199 536 q 204 531 199 531 l 407 531 q 421 517 421 531 l 421 457 q 407 443 421 443 l 204 443 q 199 438 199 443 l 199 92 q 204 86 199 86 l 526 86 q 540 72 540 86 l 540 14 q 526 0 540 0 l 356 0 q 349 -3 351 0 q 286 -122 286 -65 q 288 -139 286 -133 q 310 -179 292 -168 q 356 -187 329 -190 q 361 -186 360 -187 q 375 -197 372 -186 l 379 -228 l 379 -231 q 368 -243 379 -240 q 326 -247 350 -247 q 248 -222 281 -247 q 215 -133 215 -196 q 272 -7 215 -65 q 274 -2 275 -4 q 269 0 272 0 l 114 0 q 100 14 100 0 l 100 958 q 114 972 100 972 l 526 972 q 540 958 540 972 l 540 900 z "},"Ẽ":{"ha":596,"x_min":100,"x_max":540,"o":"m 540 900 q 526 886 540 886 l 204 886 q 199 881 199 886 l 199 536 q 204 531 199 531 l 407 531 q 421 517 421 531 l 421 457 q 407 443 421 443 l 204 443 q 199 438 199 443 l 199 92 q 204 86 199 86 l 526 86 q 540 72 540 86 l 540 14 q 526 0 540 0 l 114 0 q 100 14 100 0 l 100 958 q 114 972 100 972 l 526 972 q 540 958 540 972 l 540 900 m 407 1114 q 372 1122 388 1114 q 332 1144 357 1129 q 314 1157 326 1149 q 292 1169 301 1165 q 271 1172 282 1172 q 237 1165 251 1172 q 208 1136 222 1157 q 189 1132 200 1124 l 164 1150 q 158 1169 153 1158 q 264 1242 196 1242 q 304 1233 286 1242 q 344 1210 322 1225 q 360 1199 347 1207 q 384 1185 372 1190 q 407 1181 396 1181 q 439 1189 425 1181 q 467 1219 453 1197 q 475 1226 469 1225 q 486 1225 481 1228 l 511 1208 q 517 1197 517 1204 q 511 1181 517 1190 q 463 1130 492 1146 q 407 1114 433 1114 z "},"F":{"ha":561,"x_min":100,"x_max":538,"o":"m 538 900 q 524 886 538 886 l 204 886 q 199 881 199 886 l 199 536 q 204 531 199 531 l 406 531 q 419 517 419 531 l 419 457 q 406 443 419 443 l 204 443 q 199 438 199 443 l 199 14 q 185 0 199 0 l 114 0 q 100 14 100 0 l 100 958 q 114 972 100 972 l 524 972 q 538 958 538 972 l 538 900 z "},"G":{"ha":626,"x_min":78,"x_max":549,"o":"m 313 -11 q 142 52 206 -11 q 78 221 78 115 l 78 751 q 142 920 78 857 q 313 983 206 983 q 484 919 419 983 q 549 750 549 856 l 549 690 q 535 676 549 676 l 464 676 q 450 690 450 676 l 450 753 q 413 858 450 818 q 313 897 375 897 q 213 857 251 897 q 175 753 175 817 l 175 219 q 213 115 175 156 q 313 75 251 75 q 413 115 375 75 q 450 219 450 154 l 450 397 q 444 403 450 403 l 325 403 q 311 417 311 403 l 311 475 q 325 489 311 489 l 535 489 q 549 475 549 489 l 549 221 q 484 52 549 115 q 313 -11 419 -11 z "},"Ğ":{"ha":626,"x_min":78,"x_max":549,"o":"m 313 -11 q 142 52 206 -11 q 78 221 78 115 l 78 751 q 142 920 78 857 q 313 983 206 983 q 484 919 419 983 q 549 750 549 856 l 549 690 q 535 676 549 676 l 464 676 q 450 690 450 676 l 450 753 q 413 858 450 818 q 313 897 375 897 q 213 857 251 897 q 175 753 175 817 l 175 219 q 213 115 175 156 q 313 75 251 75 q 413 115 375 75 q 450 219 450 154 l 450 397 q 444 403 450 403 l 325 403 q 311 417 311 403 l 311 475 q 325 489 311 489 l 535 489 q 549 475 549 489 l 549 221 q 484 52 549 115 q 313 -11 419 -11 m 313 1044 q 213 1082 253 1044 q 167 1176 172 1119 q 181 1190 167 1190 l 213 1190 q 228 1176 226 1190 q 256 1119 232 1142 q 313 1097 279 1097 q 369 1119 346 1097 q 397 1176 393 1142 q 413 1190 399 1190 l 444 1190 q 458 1176 458 1190 q 413 1081 453 1118 q 313 1044 372 1044 z "},"Ĝ":{"ha":626,"x_min":78,"x_max":549,"o":"m 313 -11 q 142 52 206 -11 q 78 221 78 115 l 78 751 q 142 920 78 857 q 313 983 206 983 q 484 919 419 983 q 549 750 549 856 l 549 690 q 535 676 549 676 l 464 676 q 450 690 450 676 l 450 753 q 413 858 450 818 q 313 897 375 897 q 213 857 251 897 q 175 753 175 817 l 175 219 q 213 115 175 156 q 313 75 251 75 q 413 115 375 75 q 450 219 450 154 l 450 397 q 444 403 450 403 l 325 403 q 311 417 311 403 l 311 475 q 325 489 311 489 l 535 489 q 549 475 549 489 l 549 221 q 484 52 549 115 q 313 -11 419 -11 m 171 1072 q 160 1077 163 1072 q 163 1089 158 1082 l 253 1232 q 269 1242 260 1242 l 353 1242 q 369 1232 363 1242 l 463 1089 q 465 1081 465 1083 q 454 1072 465 1072 l 393 1072 q 376 1082 383 1072 l 317 1183 q 313 1186 315 1186 q 308 1183 310 1186 l 247 1082 q 231 1072 240 1072 l 171 1072 z "},"Ġ":{"ha":626,"x_min":78,"x_max":549,"o":"m 313 -11 q 142 52 206 -11 q 78 221 78 115 l 78 751 q 142 920 78 857 q 313 983 206 983 q 484 919 419 983 q 549 750 549 856 l 549 690 q 535 676 549 676 l 464 676 q 450 690 450 676 l 450 753 q 413 858 450 818 q 313 897 375 897 q 213 857 251 897 q 175 753 175 817 l 175 219 q 213 115 175 156 q 313 75 251 75 q 413 115 375 75 q 450 219 450 154 l 450 397 q 444 403 450 403 l 325 403 q 311 417 311 403 l 311 475 q 325 489 311 489 l 535 489 q 549 475 549 489 l 549 221 q 484 52 549 115 q 313 -11 419 -11 m 314 1100 q 258 1122 279 1100 q 236 1178 236 1144 q 258 1234 236 1213 q 314 1256 279 1256 q 369 1234 347 1256 q 392 1178 392 1213 q 369 1122 392 1144 q 314 1100 347 1100 z "},"H":{"ha":656,"x_min":100,"x_max":556,"o":"m 457 958 q 471 972 457 972 l 542 972 q 556 958 556 972 l 556 14 q 542 0 556 0 l 471 0 q 457 14 457 0 l 457 438 q 451 443 457 443 l 204 443 q 199 438 199 443 l 199 14 q 185 0 199 0 l 114 0 q 100 14 100 0 l 100 958 q 114 972 100 972 l 185 972 q 199 958 199 972 l 199 536 q 204 531 199 531 l 451 531 q 457 536 457 531 l 457 958 z "},"Ħ":{"ha":656,"x_min":33,"x_max":622,"o":"m 608 776 q 622 763 622 776 l 622 719 q 608 706 622 706 l 561 706 q 556 700 556 706 l 556 14 q 542 0 556 0 l 471 0 q 457 14 457 0 l 457 438 q 451 443 457 443 l 204 443 q 199 438 199 443 l 199 14 q 185 0 199 0 l 114 0 q 100 14 100 0 l 100 700 q 94 706 100 706 l 47 706 q 33 719 33 706 l 33 763 q 47 776 33 776 l 94 776 q 100 782 100 776 l 100 958 q 114 972 100 972 l 185 972 q 199 958 199 972 l 199 782 q 204 776 199 776 l 451 776 q 457 782 457 776 l 457 958 q 471 972 457 972 l 542 972 q 556 958 556 972 l 556 782 q 561 776 556 776 l 608 776 m 451 531 q 457 536 457 531 l 457 700 q 451 706 457 706 l 204 706 q 199 700 199 706 l 199 536 q 204 531 199 531 l 451 531 z "},"Ĥ":{"ha":656,"x_min":100,"x_max":556,"o":"m 457 958 q 471 972 457 972 l 542 972 q 556 958 556 972 l 556 14 q 542 0 556 0 l 471 0 q 457 14 457 0 l 457 438 q 451 443 457 443 l 204 443 q 199 438 199 443 l 199 14 q 185 0 199 0 l 114 0 q 100 14 100 0 l 100 958 q 114 972 100 972 l 185 972 q 199 958 199 972 l 199 536 q 204 531 199 531 l 451 531 q 457 536 457 531 l 457 958 m 182 1074 q 172 1078 174 1074 q 174 1090 169 1083 l 264 1233 q 281 1243 271 1243 l 364 1243 q 381 1233 374 1243 l 474 1090 q 476 1082 476 1085 q 465 1074 476 1074 l 404 1074 q 388 1083 394 1074 l 328 1185 q 324 1188 326 1188 q 319 1185 321 1188 l 258 1083 q 242 1074 251 1074 l 182 1074 z "},"I":{"ha":299,"x_min":100,"x_max":199,"o":"m 114 0 q 100 14 100 0 l 100 958 q 114 972 100 972 l 185 972 q 199 958 199 972 l 199 14 q 185 0 199 0 l 114 0 z "},"Í":{"ha":299,"x_min":88,"x_max":264,"o":"m 114 0 q 100 14 100 0 l 100 958 q 114 972 100 972 l 185 972 q 199 958 199 972 l 199 14 q 185 0 199 0 l 114 0 m 101 1064 q 90 1069 93 1064 q 92 1081 88 1074 l 178 1232 q 194 1242 185 1242 l 251 1242 q 262 1237 260 1242 q 260 1225 264 1232 l 163 1074 q 146 1064 156 1064 l 101 1064 z "},"Î":{"ha":299,"x_min":-6,"x_max":301,"o":"m 114 0 q 100 14 100 0 l 100 958 q 114 972 100 972 l 185 972 q 199 958 199 972 l 199 14 q 185 0 199 0 l 114 0 m 7 1072 q -3 1077 -1 1072 q -1 1089 -6 1082 l 89 1232 q 106 1242 96 1242 l 189 1242 q 206 1232 199 1242 l 299 1089 q 301 1081 301 1083 q 290 1072 301 1072 l 229 1072 q 213 1082 219 1072 l 153 1183 q 149 1186 151 1186 q 144 1183 146 1186 l 83 1082 q 67 1072 76 1072 l 7 1072 z "},"Ï":{"ha":299,"x_min":-32,"x_max":331,"o":"m 114 0 q 100 14 100 0 l 100 958 q 114 972 100 972 l 185 972 q 199 958 199 972 l 199 14 q 185 0 199 0 l 114 0 z "},"İ":{"ha":299,"x_min":72,"x_max":228,"o":"m 114 0 q 100 14 100 0 l 100 958 q 114 972 100 972 l 185 972 q 199 958 199 972 l 199 14 q 185 0 199 0 l 114 0 m 150 1100 q 94 1122 115 1100 q 72 1178 72 1144 q 94 1234 72 1213 q 150 1256 115 1256 q 206 1234 183 1256 q 228 1178 228 1213 q 206 1122 228 1144 q 150 1100 183 1100 z "},"Ị":{"ha":299,"x_min":76,"x_max":224,"o":"m 114 0 q 100 14 100 0 l 100 958 q 114 972 100 972 l 185 972 q 199 958 199 972 l 199 14 q 185 0 199 0 l 114 0 m 150 -265 q 97 -244 118 -265 q 76 -192 76 -224 q 97 -139 76 -160 q 150 -118 118 -118 q 203 -139 182 -118 q 224 -192 224 -160 q 203 -244 224 -224 q 150 -265 182 -265 z "},"Ì":{"ha":299,"x_min":8,"x_max":199,"o":"m 114 0 q 100 14 100 0 l 100 958 q 114 972 100 972 l 185 972 q 199 958 199 972 l 199 14 q 185 0 199 0 l 114 0 m 179 1081 q 182 1072 182 1075 q 169 1064 182 1064 l 125 1064 q 108 1074 115 1064 l 11 1225 q 8 1233 8 1231 q 19 1242 8 1242 l 78 1242 q 94 1232 88 1242 l 179 1081 z "},"Ỉ":{"ha":299,"x_min":25,"x_max":271,"o":"m 114 0 q 100 14 100 0 l 100 958 q 114 972 100 972 l 185 972 q 199 958 199 972 l 199 14 q 185 0 199 0 l 114 0 m 138 1032 q 128 1040 131 1035 q 129 1050 126 1044 q 176 1115 143 1082 q 203 1147 194 1133 q 211 1181 211 1160 q 194 1216 211 1201 q 153 1231 176 1231 q 113 1219 129 1231 q 78 1181 97 1208 q 58 1178 69 1169 l 36 1192 q 32 1211 25 1200 q 85 1269 60 1251 q 156 1286 110 1286 q 239 1257 207 1286 q 271 1181 271 1228 q 258 1130 271 1150 q 219 1082 246 1110 q 181 1035 190 1056 q 163 1026 175 1025 l 138 1032 z "},"Ī":{"ha":299,"x_min":7,"x_max":289,"o":"m 114 0 q 100 14 100 0 l 100 958 q 114 972 100 972 l 185 972 q 199 958 199 972 l 199 14 q 185 0 199 0 l 114 0 m 21 1096 q 7 1110 7 1096 l 7 1154 q 21 1168 7 1168 l 275 1168 q 289 1154 289 1168 l 289 1110 q 275 1096 289 1096 l 21 1096 z "},"Į":{"ha":258,"x_min":36,"x_max":197,"o":"m 96 0 q 82 14 82 0 l 82 958 q 96 972 82 972 l 167 972 q 181 958 181 972 l 181 14 q 167 0 181 0 l 96 0 m 197 -240 q 188 -253 197 -249 q 147 -257 169 -257 q 68 -231 100 -257 q 36 -143 36 -206 q 97 -10 36 -67 l 103 -4 q 117 0 108 0 l 156 0 q 167 -5 165 0 q 163 -17 169 -10 q 117 -81 133 -47 q 106 -147 101 -115 q 126 -186 111 -174 q 161 -199 140 -199 q 176 -197 171 -199 l 182 -196 q 193 -207 190 -196 l 197 -236 l 197 -240 z "},"Ĩ":{"ha":299,"x_min":-18,"x_max":346,"o":"m 114 0 q 100 14 100 0 l 100 958 q 114 972 100 972 l 185 972 q 199 958 199 972 l 199 14 q 185 0 199 0 l 114 0 m 236 1114 q 201 1122 217 1114 q 161 1144 186 1129 q 143 1157 156 1149 q 121 1169 131 1165 q 100 1172 111 1172 q 66 1165 81 1172 q 38 1136 51 1157 q 18 1132 29 1124 l -7 1150 q -12 1169 -18 1158 q 93 1242 25 1242 q 133 1233 115 1242 q 174 1210 151 1225 q 189 1199 176 1207 q 213 1185 201 1190 q 236 1181 225 1181 q 268 1189 254 1181 q 296 1219 282 1197 q 304 1226 299 1225 q 315 1225 310 1228 l 340 1208 q 346 1197 346 1204 q 340 1181 346 1190 q 292 1130 321 1146 q 236 1114 263 1114 z "},"J":{"ha":592,"x_min":31,"x_max":492,"o":"m 261 -11 q 94 53 158 -11 q 31 224 31 118 l 31 340 q 44 354 31 354 l 115 354 q 129 340 129 354 l 129 222 q 165 116 129 157 q 261 75 201 75 q 356 116 319 75 q 393 222 393 157 l 393 958 q 407 972 393 972 l 478 972 q 492 958 492 972 l 492 224 q 428 53 492 118 q 261 -11 364 -11 z "},"Ĵ":{"ha":592,"x_min":31,"x_max":593,"o":"m 261 -11 q 94 53 158 -11 q 31 224 31 118 l 31 340 q 44 354 31 354 l 115 354 q 129 340 129 354 l 129 222 q 165 116 129 157 q 261 75 201 75 q 356 116 319 75 q 393 222 393 157 l 393 958 q 407 972 393 972 l 478 972 q 492 958 492 972 l 492 224 q 428 53 492 118 q 261 -11 364 -11 m 299 1074 q 288 1078 290 1074 q 290 1090 286 1083 l 381 1233 q 397 1243 388 1243 l 481 1243 q 497 1233 490 1243 l 590 1090 q 593 1082 593 1085 q 582 1074 593 1074 l 521 1074 q 504 1083 511 1074 l 444 1185 q 440 1188 443 1188 q 436 1185 438 1188 l 375 1083 q 358 1074 368 1074 l 299 1074 z "},"K":{"ha":628,"x_min":100,"x_max":600,"o":"m 114 0 q 100 14 100 0 l 100 958 q 114 972 100 972 l 185 972 q 199 958 199 972 l 199 508 q 201 503 199 504 q 206 506 204 501 l 474 963 q 490 972 481 972 l 568 972 q 579 967 576 972 q 578 956 582 963 l 361 579 q 360 571 358 574 l 599 17 l 600 11 q 588 0 600 0 l 508 0 q 493 11 497 0 l 293 483 q 286 483 292 489 l 200 350 q 199 343 199 349 l 199 14 q 185 0 199 0 l 114 0 z "},"L":{"ha":550,"x_min":100,"x_max":536,"o":"m 114 0 q 100 14 100 0 l 100 958 q 114 972 100 972 l 185 972 q 199 958 199 972 l 199 92 q 204 86 199 86 l 522 86 q 536 72 536 86 l 536 14 q 522 0 536 0 l 114 0 z "},"Ĺ":{"ha":550,"x_min":88,"x_max":536,"o":"m 114 0 q 100 14 100 0 l 100 958 q 114 972 100 972 l 185 972 q 199 958 199 972 l 199 92 q 204 86 199 86 l 522 86 q 536 72 536 86 l 536 14 q 522 0 536 0 l 114 0 m 101 1064 q 90 1069 93 1064 q 92 1081 88 1074 l 178 1232 q 194 1242 185 1242 l 251 1242 q 262 1237 260 1242 q 260 1225 264 1232 l 163 1074 q 146 1064 156 1064 l 101 1064 z "},"Ľ":{"ha":551,"x_min":100,"x_max":536,"o":"m 114 0 q 100 14 100 0 l 100 958 q 114 972 100 972 l 185 972 q 199 958 199 972 l 199 92 q 204 86 199 86 l 522 86 q 536 72 536 86 l 536 14 q 522 0 536 0 l 114 0 z "},"Ļ":{"ha":550,"x_min":100,"x_max":536,"o":"m 114 0 q 100 14 100 0 l 100 958 q 114 972 100 972 l 185 972 q 199 958 199 972 l 199 92 q 204 86 199 86 l 522 86 q 536 72 536 86 l 536 14 q 522 0 536 0 l 114 0 z "},"Ł":{"ha":588,"x_min":-18,"x_max":574,"o":"m 236 92 q 242 86 236 86 l 560 86 q 574 72 574 86 l 574 14 q 560 0 574 0 l 151 0 q 138 14 138 0 l 138 338 q 135 342 138 340 q 131 340 133 343 l 36 272 q 28 269 33 269 q 17 275 21 269 l -15 314 q -18 322 -18 317 q -12 333 -18 329 l 135 440 q 138 447 138 443 l 138 958 q 151 972 138 972 l 222 972 q 236 958 236 972 l 236 524 q 238 519 236 521 q 243 521 240 518 l 463 682 q 471 685 465 685 q 482 679 478 685 l 515 639 q 518 631 518 636 q 513 619 518 624 l 239 421 q 236 414 236 418 l 236 92 z "},"M":{"ha":724,"x_min":97,"x_max":626,"o":"m 524 963 q 540 972 528 972 l 613 972 q 626 958 626 972 l 626 14 q 613 0 626 0 l 542 0 q 528 14 528 0 l 528 758 q 526 763 528 763 q 521 760 524 763 l 376 460 q 363 450 372 450 q 347 460 351 450 l 203 758 q 198 761 200 761 q 196 757 196 761 l 196 14 q 182 0 196 0 l 111 0 q 97 14 97 0 l 97 958 q 111 972 97 972 l 183 972 q 200 963 196 972 l 358 642 q 363 639 360 639 q 367 642 365 639 l 524 963 z "},"N":{"ha":685,"x_min":100,"x_max":586,"o":"m 489 958 q 503 972 489 972 l 572 972 q 586 958 586 972 l 586 14 q 572 0 586 0 l 490 0 q 475 11 479 0 l 204 729 q 200 733 203 733 q 197 728 197 732 l 199 14 q 185 0 199 0 l 114 0 q 100 14 100 0 l 100 958 q 114 972 100 972 l 194 972 q 210 961 206 972 l 482 242 q 486 238 483 238 q 489 243 489 239 l 489 958 z "},"Ń":{"ha":685,"x_min":100,"x_max":586,"o":"m 489 958 q 503 972 489 972 l 572 972 q 586 958 586 972 l 586 14 q 572 0 586 0 l 490 0 q 475 11 479 0 l 204 729 q 200 733 203 733 q 197 728 197 732 l 199 14 q 185 0 199 0 l 114 0 q 100 14 100 0 l 100 958 q 114 972 100 972 l 194 972 q 210 961 206 972 l 482 242 q 486 238 483 238 q 489 243 489 239 l 489 958 m 294 1074 q 283 1078 286 1074 q 285 1090 281 1083 l 371 1242 q 388 1251 378 1251 l 444 1251 q 455 1247 453 1251 q 453 1235 457 1242 l 356 1083 q 339 1074 349 1074 l 294 1074 z "},"Ň":{"ha":685,"x_min":100,"x_max":586,"o":"m 489 958 q 503 972 489 972 l 572 972 q 586 958 586 972 l 586 14 q 572 0 586 0 l 490 0 q 475 11 479 0 l 204 729 q 200 733 203 733 q 197 728 197 732 l 199 14 q 185 0 199 0 l 114 0 q 100 14 100 0 l 100 958 q 114 972 100 972 l 194 972 q 210 961 206 972 l 482 242 q 486 238 483 238 q 489 243 489 239 l 489 958 m 194 1235 q 192 1243 192 1240 q 203 1251 192 1251 l 263 1251 q 279 1242 272 1251 l 340 1140 q 344 1139 342 1139 q 349 1140 347 1139 l 408 1242 q 425 1251 415 1251 l 486 1251 q 497 1247 494 1251 q 494 1235 499 1242 l 401 1092 q 385 1082 394 1082 l 301 1082 q 285 1092 292 1082 l 194 1235 z "},"Ŋ":{"ha":685,"x_min":100,"x_max":586,"o":"m 489 958 q 503 972 489 972 l 572 972 q 586 958 586 972 l 586 0 q 576 -123 586 -79 q 525 -192 565 -167 q 400 -217 485 -217 q 386 -203 386 -217 l 386 -144 q 400 -131 386 -131 q 456 -115 439 -129 q 476 -76 472 -100 q 479 -4 479 -53 q 478 3 479 1 l 204 729 q 200 733 203 733 q 197 728 197 732 l 199 14 q 185 0 199 0 l 114 0 q 100 14 100 0 l 100 958 q 114 972 100 972 l 194 972 q 210 961 206 972 l 472 268 q 476 265 474 264 q 479 269 479 265 l 479 638 q 485 651 479 651 q 489 657 489 651 l 489 958 z "},"Ñ":{"ha":685,"x_min":100,"x_max":586,"o":"m 489 958 q 503 972 489 972 l 572 972 q 586 958 586 972 l 586 14 q 572 0 586 0 l 490 0 q 475 11 479 0 l 204 729 q 200 733 203 733 q 197 728 197 732 l 199 14 q 185 0 199 0 l 114 0 q 100 14 100 0 l 100 958 q 114 972 100 972 l 194 972 q 210 961 206 972 l 482 242 q 486 238 483 238 q 489 243 489 239 l 489 958 m 429 1124 q 394 1131 410 1124 q 354 1154 379 1139 q 336 1167 349 1158 q 314 1178 324 1175 q 293 1182 304 1182 q 259 1174 274 1182 q 231 1146 244 1167 q 211 1142 222 1133 l 186 1160 q 181 1179 175 1168 q 286 1251 218 1251 q 326 1243 308 1251 q 367 1219 344 1235 q 382 1208 369 1217 q 406 1195 394 1200 q 429 1190 418 1190 q 461 1199 447 1190 q 489 1229 475 1207 q 497 1236 492 1235 q 508 1235 503 1238 l 533 1218 q 539 1207 539 1214 q 533 1190 539 1200 q 485 1140 514 1156 q 429 1124 456 1124 z "},"O":{"ha":633,"x_min":76,"x_max":557,"o":"m 315 -11 q 142 56 208 -11 q 76 232 76 122 l 76 740 q 142 917 76 850 q 315 983 208 983 q 490 917 424 983 q 557 740 557 850 l 557 232 q 490 56 557 124 q 315 -11 424 -11 m 315 75 q 419 117 379 75 q 458 226 458 160 l 458 744 q 419 855 458 813 q 315 897 379 897 q 214 855 253 897 q 175 744 175 813 l 175 226 q 214 117 175 160 q 315 75 253 75 z "},"Ó":{"ha":633,"x_min":76,"x_max":557,"o":"m 315 -11 q 142 56 208 -11 q 76 232 76 122 l 76 740 q 142 917 76 850 q 315 983 208 983 q 490 917 424 983 q 557 740 557 850 l 557 232 q 490 56 557 124 q 315 -11 424 -11 m 315 75 q 419 117 379 75 q 458 226 458 160 l 458 744 q 419 855 458 813 q 315 897 379 897 q 214 855 253 897 q 175 744 175 813 l 175 226 q 214 117 175 160 q 315 75 253 75 m 268 1063 q 257 1067 260 1063 q 258 1079 254 1072 l 344 1231 q 361 1240 351 1240 l 418 1240 q 428 1235 426 1240 q 426 1224 431 1231 l 329 1072 q 313 1063 322 1063 l 268 1063 z "},"Ô":{"ha":633,"x_min":76,"x_max":557,"o":"m 315 -11 q 142 56 208 -11 q 76 232 76 122 l 76 740 q 142 917 76 850 q 315 983 208 983 q 490 917 424 983 q 557 740 557 850 l 557 232 q 490 56 557 124 q 315 -11 424 -11 m 315 75 q 419 117 379 75 q 458 226 458 160 l 458 744 q 419 855 458 813 q 315 897 379 897 q 214 855 253 897 q 175 744 175 813 l 175 226 q 214 117 175 160 q 315 75 253 75 m 174 1071 q 163 1076 165 1071 q 165 1088 161 1081 l 256 1231 q 272 1240 263 1240 l 356 1240 q 372 1231 365 1240 l 465 1088 q 468 1079 468 1082 q 457 1071 468 1071 l 396 1071 q 379 1081 386 1071 l 319 1182 q 315 1185 318 1185 q 311 1182 313 1185 l 250 1081 q 233 1071 243 1071 l 174 1071 z "},"Ố":{"ha":633,"x_min":76,"x_max":642,"o":"m 315 -11 q 142 56 208 -11 q 76 232 76 122 l 76 740 q 142 917 76 850 q 315 983 208 983 q 490 917 424 983 q 557 740 557 850 l 557 232 q 490 56 557 124 q 315 -11 424 -11 m 315 75 q 419 117 379 75 q 458 226 458 160 l 458 744 q 419 855 458 813 q 315 897 379 897 q 214 855 253 897 q 175 744 175 813 l 175 226 q 214 117 175 160 q 315 75 253 75 z "},"Ộ":{"ha":633,"x_min":76,"x_max":557,"o":"m 315 -11 q 142 56 208 -11 q 76 232 76 122 l 76 740 q 142 917 76 850 q 315 983 208 983 q 490 917 424 983 q 557 740 557 850 l 557 232 q 490 56 557 124 q 315 -11 424 -11 m 315 75 q 419 117 379 75 q 458 226 458 160 l 458 744 q 419 855 458 813 q 315 897 379 897 q 214 855 253 897 q 175 744 175 813 l 175 226 q 214 117 175 160 q 315 75 253 75 m 318 -265 q 265 -244 286 -265 q 244 -192 244 -224 q 265 -139 244 -160 q 318 -118 286 -118 q 371 -139 350 -118 q 392 -192 392 -160 q 371 -244 392 -224 q 318 -265 350 -265 m 174 1071 q 163 1076 165 1071 q 165 1088 161 1081 l 256 1231 q 272 1240 263 1240 l 356 1240 q 372 1231 365 1240 l 465 1088 q 468 1079 468 1082 q 457 1071 468 1071 l 396 1071 q 379 1081 386 1071 l 319 1182 q 315 1185 318 1185 q 311 1182 313 1185 l 250 1081 q 233 1071 243 1071 l 174 1071 z "},"Ồ":{"ha":633,"x_min":76,"x_max":557,"o":"m 315 -11 q 142 56 208 -11 q 76 232 76 122 l 76 740 q 142 917 76 850 q 315 983 208 983 q 490 917 424 983 q 557 740 557 850 l 557 232 q 490 56 557 124 q 315 -11 424 -11 m 315 75 q 419 117 379 75 q 458 226 458 160 l 458 744 q 419 855 458 813 q 315 897 379 897 q 214 855 253 897 q 175 744 175 813 l 175 226 q 214 117 175 160 q 315 75 253 75 z "},"Ổ":{"ha":633,"x_min":76,"x_max":603,"o":"m 315 -11 q 142 56 208 -11 q 76 232 76 122 l 76 740 q 142 917 76 850 q 315 983 208 983 q 490 917 424 983 q 557 740 557 850 l 557 232 q 490 56 557 124 q 315 -11 424 -11 m 315 75 q 419 117 379 75 q 458 226 458 160 l 458 744 q 419 855 458 813 q 315 897 379 897 q 214 855 253 897 q 175 744 175 813 l 175 226 q 214 117 175 160 q 315 75 253 75 m 474 1201 q 464 1218 458 1206 q 510 1282 476 1249 q 535 1313 528 1300 q 543 1346 543 1325 q 527 1379 543 1365 q 488 1393 511 1393 q 449 1383 464 1393 q 414 1346 433 1374 q 394 1343 406 1335 l 374 1357 q 369 1376 363 1365 q 421 1432 396 1415 q 489 1449 446 1449 q 571 1419 539 1449 q 603 1346 603 1390 q 590 1294 603 1315 q 550 1249 576 1274 q 514 1204 522 1221 q 496 1196 507 1192 l 474 1201 m 172 1071 q 162 1076 164 1071 q 164 1088 160 1081 l 254 1231 q 271 1240 261 1240 l 354 1240 q 371 1231 364 1240 l 464 1088 q 467 1079 467 1082 q 456 1071 467 1071 l 394 1071 q 378 1081 385 1071 l 318 1182 q 314 1185 317 1185 q 310 1182 311 1185 l 249 1081 q 232 1071 242 1071 l 172 1071 z "},"Ỗ":{"ha":633,"x_min":76,"x_max":557,"o":"m 315 -11 q 142 56 208 -11 q 76 232 76 122 l 76 740 q 142 917 76 850 q 315 983 208 983 q 490 917 424 983 q 557 740 557 850 l 557 232 q 490 56 557 124 q 315 -11 424 -11 m 315 75 q 419 117 379 75 q 458 226 458 160 l 458 744 q 419 855 458 813 q 315 897 379 897 q 214 855 253 897 q 175 744 175 813 l 175 226 q 214 117 175 160 q 315 75 253 75 z "},"Ö":{"ha":633,"x_min":76,"x_max":557,"o":"m 315 -11 q 142 56 208 -11 q 76 232 76 122 l 76 740 q 142 917 76 850 q 315 983 208 983 q 490 917 424 983 q 557 740 557 850 l 557 232 q 490 56 557 124 q 315 -11 424 -11 m 315 75 q 419 117 379 75 q 458 226 458 160 l 458 744 q 419 855 458 813 q 315 897 379 897 q 214 855 253 897 q 175 744 175 813 l 175 226 q 214 117 175 160 q 315 75 253 75 z "},"Ọ":{"ha":633,"x_min":76,"x_max":557,"o":"m 315 -11 q 142 56 208 -11 q 76 232 76 122 l 76 740 q 142 917 76 850 q 315 983 208 983 q 490 917 424 983 q 557 740 557 850 l 557 232 q 490 56 557 124 q 315 -11 424 -11 m 315 75 q 419 117 379 75 q 458 226 458 160 l 458 744 q 419 855 458 813 q 315 897 379 897 q 214 855 253 897 q 175 744 175 813 l 175 226 q 214 117 175 160 q 315 75 253 75 m 318 -265 q 265 -244 286 -265 q 244 -192 244 -224 q 265 -139 244 -160 q 318 -118 286 -118 q 371 -139 350 -118 q 392 -192 392 -160 q 371 -244 392 -224 q 318 -265 350 -265 z "},"Ò":{"ha":633,"x_min":76,"x_max":557,"o":"m 315 -11 q 142 56 208 -11 q 76 232 76 122 l 76 740 q 142 917 76 850 q 315 983 208 983 q 490 917 424 983 q 557 740 557 850 l 557 232 q 490 56 557 124 q 315 -11 424 -11 m 315 75 q 419 117 379 75 q 458 226 458 160 l 458 744 q 419 855 458 813 q 315 897 379 897 q 214 855 253 897 q 175 744 175 813 l 175 226 q 214 117 175 160 q 315 75 253 75 m 344 1079 q 347 1071 347 1074 q 335 1063 347 1063 l 290 1063 q 274 1072 281 1063 l 176 1224 q 174 1232 174 1229 q 185 1240 174 1240 l 243 1240 q 260 1231 253 1240 l 344 1079 z "},"Ỏ":{"ha":633,"x_min":76,"x_max":557,"o":"m 315 -11 q 142 56 208 -11 q 76 232 76 122 l 76 740 q 142 917 76 850 q 315 983 208 983 q 490 917 424 983 q 557 740 557 850 l 557 232 q 490 56 557 124 q 315 -11 424 -11 m 315 75 q 419 117 379 75 q 458 226 458 160 l 458 744 q 419 855 458 813 q 315 897 379 897 q 214 855 253 897 q 175 744 175 813 l 175 226 q 214 117 175 160 q 315 75 253 75 m 304 1031 q 295 1038 297 1033 q 296 1049 293 1043 q 343 1114 310 1081 q 369 1145 361 1132 q 378 1179 378 1158 q 360 1215 378 1200 q 319 1229 343 1229 q 280 1218 296 1229 q 244 1179 264 1207 q 225 1176 236 1168 l 203 1190 q 199 1210 192 1199 q 251 1267 226 1250 q 322 1285 276 1285 q 406 1256 374 1285 q 438 1179 438 1226 q 425 1128 438 1149 q 386 1081 413 1108 q 347 1033 357 1054 q 329 1025 342 1024 l 304 1031 z "},"Ơ":{"ha":633,"x_min":76,"x_max":557,"o":"m 471 940 q 471 933 467 938 q 535 852 513 901 q 557 740 557 803 l 557 232 q 490 56 557 124 q 315 -11 424 -11 q 142 56 208 -11 q 76 232 76 122 l 76 740 q 142 917 76 850 q 315 983 208 983 q 392 974 347 983 q 397 972 393 972 q 456 1000 432 975 q 483 1069 479 1025 q 497 1083 483 1083 l 529 1083 q 540 1078 536 1083 q 542 1065 543 1074 q 520 990 539 1022 q 471 940 501 958 m 458 744 q 419 855 458 813 q 315 897 379 897 q 214 855 253 897 q 175 744 175 813 l 175 226 q 214 117 175 160 q 315 75 253 75 q 419 117 379 75 q 458 226 458 160 l 458 744 z "},"Ớ":{"ha":633,"x_min":76,"x_max":557,"o":"m 471 940 q 471 933 467 938 q 535 852 513 901 q 557 740 557 803 l 557 232 q 490 56 557 124 q 315 -11 424 -11 q 142 56 208 -11 q 76 232 76 122 l 76 740 q 142 917 76 850 q 315 983 208 983 q 392 974 347 983 q 397 972 393 972 q 456 1000 432 975 q 483 1069 479 1025 q 497 1083 483 1083 l 529 1083 q 540 1078 536 1083 q 542 1065 543 1074 q 520 990 539 1022 q 471 940 501 958 m 458 744 q 419 855 458 813 q 315 897 379 897 q 214 855 253 897 q 175 744 175 813 l 175 226 q 214 117 175 160 q 315 75 253 75 q 419 117 379 75 q 458 226 458 160 l 458 744 m 268 1063 q 257 1067 260 1063 q 258 1079 254 1072 l 344 1231 q 361 1240 351 1240 l 418 1240 q 428 1235 426 1240 q 426 1224 431 1231 l 329 1072 q 313 1063 322 1063 l 268 1063 z "},"Ợ":{"ha":633,"x_min":76,"x_max":557,"o":"m 471 940 q 471 933 467 938 q 535 852 513 901 q 557 740 557 803 l 557 232 q 490 56 557 124 q 315 -11 424 -11 q 142 56 208 -11 q 76 232 76 122 l 76 740 q 142 917 76 850 q 315 983 208 983 q 392 974 347 983 q 397 972 393 972 q 456 1000 432 975 q 483 1069 479 1025 q 497 1083 483 1083 l 529 1083 q 540 1078 536 1083 q 542 1065 543 1074 q 520 990 539 1022 q 471 940 501 958 m 458 744 q 419 855 458 813 q 315 897 379 897 q 214 855 253 897 q 175 744 175 813 l 175 226 q 214 117 175 160 q 315 75 253 75 q 419 117 379 75 q 458 226 458 160 l 458 744 m 318 -265 q 265 -244 286 -265 q 244 -192 244 -224 q 265 -139 244 -160 q 318 -118 286 -118 q 371 -139 350 -118 q 392 -192 392 -160 q 371 -244 392 -224 q 318 -265 350 -265 z "},"Ờ":{"ha":633,"x_min":76,"x_max":557,"o":"m 471 940 q 471 933 467 938 q 535 852 513 901 q 557 740 557 803 l 557 232 q 490 56 557 124 q 315 -11 424 -11 q 142 56 208 -11 q 76 232 76 122 l 76 740 q 142 917 76 850 q 315 983 208 983 q 392 974 347 983 q 397 972 393 972 q 456 1000 432 975 q 483 1069 479 1025 q 497 1083 483 1083 l 529 1083 q 540 1078 536 1083 q 542 1065 543 1074 q 520 990 539 1022 q 471 940 501 958 m 458 744 q 419 855 458 813 q 315 897 379 897 q 214 855 253 897 q 175 744 175 813 l 175 226 q 214 117 175 160 q 315 75 253 75 q 419 117 379 75 q 458 226 458 160 l 458 744 m 344 1079 q 347 1071 347 1074 q 335 1063 347 1063 l 290 1063 q 274 1072 281 1063 l 176 1224 q 174 1232 174 1229 q 185 1240 174 1240 l 243 1240 q 260 1231 253 1240 l 344 1079 z "},"Ở":{"ha":633,"x_min":76,"x_max":557,"o":"m 471 940 q 471 933 467 938 q 535 852 513 901 q 557 740 557 803 l 557 232 q 490 56 557 124 q 315 -11 424 -11 q 142 56 208 -11 q 76 232 76 122 l 76 740 q 142 917 76 850 q 315 983 208 983 q 392 974 347 983 q 397 972 393 972 q 456 1000 432 975 q 483 1069 479 1025 q 497 1083 483 1083 l 529 1083 q 540 1078 536 1083 q 542 1065 543 1074 q 520 990 539 1022 q 471 940 501 958 m 458 744 q 419 855 458 813 q 315 897 379 897 q 214 855 253 897 q 175 744 175 813 l 175 226 q 214 117 175 160 q 315 75 253 75 q 419 117 379 75 q 458 226 458 160 l 458 744 m 304 1031 q 295 1038 297 1033 q 296 1049 293 1043 q 343 1114 310 1081 q 369 1145 361 1132 q 378 1179 378 1158 q 360 1215 378 1200 q 319 1229 343 1229 q 280 1218 296 1229 q 244 1179 264 1207 q 225 1176 236 1168 l 203 1190 q 199 1210 192 1199 q 251 1267 226 1250 q 322 1285 276 1285 q 406 1256 374 1285 q 438 1179 438 1226 q 425 1128 438 1149 q 386 1081 413 1108 q 347 1033 357 1054 q 329 1025 342 1024 l 304 1031 z "},"Ỡ":{"ha":633,"x_min":76,"x_max":557,"o":"m 471 940 q 471 933 467 938 q 535 852 513 901 q 557 740 557 803 l 557 232 q 490 56 557 124 q 315 -11 424 -11 q 142 56 208 -11 q 76 232 76 122 l 76 740 q 142 917 76 850 q 315 983 208 983 q 392 974 347 983 q 397 972 393 972 q 456 1000 432 975 q 483 1069 479 1025 q 497 1083 483 1083 l 529 1083 q 540 1078 536 1083 q 542 1065 543 1074 q 520 990 539 1022 q 471 940 501 958 m 458 744 q 419 855 458 813 q 315 897 379 897 q 214 855 253 897 q 175 744 175 813 l 175 226 q 214 117 175 160 q 315 75 253 75 q 419 117 379 75 q 458 226 458 160 l 458 744 m 403 1113 q 368 1120 383 1113 q 328 1143 353 1128 q 310 1156 322 1147 q 288 1167 297 1164 q 267 1171 278 1171 q 233 1163 247 1171 q 204 1135 218 1156 q 185 1131 196 1122 l 160 1149 q 154 1168 149 1157 q 260 1240 192 1240 q 300 1232 282 1240 q 340 1208 318 1224 q 356 1197 343 1206 q 380 1184 368 1189 q 403 1179 392 1179 q 435 1188 421 1179 q 463 1218 449 1196 q 471 1225 465 1224 q 482 1224 476 1226 l 507 1207 q 513 1196 513 1203 q 507 1179 513 1189 q 458 1128 488 1144 q 403 1113 429 1113 z "},"Ő":{"ha":633,"x_min":76,"x_max":557,"o":"m 315 -11 q 142 56 208 -11 q 76 232 76 122 l 76 740 q 142 917 76 850 q 315 983 208 983 q 490 917 424 983 q 557 740 557 850 l 557 232 q 490 56 557 124 q 315 -11 424 -11 m 315 75 q 419 117 379 75 q 458 226 458 160 l 458 744 q 419 855 458 813 q 315 897 379 897 q 214 855 253 897 q 175 744 175 813 l 175 226 q 214 117 175 160 q 315 75 253 75 m 206 1063 q 196 1067 199 1063 q 196 1079 193 1072 l 275 1231 q 292 1240 279 1240 l 350 1240 q 361 1235 358 1240 q 360 1224 364 1231 l 276 1072 q 260 1063 272 1063 l 206 1063 m 381 1063 q 370 1067 374 1063 q 371 1079 367 1072 l 453 1231 q 469 1240 457 1240 l 524 1240 q 535 1235 532 1240 q 533 1224 538 1231 l 450 1072 q 433 1063 446 1063 l 381 1063 z "},"Ō":{"ha":633,"x_min":76,"x_max":557,"o":"m 315 -11 q 142 56 208 -11 q 76 232 76 122 l 76 740 q 142 917 76 850 q 315 983 208 983 q 490 917 424 983 q 557 740 557 850 l 557 232 q 490 56 557 124 q 315 -11 424 -11 m 315 75 q 419 117 379 75 q 458 226 458 160 l 458 744 q 419 855 458 813 q 315 897 379 897 q 214 855 253 897 q 175 744 175 813 l 175 226 q 214 117 175 160 q 315 75 253 75 m 186 1094 q 172 1108 172 1094 l 172 1153 q 186 1167 172 1167 l 440 1167 q 454 1153 454 1167 l 454 1108 q 440 1094 454 1094 l 186 1094 z "},"Ø":{"ha":728,"x_min":65,"x_max":568,"o":"m 558 993 q 564 974 568 988 l 524 881 q 525 872 521 876 q 558 740 558 818 l 558 232 q 492 56 558 124 q 317 -11 425 -11 q 172 32 232 -11 q 164 31 167 36 l 135 -39 q 117 -46 131 -53 l 76 -25 q 69 -7 65 -18 l 111 92 q 110 100 114 96 q 78 232 78 156 l 78 740 q 144 917 78 850 q 317 983 210 983 q 464 939 404 983 q 472 940 469 935 l 501 1010 q 509 1019 504 1017 q 519 1017 514 1021 l 558 993 m 176 263 q 179 258 176 258 q 183 261 182 258 l 429 839 q 428 846 431 843 q 317 897 385 897 q 215 855 254 897 q 176 744 176 813 l 176 263 m 460 711 q 457 715 460 715 q 453 713 454 715 l 207 133 q 208 125 206 131 q 317 75 247 75 q 420 117 381 75 q 460 226 460 160 l 460 711 z "},"Õ":{"ha":633,"x_min":76,"x_max":557,"o":"m 315 -11 q 142 56 208 -11 q 76 232 76 122 l 76 740 q 142 917 76 850 q 315 983 208 983 q 490 917 424 983 q 557 740 557 850 l 557 232 q 490 56 557 124 q 315 -11 424 -11 m 315 75 q 419 117 379 75 q 458 226 458 160 l 458 744 q 419 855 458 813 q 315 897 379 897 q 214 855 253 897 q 175 744 175 813 l 175 226 q 214 117 175 160 q 315 75 253 75 m 403 1113 q 368 1120 383 1113 q 328 1143 353 1128 q 310 1156 322 1147 q 288 1167 297 1164 q 267 1171 278 1171 q 233 1163 247 1171 q 204 1135 218 1156 q 185 1131 196 1122 l 160 1149 q 154 1168 149 1157 q 260 1240 192 1240 q 300 1232 282 1240 q 340 1208 318 1224 q 356 1197 343 1206 q 380 1184 368 1189 q 403 1179 392 1179 q 435 1188 421 1179 q 463 1218 449 1196 q 471 1225 465 1224 q 482 1224 476 1226 l 507 1207 q 513 1196 513 1203 q 507 1179 513 1189 q 458 1128 488 1144 q 403 1113 429 1113 z "},"Œ":{"ha":954,"x_min":76,"x_max":897,"o":"m 897 900 q 883 886 897 886 l 563 886 q 557 881 557 886 l 557 536 q 563 531 557 531 l 765 531 q 779 517 779 531 l 779 457 q 765 443 779 443 l 563 443 q 557 438 557 443 l 557 92 q 563 86 557 86 l 883 86 q 897 72 897 86 l 897 14 q 883 0 897 0 l 472 0 q 458 14 458 0 l 458 53 q 456 57 458 56 q 451 56 454 58 q 294 -11 392 -11 q 185 19 235 -11 q 106 106 135 50 q 76 232 76 161 l 76 740 q 106 867 76 811 q 185 953 135 922 q 294 983 235 983 q 451 917 392 983 q 456 915 454 914 q 458 919 458 917 l 458 958 q 472 972 458 972 l 883 972 q 897 958 897 972 l 897 900 m 315 75 q 419 117 379 75 q 458 226 458 160 l 458 744 q 419 855 458 813 q 315 897 379 897 q 214 855 253 897 q 175 744 175 813 l 175 226 q 214 117 175 160 q 315 75 253 75 z "},"P":{"ha":614,"x_min":99,"x_max":568,"o":"m 342 974 q 506 899 443 974 q 568 704 568 825 q 507 512 568 585 q 346 439 446 439 l 203 439 q 197 433 197 439 l 197 14 q 183 0 197 0 l 113 0 q 99 14 99 0 l 99 960 q 113 974 99 974 l 342 974 m 329 519 q 431 569 392 519 q 469 703 469 619 q 431 837 469 786 q 329 888 392 888 l 203 888 q 197 882 197 888 l 197 525 q 203 519 197 519 l 329 519 z "},"Þ":{"ha":614,"x_min":99,"x_max":568,"o":"m 342 756 q 506 681 443 756 q 568 486 568 607 q 507 294 568 367 q 346 221 446 221 l 203 221 q 197 215 197 221 l 197 14 q 183 0 197 0 l 113 0 q 99 14 99 0 l 99 958 q 113 972 99 972 l 183 972 q 197 958 197 972 l 197 761 q 203 756 197 756 l 342 756 m 328 301 q 431 351 392 301 q 469 483 469 400 q 431 619 469 568 q 328 669 392 669 l 203 669 q 197 664 197 669 l 197 307 q 203 301 197 301 l 328 301 z "},"Q":{"ha":615,"x_min":76,"x_max":539,"o":"m 308 983 q 475 915 411 983 q 539 736 539 847 l 539 236 q 491 76 539 140 q 363 -6 443 11 q 357 -12 357 -7 l 357 -146 q 343 -160 357 -160 l 272 -160 q 258 -146 258 -160 l 258 -12 q 253 -6 258 -7 q 124 77 172 13 q 76 236 76 142 l 76 736 q 141 915 76 846 q 308 983 206 983 m 440 746 q 404 855 440 813 q 308 897 368 897 q 212 855 249 897 q 175 746 175 813 l 175 226 q 212 117 175 160 q 308 75 249 75 q 404 117 368 75 q 440 226 440 160 l 440 746 z "},"R":{"ha":615,"x_min":100,"x_max":574,"o":"m 489 0 q 472 11 476 0 l 331 440 q 325 444 329 444 l 204 444 q 199 439 199 444 l 199 14 q 185 0 199 0 l 114 0 q 100 14 100 0 l 100 958 q 114 972 100 972 l 343 972 q 507 898 444 972 q 569 704 569 824 q 531 549 569 614 q 425 457 492 483 q 421 450 419 456 l 572 15 l 574 10 q 561 0 574 0 l 489 0 m 204 886 q 199 881 199 886 l 199 529 q 204 524 199 524 l 329 524 q 432 573 393 524 q 471 704 471 622 q 432 836 471 786 q 329 886 393 886 l 204 886 z "},"Ŕ":{"ha":615,"x_min":100,"x_max":574,"o":"m 489 0 q 472 11 476 0 l 331 440 q 325 444 329 444 l 204 444 q 199 439 199 444 l 199 14 q 185 0 199 0 l 114 0 q 100 14 100 0 l 100 958 q 114 972 100 972 l 343 972 q 507 898 444 972 q 569 704 569 824 q 531 549 569 614 q 425 457 492 483 q 421 450 419 456 l 572 15 l 574 10 q 561 0 574 0 l 489 0 m 204 886 q 199 881 199 886 l 199 529 q 204 524 199 524 l 329 524 q 432 573 393 524 q 471 704 471 622 q 432 836 471 786 q 329 886 393 886 l 204 886 m 263 1064 q 251 1069 254 1064 q 253 1081 249 1074 l 339 1232 q 356 1242 346 1242 l 413 1242 q 423 1237 421 1242 q 421 1225 425 1232 l 324 1074 q 307 1064 317 1064 l 263 1064 z "},"Ř":{"ha":615,"x_min":100,"x_max":574,"o":"m 489 0 q 472 11 476 0 l 331 440 q 325 444 329 444 l 204 444 q 199 439 199 444 l 199 14 q 185 0 199 0 l 114 0 q 100 14 100 0 l 100 958 q 114 972 100 972 l 343 972 q 507 898 444 972 q 569 704 569 824 q 531 549 569 614 q 425 457 492 483 q 421 450 419 456 l 572 15 l 574 10 q 561 0 574 0 l 489 0 m 204 886 q 199 881 199 886 l 199 529 q 204 524 199 524 l 329 524 q 432 573 393 524 q 471 704 471 622 q 432 836 471 786 q 329 886 393 886 l 204 886 m 164 1225 q 161 1233 161 1231 q 172 1242 161 1242 l 232 1242 q 249 1232 242 1242 l 310 1131 q 314 1129 311 1129 q 318 1131 317 1129 l 378 1232 q 394 1242 385 1242 l 456 1242 q 466 1237 464 1242 q 464 1225 468 1232 l 371 1082 q 354 1072 364 1072 l 271 1072 q 254 1082 261 1072 l 164 1225 z "},"S":{"ha":578,"x_min":57,"x_max":522,"o":"m 289 -11 q 122 57 186 -11 q 58 235 58 125 l 58 267 q 72 281 58 281 l 140 281 q 154 267 154 281 l 154 239 q 192 120 154 165 q 289 75 229 75 q 386 118 347 75 q 425 232 425 161 q 406 313 425 279 q 358 373 388 347 q 258 451 328 399 q 149 540 189 503 q 83 628 108 576 q 57 749 57 679 q 119 920 57 857 q 282 983 182 983 q 451 915 388 983 q 514 732 514 846 l 514 697 q 500 683 514 683 l 431 683 q 417 697 417 683 l 417 733 q 380 852 417 807 q 282 897 343 897 q 190 858 226 897 q 154 746 154 818 q 170 670 154 703 q 218 608 186 638 q 313 532 250 579 q 437 433 396 471 q 500 349 478 394 q 522 240 522 304 q 457 58 522 126 q 289 -11 392 -11 z "},"Ś":{"ha":578,"x_min":57,"x_max":522,"o":"m 289 -11 q 122 57 186 -11 q 58 235 58 125 l 58 267 q 72 281 58 281 l 140 281 q 154 267 154 281 l 154 239 q 192 120 154 165 q 289 75 229 75 q 386 118 347 75 q 425 232 425 161 q 406 313 425 279 q 358 373 388 347 q 258 451 328 399 q 149 540 189 503 q 83 628 108 576 q 57 749 57 679 q 119 920 57 857 q 282 983 182 983 q 451 915 388 983 q 514 732 514 846 l 514 697 q 500 683 514 683 l 431 683 q 417 697 417 683 l 417 733 q 380 852 417 807 q 282 897 343 897 q 190 858 226 897 q 154 746 154 818 q 170 670 154 703 q 218 608 186 638 q 313 532 250 579 q 437 433 396 471 q 500 349 478 394 q 522 240 522 304 q 457 58 522 126 q 289 -11 392 -11 m 233 1064 q 222 1069 225 1064 q 224 1081 219 1074 l 310 1232 q 326 1242 317 1242 l 383 1242 q 394 1237 392 1242 q 392 1225 396 1232 l 294 1074 q 278 1064 288 1064 l 233 1064 z "},"Š":{"ha":578,"x_min":57,"x_max":522,"o":"m 289 -11 q 122 57 186 -11 q 58 235 58 125 l 58 267 q 72 281 58 281 l 140 281 q 154 267 154 281 l 154 239 q 192 120 154 165 q 289 75 229 75 q 386 118 347 75 q 425 232 425 161 q 406 313 425 279 q 358 373 388 347 q 258 451 328 399 q 149 540 189 503 q 83 628 108 576 q 57 749 57 679 q 119 920 57 857 q 282 983 182 983 q 451 915 388 983 q 514 732 514 846 l 514 697 q 500 683 514 683 l 431 683 q 417 697 417 683 l 417 733 q 380 852 417 807 q 282 897 343 897 q 190 858 226 897 q 154 746 154 818 q 170 670 154 703 q 218 608 186 638 q 313 532 250 579 q 437 433 396 471 q 500 349 478 394 q 522 240 522 304 q 457 58 522 126 q 289 -11 392 -11 m 135 1225 q 132 1233 132 1231 q 143 1242 132 1242 l 203 1242 q 219 1232 213 1242 l 281 1131 q 285 1129 282 1129 q 289 1131 288 1129 l 349 1232 q 365 1242 356 1242 l 426 1242 q 437 1237 435 1242 q 435 1225 439 1232 l 342 1082 q 325 1072 335 1072 l 242 1072 q 225 1082 232 1072 l 135 1225 z "},"Ş":{"ha":578,"x_min":57,"x_max":522,"o":"m 522 240 q 471 73 522 139 q 333 -7 419 7 q 331 -14 326 -10 q 388 -143 388 -72 q 356 -230 388 -204 q 276 -256 324 -256 q 235 -251 253 -256 q 225 -236 224 -250 l 229 -206 q 235 -197 231 -199 q 246 -196 240 -194 q 261 -197 251 -197 q 302 -181 286 -197 q 318 -131 318 -165 q 257 -11 318 -78 q 250 -8 254 -8 q 110 69 163 4 q 58 235 58 135 l 58 267 q 72 281 58 281 l 140 281 q 154 267 154 281 l 154 239 q 192 120 154 165 q 289 75 229 75 q 386 118 347 75 q 425 232 425 161 q 406 313 425 279 q 358 373 388 347 q 258 451 328 399 q 149 540 189 503 q 83 628 108 576 q 57 749 57 679 q 119 920 57 857 q 282 983 182 983 q 451 915 388 983 q 514 732 514 846 l 514 697 q 500 683 514 683 l 431 683 q 417 697 417 683 l 417 733 q 380 852 417 807 q 282 897 343 897 q 190 858 226 897 q 154 746 154 818 q 170 670 154 703 q 218 608 186 638 q 313 532 250 579 q 437 433 396 471 q 500 349 478 394 q 522 240 522 304 z "},"Ŝ":{"ha":578,"x_min":57,"x_max":522,"o":"m 289 -11 q 122 57 186 -11 q 58 235 58 125 l 58 267 q 72 281 58 281 l 140 281 q 154 267 154 281 l 154 239 q 192 120 154 165 q 289 75 229 75 q 386 118 347 75 q 425 232 425 161 q 406 313 425 279 q 358 373 388 347 q 258 451 328 399 q 149 540 189 503 q 83 628 108 576 q 57 749 57 679 q 119 920 57 857 q 282 983 182 983 q 451 915 388 983 q 514 732 514 846 l 514 697 q 500 683 514 683 l 431 683 q 417 697 417 683 l 417 733 q 380 852 417 807 q 282 897 343 897 q 190 858 226 897 q 154 746 154 818 q 170 670 154 703 q 218 608 186 638 q 313 532 250 579 q 437 433 396 471 q 500 349 478 394 q 522 240 522 304 q 457 58 522 126 q 289 -11 392 -11 m 139 1072 q 128 1077 131 1072 q 131 1089 126 1082 l 221 1232 q 238 1242 228 1242 l 321 1242 q 338 1232 331 1242 l 431 1089 q 433 1081 433 1083 q 422 1072 433 1072 l 361 1072 q 344 1082 351 1072 l 285 1183 q 281 1186 283 1186 q 276 1183 278 1186 l 215 1082 q 199 1072 208 1072 l 139 1072 z "},"Ə":{"ha":721,"x_min":69,"x_max":643,"o":"m 357 983 q 507 947 442 983 q 608 844 572 910 q 643 694 643 779 l 643 274 q 607 124 643 190 q 506 22 571 58 q 357 -15 442 -15 q 206 22 271 -15 q 105 124 140 58 q 69 274 69 190 l 69 501 q 83 515 69 515 l 539 515 q 544 521 544 515 l 544 690 q 492 839 544 781 q 357 897 439 897 q 240 855 288 897 q 179 742 193 813 q 164 729 175 729 l 88 732 q 77 736 81 732 q 75 746 74 740 q 166 919 90 856 q 357 983 242 983 m 357 71 q 492 130 439 71 q 544 279 544 189 l 544 418 q 539 424 544 424 l 172 424 q 167 418 167 424 l 167 279 q 220 130 167 189 q 357 71 274 71 z "},"T":{"ha":588,"x_min":47,"x_max":540,"o":"m 526 972 q 540 958 540 972 l 540 900 q 526 886 540 886 l 343 886 q 338 881 338 886 l 338 14 q 324 0 338 0 l 253 0 q 239 14 239 0 l 239 881 q 233 886 239 886 l 61 886 q 47 900 47 886 l 47 958 q 61 972 47 972 l 526 972 z "},"Ŧ":{"ha":588,"x_min":47,"x_max":540,"o":"m 540 900 q 526 886 540 886 l 343 886 q 338 881 338 886 l 338 586 q 343 581 338 581 l 451 581 q 465 567 465 581 l 465 529 q 451 515 465 515 l 343 515 q 338 510 338 515 l 338 14 q 324 0 338 0 l 253 0 q 239 14 239 0 l 239 510 q 233 515 239 515 l 110 515 q 96 529 96 515 l 96 567 q 110 581 96 581 l 233 581 q 239 586 239 581 l 239 881 q 233 886 239 886 l 61 886 q 47 900 47 886 l 47 958 q 61 972 47 972 l 526 972 q 540 958 540 972 l 540 900 z "},"Ť":{"ha":588,"x_min":47,"x_max":540,"o":"m 526 972 q 540 958 540 972 l 540 900 q 526 886 540 886 l 343 886 q 338 881 338 886 l 338 14 q 324 0 338 0 l 253 0 q 239 14 239 0 l 239 881 q 233 886 239 886 l 61 886 q 47 900 47 886 l 47 958 q 61 972 47 972 l 526 972 z "},"U":{"ha":661,"x_min":92,"x_max":569,"o":"m 329 -11 q 157 63 222 -11 q 92 257 92 136 l 92 958 q 106 972 92 972 l 176 972 q 190 958 190 972 l 190 246 q 228 122 190 169 q 329 75 267 75 q 432 122 393 75 q 471 246 471 169 l 471 958 q 485 972 471 972 l 556 972 q 569 958 569 972 l 569 257 q 503 63 569 136 q 329 -11 438 -11 z "},"Ú":{"ha":661,"x_min":92,"x_max":569,"o":"m 329 -11 q 157 63 222 -11 q 92 257 92 136 l 92 958 q 106 972 92 972 l 176 972 q 190 958 190 972 l 190 246 q 228 122 190 169 q 329 75 267 75 q 432 122 393 75 q 471 246 471 169 l 471 958 q 485 972 471 972 l 556 972 q 569 958 569 972 l 569 257 q 503 63 569 136 q 329 -11 438 -11 m 282 1064 q 271 1069 274 1064 q 272 1081 268 1074 l 358 1232 q 375 1242 365 1242 l 432 1242 q 442 1237 440 1242 q 440 1225 444 1232 l 343 1074 q 326 1064 336 1064 l 282 1064 z "},"Ŭ":{"ha":661,"x_min":92,"x_max":569,"o":"m 329 -11 q 157 63 222 -11 q 92 257 92 136 l 92 958 q 106 972 92 972 l 176 972 q 190 958 190 972 l 190 246 q 228 122 190 169 q 329 75 267 75 q 432 122 393 75 q 471 246 471 169 l 471 958 q 485 972 471 972 l 556 972 q 569 958 569 972 l 569 257 q 503 63 569 136 q 329 -11 438 -11 m 329 1075 q 229 1113 269 1075 q 183 1207 189 1150 q 197 1221 183 1221 l 229 1221 q 244 1207 243 1221 q 272 1149 249 1171 q 329 1126 296 1126 q 386 1149 363 1126 q 414 1207 410 1171 q 429 1221 415 1221 l 461 1221 q 475 1207 475 1221 q 429 1113 469 1150 q 329 1075 389 1075 z "},"Û":{"ha":661,"x_min":92,"x_max":569,"o":"m 329 -11 q 157 63 222 -11 q 92 257 92 136 l 92 958 q 106 972 92 972 l 176 972 q 190 958 190 972 l 190 246 q 228 122 190 169 q 329 75 267 75 q 432 122 393 75 q 471 246 471 169 l 471 958 q 485 972 471 972 l 556 972 q 569 958 569 972 l 569 257 q 503 63 569 136 q 329 -11 438 -11 m 188 1072 q 177 1077 179 1072 q 179 1089 175 1082 l 269 1232 q 286 1242 276 1242 l 369 1242 q 386 1232 379 1242 l 479 1089 q 482 1081 482 1083 q 471 1072 482 1072 l 410 1072 q 393 1082 400 1072 l 333 1183 q 329 1186 332 1186 q 325 1183 326 1186 l 264 1082 q 247 1072 257 1072 l 188 1072 z "},"Ü":{"ha":661,"x_min":92,"x_max":569,"o":"m 329 -11 q 157 63 222 -11 q 92 257 92 136 l 92 958 q 106 972 92 972 l 176 972 q 190 958 190 972 l 190 246 q 228 122 190 169 q 329 75 267 75 q 432 122 393 75 q 471 246 471 169 l 471 958 q 485 972 471 972 l 556 972 q 569 958 569 972 l 569 257 q 503 63 569 136 q 329 -11 438 -11 z "},"Ụ":{"ha":661,"x_min":92,"x_max":569,"o":"m 329 -11 q 157 63 222 -11 q 92 257 92 136 l 92 958 q 106 972 92 972 l 176 972 q 190 958 190 972 l 190 246 q 228 122 190 169 q 329 75 267 75 q 432 122 393 75 q 471 246 471 169 l 471 958 q 485 972 471 972 l 556 972 q 569 958 569 972 l 569 257 q 503 63 569 136 q 329 -11 438 -11 m 332 -265 q 279 -244 300 -265 q 258 -192 258 -224 q 279 -139 258 -160 q 332 -118 300 -118 q 385 -139 364 -118 q 406 -192 406 -160 q 385 -244 406 -224 q 332 -265 364 -265 z "},"Ù":{"ha":661,"x_min":92,"x_max":569,"o":"m 329 -11 q 157 63 222 -11 q 92 257 92 136 l 92 958 q 106 972 92 972 l 176 972 q 190 958 190 972 l 190 246 q 228 122 190 169 q 329 75 267 75 q 432 122 393 75 q 471 246 471 169 l 471 958 q 485 972 471 972 l 556 972 q 569 958 569 972 l 569 257 q 503 63 569 136 q 329 -11 438 -11 m 360 1081 q 363 1072 363 1075 q 350 1064 363 1064 l 306 1064 q 289 1074 296 1064 l 192 1225 q 189 1233 189 1231 q 200 1242 189 1242 l 258 1242 q 275 1232 268 1242 l 360 1081 z "},"Ủ":{"ha":661,"x_min":92,"x_max":569,"o":"m 329 -11 q 157 63 222 -11 q 92 257 92 136 l 92 958 q 106 972 92 972 l 176 972 q 190 958 190 972 l 190 246 q 228 122 190 169 q 329 75 267 75 q 432 122 393 75 q 471 246 471 169 l 471 958 q 485 972 471 972 l 556 972 q 569 958 569 972 l 569 257 q 503 63 569 136 q 329 -11 438 -11 m 318 1032 q 309 1040 311 1035 q 310 1050 307 1044 q 357 1115 324 1082 q 383 1147 375 1133 q 392 1181 392 1160 q 374 1216 392 1201 q 333 1231 357 1231 q 294 1219 310 1231 q 258 1181 278 1208 q 239 1178 250 1169 l 217 1192 q 213 1211 206 1200 q 265 1269 240 1251 q 336 1286 290 1286 q 419 1257 388 1286 q 451 1181 451 1228 q 439 1130 451 1150 q 400 1082 426 1110 q 361 1035 371 1056 q 343 1026 356 1025 l 318 1032 z "},"Ư":{"ha":661,"x_min":92,"x_max":678,"o":"m 664 1083 q 678 1069 678 1083 q 646 977 674 1014 q 574 926 618 940 q 569 921 569 925 l 569 257 q 503 63 569 136 q 329 -11 438 -11 q 157 63 222 -11 q 92 257 92 136 l 92 958 q 106 972 92 972 l 176 972 q 190 958 190 972 l 190 246 q 228 122 190 169 q 329 75 267 75 q 432 122 393 75 q 471 246 471 169 l 471 958 q 485 972 471 972 l 524 972 q 587 997 560 972 q 618 1069 614 1022 q 632 1083 618 1083 l 664 1083 z "},"Ứ":{"ha":661,"x_min":92,"x_max":678,"o":"m 664 1083 q 678 1069 678 1083 q 646 977 674 1014 q 574 926 618 940 q 569 921 569 925 l 569 257 q 503 63 569 136 q 329 -11 438 -11 q 157 63 222 -11 q 92 257 92 136 l 92 958 q 106 972 92 972 l 176 972 q 190 958 190 972 l 190 246 q 228 122 190 169 q 329 75 267 75 q 432 122 393 75 q 471 246 471 169 l 471 958 q 485 972 471 972 l 524 972 q 587 997 560 972 q 618 1069 614 1022 q 632 1083 618 1083 l 664 1083 m 282 1064 q 271 1069 274 1064 q 272 1081 268 1074 l 358 1232 q 375 1242 365 1242 l 432 1242 q 442 1237 440 1242 q 440 1225 444 1232 l 343 1074 q 326 1064 336 1064 l 282 1064 z "},"Ự":{"ha":661,"x_min":92,"x_max":678,"o":"m 664 1083 q 678 1069 678 1083 q 646 977 674 1014 q 574 926 618 940 q 569 921 569 925 l 569 257 q 503 63 569 136 q 329 -11 438 -11 q 157 63 222 -11 q 92 257 92 136 l 92 958 q 106 972 92 972 l 176 972 q 190 958 190 972 l 190 246 q 228 122 190 169 q 329 75 267 75 q 432 122 393 75 q 471 246 471 169 l 471 958 q 485 972 471 972 l 524 972 q 587 997 560 972 q 618 1069 614 1022 q 632 1083 618 1083 l 664 1083 m 332 -265 q 279 -244 300 -265 q 258 -192 258 -224 q 279 -139 258 -160 q 332 -118 300 -118 q 385 -139 364 -118 q 406 -192 406 -160 q 385 -244 406 -224 q 332 -265 364 -265 z "},"Ừ":{"ha":661,"x_min":92,"x_max":678,"o":"m 664 1083 q 678 1069 678 1083 q 646 977 674 1014 q 574 926 618 940 q 569 921 569 925 l 569 257 q 503 63 569 136 q 329 -11 438 -11 q 157 63 222 -11 q 92 257 92 136 l 92 958 q 106 972 92 972 l 176 972 q 190 958 190 972 l 190 246 q 228 122 190 169 q 329 75 267 75 q 432 122 393 75 q 471 246 471 169 l 471 958 q 485 972 471 972 l 524 972 q 587 997 560 972 q 618 1069 614 1022 q 632 1083 618 1083 l 664 1083 m 360 1081 q 363 1072 363 1075 q 350 1064 363 1064 l 306 1064 q 289 1074 296 1064 l 192 1225 q 189 1233 189 1231 q 200 1242 189 1242 l 258 1242 q 275 1232 268 1242 l 360 1081 z "},"Ử":{"ha":661,"x_min":92,"x_max":678,"o":"m 664 1083 q 678 1069 678 1083 q 646 977 674 1014 q 574 926 618 940 q 569 921 569 925 l 569 257 q 503 63 569 136 q 329 -11 438 -11 q 157 63 222 -11 q 92 257 92 136 l 92 958 q 106 972 92 972 l 176 972 q 190 958 190 972 l 190 246 q 228 122 190 169 q 329 75 267 75 q 432 122 393 75 q 471 246 471 169 l 471 958 q 485 972 471 972 l 524 972 q 587 997 560 972 q 618 1069 614 1022 q 632 1083 618 1083 l 664 1083 m 318 1032 q 309 1040 311 1035 q 310 1050 307 1044 q 357 1115 324 1082 q 383 1147 375 1133 q 392 1181 392 1160 q 374 1216 392 1201 q 333 1231 357 1231 q 294 1219 310 1231 q 258 1181 278 1208 q 239 1178 250 1169 l 217 1192 q 213 1211 206 1200 q 265 1269 240 1251 q 336 1286 290 1286 q 419 1257 388 1286 q 451 1181 451 1228 q 439 1130 451 1150 q 400 1082 426 1110 q 361 1035 371 1056 q 343 1026 356 1025 l 318 1032 z "},"Ữ":{"ha":661,"x_min":92,"x_max":678,"o":"m 664 1083 q 678 1069 678 1083 q 646 977 674 1014 q 574 926 618 940 q 569 921 569 925 l 569 257 q 503 63 569 136 q 329 -11 438 -11 q 157 63 222 -11 q 92 257 92 136 l 92 958 q 106 972 92 972 l 176 972 q 190 958 190 972 l 190 246 q 228 122 190 169 q 329 75 267 75 q 432 122 393 75 q 471 246 471 169 l 471 958 q 485 972 471 972 l 524 972 q 587 997 560 972 q 618 1069 614 1022 q 632 1083 618 1083 l 664 1083 m 417 1114 q 382 1122 397 1114 q 342 1144 367 1129 q 324 1157 336 1149 q 301 1169 311 1165 q 281 1172 292 1172 q 247 1165 261 1172 q 218 1136 232 1157 q 199 1132 210 1124 l 174 1150 q 168 1169 163 1158 q 274 1242 206 1242 q 314 1233 296 1242 q 354 1210 332 1225 q 369 1199 357 1207 q 394 1185 382 1190 q 417 1181 406 1181 q 449 1189 435 1181 q 476 1219 463 1197 q 485 1226 479 1225 q 496 1225 490 1228 l 521 1208 q 526 1197 526 1204 q 521 1181 526 1190 q 472 1130 501 1146 q 417 1114 443 1114 z "},"Ű":{"ha":661,"x_min":92,"x_max":569,"o":"m 329 -11 q 157 63 222 -11 q 92 257 92 136 l 92 958 q 106 972 92 972 l 176 972 q 190 958 190 972 l 190 246 q 228 122 190 169 q 329 75 267 75 q 432 122 393 75 q 471 246 471 169 l 471 958 q 485 972 471 972 l 556 972 q 569 958 569 972 l 569 257 q 503 63 569 136 q 329 -11 438 -11 m 219 1064 q 210 1069 213 1064 q 210 1081 207 1074 l 289 1232 q 306 1242 293 1242 l 364 1242 q 375 1237 372 1242 q 374 1225 378 1232 l 290 1074 q 274 1064 286 1064 l 219 1064 m 394 1064 q 384 1069 388 1064 q 385 1081 381 1074 l 467 1232 q 483 1242 471 1242 l 538 1242 q 549 1237 546 1242 q 547 1225 551 1232 l 464 1074 q 447 1064 460 1064 l 394 1064 z "},"Ū":{"ha":661,"x_min":92,"x_max":569,"o":"m 329 -11 q 157 63 222 -11 q 92 257 92 136 l 92 958 q 106 972 92 972 l 176 972 q 190 958 190 972 l 190 246 q 228 122 190 169 q 329 75 267 75 q 432 122 393 75 q 471 246 471 169 l 471 958 q 485 972 471 972 l 556 972 q 569 958 569 972 l 569 257 q 503 63 569 136 q 329 -11 438 -11 m 201 1096 q 188 1110 188 1096 l 188 1154 q 201 1168 188 1168 l 456 1168 q 469 1154 469 1168 l 469 1110 q 456 1096 469 1096 l 201 1096 z "},"Ų":{"ha":661,"x_min":92,"x_max":569,"o":"m 471 958 q 485 972 471 972 l 556 972 q 569 958 569 972 l 569 257 q 513 74 569 146 q 363 -10 457 3 q 356 -12 358 -10 q 303 -124 303 -69 q 358 -189 303 -189 q 372 -187 368 -189 q 378 -186 376 -187 q 392 -197 389 -186 l 396 -228 l 396 -232 q 386 -243 396 -242 q 344 -247 368 -247 q 265 -222 297 -247 q 233 -135 233 -196 q 283 -14 233 -68 q 281 -7 289 -8 q 143 81 194 10 q 92 257 92 151 l 92 958 q 106 972 92 972 l 176 972 q 190 958 190 972 l 190 246 q 228 122 190 169 q 329 75 267 75 q 432 122 393 75 q 471 246 471 169 l 471 958 z "},"Ů":{"ha":661,"x_min":92,"x_max":569,"o":"m 329 -11 q 157 63 222 -11 q 92 257 92 136 l 92 958 q 106 972 92 972 l 176 972 q 190 958 190 972 l 190 246 q 228 122 190 169 q 329 75 267 75 q 432 122 393 75 q 471 246 471 169 l 471 958 q 485 972 471 972 l 556 972 q 569 958 569 972 l 569 257 q 503 63 569 136 q 329 -11 438 -11 m 329 1074 q 225 1117 268 1074 q 182 1224 182 1160 q 225 1330 182 1286 q 329 1374 268 1374 q 434 1330 392 1374 q 476 1224 476 1286 q 434 1117 476 1160 q 329 1074 392 1074 m 329 1133 q 391 1159 365 1133 q 417 1224 417 1185 q 391 1289 417 1263 q 329 1315 365 1315 q 267 1289 293 1315 q 242 1224 242 1263 q 267 1159 242 1185 q 329 1133 293 1133 z "},"Ũ":{"ha":661,"x_min":92,"x_max":569,"o":"m 329 -11 q 157 63 222 -11 q 92 257 92 136 l 92 958 q 106 972 92 972 l 176 972 q 190 958 190 972 l 190 246 q 228 122 190 169 q 329 75 267 75 q 432 122 393 75 q 471 246 471 169 l 471 958 q 485 972 471 972 l 556 972 q 569 958 569 972 l 569 257 q 503 63 569 136 q 329 -11 438 -11 m 417 1114 q 382 1122 397 1114 q 342 1144 367 1129 q 324 1157 336 1149 q 301 1169 311 1165 q 281 1172 292 1172 q 247 1165 261 1172 q 218 1136 232 1157 q 199 1132 210 1124 l 174 1150 q 168 1169 163 1158 q 274 1242 206 1242 q 314 1233 296 1242 q 354 1210 332 1225 q 369 1199 357 1207 q 394 1185 382 1190 q 417 1181 406 1181 q 449 1189 435 1181 q 476 1219 463 1197 q 485 1226 479 1225 q 496 1225 490 1228 l 521 1208 q 526 1197 526 1204 q 521 1181 526 1190 q 472 1130 501 1146 q 417 1114 443 1114 z "},"V":{"ha":610,"x_min":49,"x_max":564,"o":"m 265 0 q 250 13 253 0 l 49 957 l 49 960 q 61 972 49 972 l 139 972 q 154 960 153 972 l 304 183 q 307 181 306 181 q 310 183 308 181 l 458 960 q 474 972 461 972 l 549 972 q 561 957 564 972 l 360 13 q 344 0 358 0 l 265 0 z "},"W":{"ha":865,"x_min":40,"x_max":826,"o":"m 239 0 q 224 13 226 0 l 40 957 l 40 960 q 53 972 40 972 l 126 972 q 142 960 140 972 l 272 229 q 275 226 274 226 q 278 229 276 226 l 390 960 q 404 972 393 972 l 468 972 q 482 960 481 972 l 600 229 q 603 226 601 226 q 606 229 604 226 l 725 960 q 739 972 728 972 l 813 972 q 823 968 819 972 q 825 957 826 964 l 653 13 q 638 0 651 0 l 569 0 q 556 13 558 0 l 439 746 q 435 749 438 749 q 433 746 433 749 l 319 13 q 306 0 318 0 l 239 0 z "},"Ẃ":{"ha":860,"x_min":40,"x_max":826,"o":"m 239 0 q 224 13 226 0 l 40 957 l 40 960 q 53 972 40 972 l 126 972 q 142 960 140 972 l 272 229 q 275 226 274 226 q 278 229 276 226 l 390 960 q 404 972 393 972 l 468 972 q 482 960 481 972 l 600 229 q 603 226 601 226 q 606 229 604 226 l 725 960 q 739 972 728 972 l 813 972 q 823 968 819 972 q 825 957 826 964 l 653 13 q 638 0 651 0 l 569 0 q 556 13 558 0 l 439 746 q 435 749 438 749 q 433 746 433 749 l 319 13 q 306 0 318 0 l 239 0 m 383 1064 q 372 1069 375 1064 q 374 1081 369 1074 l 460 1232 q 476 1242 467 1242 l 533 1242 q 544 1237 542 1242 q 542 1225 546 1232 l 444 1074 q 428 1064 438 1064 l 383 1064 z "},"Ŵ":{"ha":860,"x_min":40,"x_max":826,"o":"m 239 0 q 224 13 226 0 l 40 957 l 40 960 q 53 972 40 972 l 126 972 q 142 960 140 972 l 272 229 q 275 226 274 226 q 278 229 276 226 l 390 960 q 404 972 393 972 l 468 972 q 482 960 481 972 l 600 229 q 603 226 601 226 q 606 229 604 226 l 725 960 q 739 972 728 972 l 813 972 q 823 968 819 972 q 825 957 826 964 l 653 13 q 638 0 651 0 l 569 0 q 556 13 558 0 l 439 746 q 435 749 438 749 q 433 746 433 749 l 319 13 q 306 0 318 0 l 239 0 m 289 1072 q 278 1077 281 1072 q 281 1089 276 1082 l 371 1232 q 388 1242 378 1242 l 471 1242 q 488 1232 481 1242 l 581 1089 q 583 1081 583 1083 q 572 1072 583 1072 l 511 1072 q 494 1082 501 1072 l 435 1183 q 431 1186 433 1186 q 426 1183 428 1186 l 365 1082 q 349 1072 358 1072 l 289 1072 z "},"Ẅ":{"ha":860,"x_min":40,"x_max":826,"o":"m 239 0 q 224 13 226 0 l 40 957 l 40 960 q 53 972 40 972 l 126 972 q 142 960 140 972 l 272 229 q 275 226 274 226 q 278 229 276 226 l 390 960 q 404 972 393 972 l 468 972 q 482 960 481 972 l 600 229 q 603 226 601 226 q 606 229 604 226 l 725 960 q 739 972 728 972 l 813 972 q 823 968 819 972 q 825 957 826 964 l 653 13 q 638 0 651 0 l 569 0 q 556 13 558 0 l 439 746 q 435 749 438 749 q 433 746 433 749 l 319 13 q 306 0 318 0 l 239 0 z "},"Ẁ":{"ha":860,"x_min":40,"x_max":826,"o":"m 239 0 q 224 13 226 0 l 40 957 l 40 960 q 53 972 40 972 l 126 972 q 142 960 140 972 l 272 229 q 275 226 274 226 q 278 229 276 226 l 390 960 q 404 972 393 972 l 468 972 q 482 960 481 972 l 600 229 q 603 226 601 226 q 606 229 604 226 l 725 960 q 739 972 728 972 l 813 972 q 823 968 819 972 q 825 957 826 964 l 653 13 q 638 0 651 0 l 569 0 q 556 13 558 0 l 439 746 q 435 749 438 749 q 433 746 433 749 l 319 13 q 306 0 318 0 l 239 0 m 461 1081 q 464 1072 464 1075 q 451 1064 464 1064 l 407 1064 q 390 1074 397 1064 l 293 1225 q 290 1233 290 1231 q 301 1242 290 1242 l 360 1242 q 376 1232 369 1242 l 461 1081 z "},"X":{"ha":603,"x_min":50,"x_max":553,"o":"m 64 0 q 53 5 57 0 q 53 17 50 10 l 247 482 q 247 490 250 486 l 53 956 l 51 961 q 64 972 51 972 l 138 972 q 153 961 149 972 l 297 592 q 301 588 299 588 q 306 592 304 588 l 450 961 q 465 972 454 972 l 539 972 q 549 967 546 972 q 550 956 553 963 l 354 489 q 354 481 353 485 l 550 17 l 551 11 q 539 0 551 0 l 465 0 q 450 11 454 0 l 306 379 q 301 383 304 383 q 297 379 299 383 l 153 11 q 138 0 149 0 l 64 0 z "},"Y":{"ha":589,"x_min":50,"x_max":540,"o":"m 260 1 q 246 15 246 1 l 246 431 q 244 438 246 436 l 51 956 l 50 961 q 63 972 50 972 l 138 972 q 154 961 150 972 l 290 554 q 294 551 292 551 q 299 554 297 551 l 435 961 q 451 972 439 972 l 526 972 q 537 967 533 972 q 538 956 540 963 l 346 438 q 344 431 344 436 l 344 15 q 331 1 344 1 l 260 1 z "},"Ý":{"ha":589,"x_min":50,"x_max":540,"o":"m 260 1 q 246 15 246 1 l 246 431 q 244 438 246 436 l 51 956 l 50 961 q 63 972 50 972 l 138 972 q 154 961 150 972 l 290 554 q 294 551 292 551 q 299 554 297 551 l 435 961 q 451 972 439 972 l 526 972 q 537 967 533 972 q 538 956 540 963 l 346 438 q 344 431 344 436 l 344 15 q 331 1 344 1 l 260 1 m 247 1064 q 236 1069 239 1064 q 238 1081 233 1074 l 324 1232 q 340 1242 331 1242 l 397 1242 q 408 1237 406 1242 q 406 1225 410 1232 l 308 1074 q 292 1064 301 1064 l 247 1064 z "},"Ŷ":{"ha":589,"x_min":50,"x_max":540,"o":"m 260 1 q 246 15 246 1 l 246 431 q 244 438 246 436 l 51 956 l 50 961 q 63 972 50 972 l 138 972 q 154 961 150 972 l 290 554 q 294 551 292 551 q 299 554 297 551 l 435 961 q 451 972 439 972 l 526 972 q 537 967 533 972 q 538 956 540 963 l 346 438 q 344 431 344 436 l 344 15 q 331 1 344 1 l 260 1 m 153 1072 q 142 1077 144 1072 q 144 1089 140 1082 l 235 1232 q 251 1242 242 1242 l 335 1242 q 351 1232 344 1242 l 444 1089 q 447 1081 447 1083 q 436 1072 447 1072 l 375 1072 q 358 1082 365 1072 l 299 1183 q 294 1186 297 1186 q 290 1183 292 1186 l 229 1082 q 213 1072 222 1072 l 153 1072 z "},"Ÿ":{"ha":589,"x_min":50,"x_max":540,"o":"m 260 1 q 246 15 246 1 l 246 431 q 244 438 246 436 l 51 956 l 50 961 q 63 972 50 972 l 138 972 q 154 961 150 972 l 290 554 q 294 551 292 551 q 299 554 297 551 l 435 961 q 451 972 439 972 l 526 972 q 537 967 533 972 q 538 956 540 963 l 346 438 q 344 431 344 436 l 344 15 q 331 1 344 1 l 260 1 z "},"Ỵ":{"ha":589,"x_min":50,"x_max":540,"o":"m 260 1 q 246 15 246 1 l 246 431 q 244 438 246 436 l 51 956 l 50 961 q 63 972 50 972 l 138 972 q 154 961 150 972 l 290 554 q 294 551 292 551 q 299 554 297 551 l 435 961 q 451 972 439 972 l 526 972 q 537 967 533 972 q 538 956 540 963 l 346 438 q 344 431 344 436 l 344 15 q 331 1 344 1 l 260 1 m 296 -265 q 243 -244 264 -265 q 222 -192 222 -224 q 243 -139 222 -160 q 296 -118 264 -118 q 349 -139 328 -118 q 369 -192 369 -160 q 349 -244 369 -224 q 296 -265 328 -265 z "},"Ỳ":{"ha":589,"x_min":50,"x_max":540,"o":"m 260 1 q 246 15 246 1 l 246 431 q 244 438 246 436 l 51 956 l 50 961 q 63 972 50 972 l 138 972 q 154 961 150 972 l 290 554 q 294 551 292 551 q 299 554 297 551 l 435 961 q 451 972 439 972 l 526 972 q 537 967 533 972 q 538 956 540 963 l 346 438 q 344 431 344 436 l 344 15 q 331 1 344 1 l 260 1 m 325 1081 q 328 1072 328 1075 q 315 1064 328 1064 l 271 1064 q 254 1074 261 1064 l 157 1225 q 154 1233 154 1231 q 165 1242 154 1242 l 224 1242 q 240 1232 233 1242 l 325 1081 z "},"Ỷ":{"ha":589,"x_min":50,"x_max":540,"o":"m 260 1 q 246 15 246 1 l 246 431 q 244 438 246 436 l 51 956 l 50 961 q 63 972 50 972 l 138 972 q 154 961 150 972 l 290 554 q 294 551 292 551 q 299 554 297 551 l 435 961 q 451 972 439 972 l 526 972 q 537 967 533 972 q 538 956 540 963 l 346 438 q 344 431 344 436 l 344 15 q 331 1 344 1 l 260 1 m 283 1032 q 274 1040 276 1035 q 275 1050 272 1044 q 322 1115 289 1082 q 349 1147 340 1133 q 357 1181 357 1160 q 340 1216 357 1201 q 299 1231 322 1231 q 259 1219 275 1231 q 224 1181 243 1208 q 204 1178 215 1169 l 182 1192 q 178 1211 171 1200 q 231 1269 206 1251 q 301 1286 256 1286 q 385 1257 353 1286 q 417 1181 417 1228 q 404 1130 417 1150 q 365 1082 392 1110 q 326 1035 336 1056 q 308 1026 321 1025 l 283 1032 z "},"Ỹ":{"ha":589,"x_min":50,"x_max":540,"o":"m 260 1 q 246 15 246 1 l 246 431 q 244 438 246 436 l 51 956 l 50 961 q 63 972 50 972 l 138 972 q 154 961 150 972 l 290 554 q 294 551 292 551 q 299 554 297 551 l 435 961 q 451 972 439 972 l 526 972 q 537 967 533 972 q 538 956 540 963 l 346 438 q 344 431 344 436 l 344 15 q 331 1 344 1 l 260 1 m 382 1114 q 347 1122 363 1114 q 307 1144 332 1129 q 289 1157 301 1149 q 267 1169 276 1165 q 246 1172 257 1172 q 212 1165 226 1172 q 183 1136 197 1157 q 164 1132 175 1124 l 139 1150 q 133 1169 128 1158 q 239 1242 171 1242 q 279 1233 261 1242 q 319 1210 297 1225 q 335 1199 322 1207 q 359 1185 347 1190 q 382 1181 371 1181 q 414 1189 400 1181 q 442 1219 428 1197 q 450 1226 444 1225 q 461 1225 456 1228 l 486 1208 q 492 1197 492 1204 q 486 1181 492 1190 q 438 1130 467 1146 q 382 1114 408 1114 z "},"Z":{"ha":549,"x_min":46,"x_max":494,"o":"m 60 0 q 46 14 46 0 l 46 78 q 50 94 46 85 l 388 879 q 388 884 389 882 q 383 886 386 886 l 60 886 q 46 900 46 886 l 46 958 q 60 972 46 972 l 481 972 q 494 958 494 972 l 494 894 q 490 878 494 889 l 154 93 q 154 88 153 90 q 158 86 156 86 l 481 86 q 494 72 494 86 l 494 14 q 481 0 494 0 l 60 0 z "},"Ź":{"ha":549,"x_min":46,"x_max":494,"o":"m 60 0 q 46 14 46 0 l 46 78 q 50 94 46 85 l 388 879 q 388 884 389 882 q 383 886 386 886 l 60 886 q 46 900 46 886 l 46 958 q 60 972 46 972 l 481 972 q 494 958 494 972 l 494 894 q 490 878 494 889 l 154 93 q 154 88 153 90 q 158 86 156 86 l 481 86 q 494 72 494 86 l 494 14 q 481 0 494 0 l 60 0 m 225 1064 q 214 1069 217 1064 q 215 1081 211 1074 l 301 1232 q 318 1242 308 1242 l 375 1242 q 385 1237 383 1242 q 383 1225 388 1232 l 286 1074 q 269 1064 279 1064 l 225 1064 z "},"Ž":{"ha":549,"x_min":46,"x_max":494,"o":"m 60 0 q 46 14 46 0 l 46 78 q 50 94 46 85 l 388 879 q 388 884 389 882 q 383 886 386 886 l 60 886 q 46 900 46 886 l 46 958 q 60 972 46 972 l 481 972 q 494 958 494 972 l 494 894 q 490 878 494 889 l 154 93 q 154 88 153 90 q 158 86 156 86 l 481 86 q 494 72 494 86 l 494 14 q 481 0 494 0 l 60 0 m 126 1225 q 124 1233 124 1231 q 135 1242 124 1242 l 194 1242 q 211 1232 204 1242 l 272 1131 q 276 1129 274 1129 q 281 1131 279 1129 l 340 1232 q 357 1242 347 1242 l 418 1242 q 428 1237 426 1242 q 426 1225 431 1232 l 333 1082 q 317 1072 326 1072 l 233 1072 q 217 1082 224 1072 l 126 1225 z "},"Ż":{"ha":549,"x_min":46,"x_max":494,"o":"m 60 0 q 46 14 46 0 l 46 78 q 50 94 46 85 l 388 879 q 388 884 389 882 q 383 886 386 886 l 60 886 q 46 900 46 886 l 46 958 q 60 972 46 972 l 481 972 q 494 958 494 972 l 494 894 q 490 878 494 889 l 154 93 q 154 88 153 90 q 158 86 156 86 l 481 86 q 494 72 494 86 l 494 14 q 481 0 494 0 l 60 0 m 274 1100 q 217 1122 239 1100 q 196 1178 196 1144 q 217 1234 196 1213 q 274 1256 239 1256 q 329 1234 307 1256 q 351 1178 351 1213 q 329 1122 351 1144 q 274 1100 307 1100 z "},"Ģ":{"ha":626,"x_min":78,"x_max":549,"o":"m 313 -11 q 142 52 206 -11 q 78 221 78 115 l 78 751 q 142 920 78 857 q 313 983 206 983 q 484 919 419 983 q 549 750 549 856 l 549 690 q 535 676 549 676 l 464 676 q 450 690 450 676 l 450 753 q 413 858 450 818 q 313 897 375 897 q 213 857 251 897 q 175 753 175 817 l 175 219 q 213 115 175 156 q 313 75 251 75 q 413 115 375 75 q 450 219 450 154 l 450 397 q 444 403 450 403 l 325 403 q 311 417 311 403 l 311 475 q 325 489 311 489 l 535 489 q 549 475 549 489 l 549 221 q 484 52 549 115 q 313 -11 419 -11 z "},"Ķ":{"ha":628,"x_min":100,"x_max":600,"o":"m 114 0 q 100 14 100 0 l 100 958 q 114 972 100 972 l 185 972 q 199 958 199 972 l 199 508 q 201 503 199 504 q 206 506 204 501 l 474 963 q 490 972 481 972 l 568 972 q 579 967 576 972 q 578 956 582 963 l 361 579 q 360 571 358 574 l 599 17 l 600 11 q 588 0 600 0 l 508 0 q 493 11 497 0 l 293 483 q 286 483 292 489 l 200 350 q 199 343 199 349 l 199 14 q 185 0 199 0 l 114 0 z "},"Ņ":{"ha":685,"x_min":100,"x_max":586,"o":"m 489 958 q 503 972 489 972 l 572 972 q 586 958 586 972 l 586 14 q 572 0 586 0 l 490 0 q 475 11 479 0 l 204 729 q 200 733 203 733 q 197 728 197 732 l 199 14 q 185 0 199 0 l 114 0 q 100 14 100 0 l 100 958 q 114 972 100 972 l 194 972 q 210 961 206 972 l 482 242 q 486 238 483 238 q 489 243 489 239 l 489 958 z "},"Ŗ":{"ha":615,"x_min":100,"x_max":574,"o":"m 489 0 q 472 11 476 0 l 331 440 q 325 444 329 444 l 204 444 q 199 439 199 444 l 199 14 q 185 0 199 0 l 114 0 q 100 14 100 0 l 100 958 q 114 972 100 972 l 343 972 q 507 898 444 972 q 569 704 569 824 q 531 549 569 614 q 425 457 492 483 q 421 450 419 456 l 572 15 l 574 10 q 561 0 574 0 l 489 0 m 204 886 q 199 881 199 886 l 199 529 q 204 524 199 524 l 329 524 q 432 573 393 524 q 471 704 471 622 q 432 836 471 786 q 329 886 393 886 l 204 886 z "},"Ţ":{"ha":588,"x_min":47,"x_max":540,"o":"m 526 972 q 540 958 540 972 l 540 900 q 526 886 540 886 l 343 886 q 338 881 338 886 l 338 14 q 324 0 338 0 l 253 0 q 239 14 239 0 l 239 881 q 233 886 239 886 l 61 886 q 47 900 47 886 l 47 958 q 61 972 47 972 l 526 972 m 257 -253 q 247 -236 246 -249 l 251 -207 q 265 -196 254 -196 q 272 -197 267 -197 q 322 -186 303 -201 q 340 -131 340 -171 q 325 -73 340 -103 q 283 -17 310 -43 q 278 -7 278 -12 q 289 0 278 0 l 326 0 q 340 -4 336 0 q 346 -10 340 -4 q 410 -143 410 -67 q 378 -231 410 -204 q 299 -257 346 -257 q 257 -253 275 -257 z "},"Ș":{"ha":578,"x_min":57,"x_max":522,"o":"m 289 -11 q 122 57 186 -11 q 58 235 58 125 l 58 267 q 72 281 58 281 l 140 281 q 154 267 154 281 l 154 239 q 192 120 154 165 q 289 75 229 75 q 386 118 347 75 q 425 232 425 161 q 406 313 425 279 q 358 373 388 347 q 258 451 328 399 q 149 540 189 503 q 83 628 108 576 q 57 749 57 679 q 119 920 57 857 q 282 983 182 983 q 451 915 388 983 q 514 732 514 846 l 514 697 q 500 683 514 683 l 431 683 q 417 697 417 683 l 417 733 q 380 852 417 807 q 282 897 343 897 q 190 858 226 897 q 154 746 154 818 q 170 670 154 703 q 218 608 186 638 q 313 532 250 579 q 437 433 396 471 q 500 349 478 394 q 522 240 522 304 q 457 58 522 126 q 289 -11 392 -11 z "},"Ț":{"ha":588,"x_min":47,"x_max":540,"o":"m 526 972 q 540 958 540 972 l 540 900 q 526 886 540 886 l 343 886 q 338 881 338 886 l 338 14 q 324 0 338 0 l 253 0 q 239 14 239 0 l 239 881 q 233 886 239 886 l 61 886 q 47 900 47 886 l 47 958 q 61 972 47 972 l 526 972 z "},"a":{"ha":574,"x_min":56,"x_max":504,"o":"m 290 714 q 446 651 388 714 q 504 482 504 588 l 504 14 q 490 0 504 0 l 419 0 q 406 14 406 0 l 406 56 q 403 59 406 58 q 399 57 401 60 q 244 -11 347 -11 q 112 33 168 -11 q 56 188 56 76 q 124 360 56 306 q 303 415 192 415 l 400 415 q 406 421 406 415 l 406 475 q 374 586 406 544 q 288 628 342 628 q 216 600 246 628 q 181 529 186 572 q 167 515 181 515 l 89 517 q 78 521 82 517 q 76 531 75 525 q 143 663 83 613 q 290 714 203 714 m 265 75 q 364 112 322 75 q 406 214 406 149 l 406 331 q 400 336 406 336 l 301 336 q 196 301 235 336 q 157 196 157 265 q 187 105 157 135 q 265 75 217 75 z "},"á":{"ha":571,"x_min":56,"x_max":504,"o":"m 290 714 q 446 651 388 714 q 504 482 504 588 l 504 14 q 490 0 504 0 l 419 0 q 406 14 406 0 l 406 56 q 403 59 406 58 q 399 57 401 60 q 244 -11 347 -11 q 112 33 168 -11 q 56 188 56 76 q 124 360 56 306 q 303 415 192 415 l 400 415 q 406 421 406 415 l 406 475 q 374 586 406 544 q 288 628 342 628 q 216 600 246 628 q 181 529 186 572 q 167 515 181 515 l 89 517 q 78 521 82 517 q 76 531 75 525 q 143 663 83 613 q 290 714 203 714 m 265 75 q 364 112 322 75 q 406 214 406 149 l 406 331 q 400 336 406 336 l 301 336 q 196 301 235 336 q 157 196 157 265 q 187 105 157 135 q 265 75 217 75 m 238 794 q 226 799 229 794 q 228 811 224 804 l 314 963 q 331 972 321 972 l 388 972 q 398 967 396 972 q 396 956 400 963 l 299 804 q 282 794 292 794 l 238 794 z "},"ă":{"ha":571,"x_min":56,"x_max":504,"o":"m 290 714 q 446 651 388 714 q 504 482 504 588 l 504 14 q 490 0 504 0 l 419 0 q 406 14 406 0 l 406 56 q 403 59 406 58 q 399 57 401 60 q 244 -11 347 -11 q 112 33 168 -11 q 56 188 56 76 q 124 360 56 306 q 303 415 192 415 l 400 415 q 406 421 406 415 l 406 475 q 374 586 406 544 q 288 628 342 628 q 216 600 246 628 q 181 529 186 572 q 167 515 181 515 l 89 517 q 78 521 82 517 q 76 531 75 525 q 143 663 83 613 q 290 714 203 714 m 265 75 q 364 112 322 75 q 406 214 406 149 l 406 331 q 400 336 406 336 l 301 336 q 196 301 235 336 q 157 196 157 265 q 187 105 157 135 q 265 75 217 75 m 286 775 q 186 813 226 775 q 140 907 146 850 q 154 921 140 921 l 186 921 q 201 907 200 921 q 229 850 206 872 q 286 828 253 828 q 343 850 319 828 q 371 907 367 872 q 386 921 372 921 l 418 921 q 432 907 432 921 q 386 812 426 849 q 286 775 346 775 z "},"ắ":{"ha":571,"x_min":56,"x_max":504,"o":"m 290 714 q 446 651 388 714 q 504 482 504 588 l 504 14 q 490 0 504 0 l 419 0 q 406 14 406 0 l 406 56 q 403 59 406 58 q 399 57 401 60 q 244 -11 347 -11 q 112 33 168 -11 q 56 188 56 76 q 124 360 56 306 q 303 415 192 415 l 400 415 q 406 421 406 415 l 406 475 q 374 586 406 544 q 288 628 342 628 q 216 600 246 628 q 181 529 186 572 q 167 515 181 515 l 89 517 q 78 521 82 517 q 76 531 75 525 q 143 663 83 613 q 290 714 203 714 m 265 75 q 364 112 322 75 q 406 214 406 149 l 406 331 q 400 336 406 336 l 301 336 q 196 301 235 336 q 157 196 157 265 q 187 105 157 135 q 265 75 217 75 z "},"ặ":{"ha":571,"x_min":56,"x_max":504,"o":"m 290 714 q 446 651 388 714 q 504 482 504 588 l 504 14 q 490 0 504 0 l 419 0 q 406 14 406 0 l 406 56 q 403 59 406 58 q 399 57 401 60 q 244 -11 347 -11 q 112 33 168 -11 q 56 188 56 76 q 124 360 56 306 q 303 415 192 415 l 400 415 q 406 421 406 415 l 406 475 q 374 586 406 544 q 288 628 342 628 q 216 600 246 628 q 181 529 186 572 q 167 515 181 515 l 89 517 q 78 521 82 517 q 76 531 75 525 q 143 663 83 613 q 290 714 203 714 m 265 75 q 364 112 322 75 q 406 214 406 149 l 406 331 q 400 336 406 336 l 301 336 q 196 301 235 336 q 157 196 157 265 q 187 105 157 135 q 265 75 217 75 m 286 -265 q 233 -244 254 -265 q 213 -192 213 -224 q 233 -139 213 -160 q 286 -118 254 -118 q 339 -139 318 -118 q 360 -192 360 -160 q 339 -244 360 -224 q 286 -265 318 -265 m 286 806 q 186 843 226 806 q 140 938 146 881 q 154 951 140 951 l 186 951 q 201 938 200 951 q 229 879 206 901 q 286 857 253 857 q 343 879 319 857 q 371 938 367 901 q 386 951 372 951 l 418 951 q 432 938 432 951 q 386 843 426 881 q 286 806 346 806 z "},"ằ":{"ha":571,"x_min":56,"x_max":504,"o":"m 290 714 q 446 651 388 714 q 504 482 504 588 l 504 14 q 490 0 504 0 l 419 0 q 406 14 406 0 l 406 56 q 403 59 406 58 q 399 57 401 60 q 244 -11 347 -11 q 112 33 168 -11 q 56 188 56 76 q 124 360 56 306 q 303 415 192 415 l 400 415 q 406 421 406 415 l 406 475 q 374 586 406 544 q 288 628 342 628 q 216 600 246 628 q 181 529 186 572 q 167 515 181 515 l 89 517 q 78 521 82 517 q 76 531 75 525 q 143 663 83 613 q 290 714 203 714 m 265 75 q 364 112 322 75 q 406 214 406 149 l 406 331 q 400 336 406 336 l 301 336 q 196 301 235 336 q 157 196 157 265 q 187 105 157 135 q 265 75 217 75 z "},"ẳ":{"ha":571,"x_min":56,"x_max":504,"o":"m 290 714 q 446 651 388 714 q 504 482 504 588 l 504 14 q 490 0 504 0 l 419 0 q 406 14 406 0 l 406 56 q 403 59 406 58 q 399 57 401 60 q 244 -11 347 -11 q 112 33 168 -11 q 56 188 56 76 q 124 360 56 306 q 303 415 192 415 l 400 415 q 406 421 406 415 l 406 475 q 374 586 406 544 q 288 628 342 628 q 216 600 246 628 q 181 529 186 572 q 167 515 181 515 l 89 517 q 78 521 82 517 q 76 531 75 525 q 143 663 83 613 q 290 714 203 714 m 265 75 q 364 112 322 75 q 406 214 406 149 l 406 331 q 400 336 406 336 l 301 336 q 196 301 235 336 q 157 196 157 265 q 187 105 157 135 q 265 75 217 75 m 278 982 q 269 988 271 983 q 269 999 267 993 q 288 1033 278 1019 q 314 1061 299 1046 q 338 1090 331 1078 q 346 1122 346 1103 q 330 1156 346 1142 q 290 1169 314 1169 q 252 1160 267 1169 q 219 1124 238 1150 q 200 1119 211 1111 l 181 1132 q 176 1151 169 1140 q 227 1206 203 1190 q 293 1222 251 1222 q 372 1194 342 1222 q 403 1122 403 1167 q 390 1073 403 1093 q 353 1028 378 1053 q 318 985 326 1001 q 300 976 311 972 l 278 982 m 286 806 q 186 843 226 806 q 140 938 146 881 q 154 951 140 951 l 186 951 q 201 938 200 951 q 229 879 206 901 q 286 857 253 857 q 343 879 319 857 q 371 938 367 901 q 386 951 372 951 l 418 951 q 432 938 432 951 q 386 842 426 879 q 286 806 346 806 z "},"ẵ":{"ha":571,"x_min":56,"x_max":504,"o":"m 290 714 q 446 651 388 714 q 504 482 504 588 l 504 14 q 490 0 504 0 l 419 0 q 406 14 406 0 l 406 56 q 403 59 406 58 q 399 57 401 60 q 244 -11 347 -11 q 112 33 168 -11 q 56 188 56 76 q 124 360 56 306 q 303 415 192 415 l 400 415 q 406 421 406 415 l 406 475 q 374 586 406 544 q 288 628 342 628 q 216 600 246 628 q 181 529 186 572 q 167 515 181 515 l 89 517 q 78 521 82 517 q 76 531 75 525 q 143 663 83 613 q 290 714 203 714 m 265 75 q 364 112 322 75 q 406 214 406 149 l 406 331 q 400 336 406 336 l 301 336 q 196 301 235 336 q 157 196 157 265 q 187 105 157 135 q 265 75 217 75 z "},"ǎ":{"ha":571,"x_min":56,"x_max":504,"o":"m 290 714 q 446 651 388 714 q 504 482 504 588 l 504 14 q 490 0 504 0 l 419 0 q 406 14 406 0 l 406 56 q 403 59 406 58 q 399 57 401 60 q 244 -11 347 -11 q 112 33 168 -11 q 56 188 56 76 q 124 360 56 306 q 303 415 192 415 l 400 415 q 406 421 406 415 l 406 475 q 374 586 406 544 q 288 628 342 628 q 216 600 246 628 q 181 529 186 572 q 167 515 181 515 l 89 517 q 78 521 82 517 q 76 531 75 525 q 143 663 83 613 q 290 714 203 714 m 265 75 q 364 112 322 75 q 406 214 406 149 l 406 331 q 400 336 406 336 l 301 336 q 196 301 235 336 q 157 196 157 265 q 187 105 157 135 q 265 75 217 75 z "},"â":{"ha":571,"x_min":56,"x_max":504,"o":"m 290 714 q 446 651 388 714 q 504 482 504 588 l 504 14 q 490 0 504 0 l 419 0 q 406 14 406 0 l 406 56 q 403 59 406 58 q 399 57 401 60 q 244 -11 347 -11 q 112 33 168 -11 q 56 188 56 76 q 124 360 56 306 q 303 415 192 415 l 400 415 q 406 421 406 415 l 406 475 q 374 586 406 544 q 288 628 342 628 q 216 600 246 628 q 181 529 186 572 q 167 515 181 515 l 89 517 q 78 521 82 517 q 76 531 75 525 q 143 663 83 613 q 290 714 203 714 m 265 75 q 364 112 322 75 q 406 214 406 149 l 406 331 q 400 336 406 336 l 301 336 q 196 301 235 336 q 157 196 157 265 q 187 105 157 135 q 265 75 217 75 m 143 803 q 133 808 135 803 q 135 819 131 813 l 225 963 q 242 972 232 972 l 325 972 q 342 963 335 972 l 435 819 q 438 811 438 814 q 426 803 438 803 l 365 803 q 349 813 356 803 l 289 914 q 285 917 288 917 q 281 914 282 917 l 219 813 q 203 803 213 803 l 143 803 z "},"ấ":{"ha":571,"x_min":56,"x_max":613,"o":"m 290 714 q 446 651 388 714 q 504 482 504 588 l 504 14 q 490 0 504 0 l 419 0 q 406 14 406 0 l 406 56 q 403 59 406 58 q 399 57 401 60 q 244 -11 347 -11 q 112 33 168 -11 q 56 188 56 76 q 124 360 56 306 q 303 415 192 415 l 400 415 q 406 421 406 415 l 406 475 q 374 586 406 544 q 288 628 342 628 q 216 600 246 628 q 181 529 186 572 q 167 515 181 515 l 89 517 q 78 521 82 517 q 76 531 75 525 q 143 663 83 613 q 290 714 203 714 m 265 75 q 364 112 322 75 q 406 214 406 149 l 406 331 q 400 336 406 336 l 301 336 q 196 301 235 336 q 157 196 157 265 q 187 105 157 135 q 265 75 217 75 z "},"ậ":{"ha":571,"x_min":56,"x_max":504,"o":"m 290 714 q 446 651 388 714 q 504 482 504 588 l 504 14 q 490 0 504 0 l 419 0 q 406 14 406 0 l 406 56 q 403 59 406 58 q 399 57 401 60 q 244 -11 347 -11 q 112 33 168 -11 q 56 188 56 76 q 124 360 56 306 q 303 415 192 415 l 400 415 q 406 421 406 415 l 406 475 q 374 586 406 544 q 288 628 342 628 q 216 600 246 628 q 181 529 186 572 q 167 515 181 515 l 89 517 q 78 521 82 517 q 76 531 75 525 q 143 663 83 613 q 290 714 203 714 m 265 75 q 364 112 322 75 q 406 214 406 149 l 406 331 q 400 336 406 336 l 301 336 q 196 301 235 336 q 157 196 157 265 q 187 105 157 135 q 265 75 217 75 m 286 -265 q 233 -244 254 -265 q 213 -192 213 -224 q 233 -139 213 -160 q 286 -118 254 -118 q 339 -139 318 -118 q 360 -192 360 -160 q 339 -244 360 -224 q 286 -265 318 -265 m 143 803 q 133 808 135 803 q 135 819 131 813 l 225 963 q 242 972 232 972 l 325 972 q 342 963 335 972 l 435 819 q 438 811 438 814 q 426 803 438 803 l 365 803 q 349 813 356 803 l 289 914 q 285 917 288 917 q 281 914 282 917 l 219 813 q 203 803 213 803 l 143 803 z "},"ầ":{"ha":571,"x_min":56,"x_max":514,"o":"m 290 714 q 446 651 388 714 q 504 482 504 588 l 504 14 q 490 0 504 0 l 419 0 q 406 14 406 0 l 406 56 q 403 59 406 58 q 399 57 401 60 q 244 -11 347 -11 q 112 33 168 -11 q 56 188 56 76 q 124 360 56 306 q 303 415 192 415 l 400 415 q 406 421 406 415 l 406 475 q 374 586 406 544 q 288 628 342 628 q 216 600 246 628 q 181 529 186 572 q 167 515 181 515 l 89 517 q 78 521 82 517 q 76 531 75 525 q 143 663 83 613 q 290 714 203 714 m 265 75 q 364 112 322 75 q 406 214 406 149 l 406 331 q 400 336 406 336 l 301 336 q 196 301 235 336 q 157 196 157 265 q 187 105 157 135 q 265 75 217 75 z "},"ẩ":{"ha":571,"x_min":56,"x_max":574,"o":"m 290 714 q 446 651 388 714 q 504 482 504 588 l 504 14 q 490 0 504 0 l 419 0 q 406 14 406 0 l 406 56 q 403 59 406 58 q 399 57 401 60 q 244 -11 347 -11 q 112 33 168 -11 q 56 188 56 76 q 124 360 56 306 q 303 415 192 415 l 400 415 q 406 421 406 415 l 406 475 q 374 586 406 544 q 288 628 342 628 q 216 600 246 628 q 181 529 186 572 q 167 515 181 515 l 89 517 q 78 521 82 517 q 76 531 75 525 q 143 663 83 613 q 290 714 203 714 m 265 75 q 364 112 322 75 q 406 214 406 149 l 406 331 q 400 336 406 336 l 301 336 q 196 301 235 336 q 157 196 157 265 q 187 105 157 135 q 265 75 217 75 m 444 933 q 435 950 429 938 q 481 1014 447 981 q 506 1044 499 1032 q 514 1078 514 1057 q 498 1111 514 1097 q 458 1125 482 1125 q 419 1115 435 1125 q 385 1078 404 1106 q 365 1075 376 1067 l 344 1089 q 340 1108 333 1097 q 392 1164 367 1147 q 460 1181 417 1181 q 542 1151 510 1181 q 574 1078 574 1122 q 560 1026 574 1047 q 521 981 547 1006 q 485 936 493 953 q 467 928 478 924 l 444 933 m 143 803 q 133 808 135 803 q 135 819 131 813 l 225 963 q 242 972 232 972 l 325 972 q 342 963 335 972 l 435 819 q 438 811 438 814 q 426 803 438 803 l 365 803 q 349 813 356 803 l 289 914 q 285 917 288 917 q 281 914 282 917 l 219 813 q 203 803 213 803 l 143 803 z "},"ẫ":{"ha":571,"x_min":56,"x_max":504,"o":"m 290 714 q 446 651 388 714 q 504 482 504 588 l 504 14 q 490 0 504 0 l 419 0 q 406 14 406 0 l 406 56 q 403 59 406 58 q 399 57 401 60 q 244 -11 347 -11 q 112 33 168 -11 q 56 188 56 76 q 124 360 56 306 q 303 415 192 415 l 400 415 q 406 421 406 415 l 406 475 q 374 586 406 544 q 288 628 342 628 q 216 600 246 628 q 181 529 186 572 q 167 515 181 515 l 89 517 q 78 521 82 517 q 76 531 75 525 q 143 663 83 613 q 290 714 203 714 m 265 75 q 364 112 322 75 q 406 214 406 149 l 406 331 q 400 336 406 336 l 301 336 q 196 301 235 336 q 157 196 157 265 q 187 105 157 135 q 265 75 217 75 z "},"ä":{"ha":571,"x_min":56,"x_max":504,"o":"m 290 714 q 446 651 388 714 q 504 482 504 588 l 504 14 q 490 0 504 0 l 419 0 q 406 14 406 0 l 406 56 q 403 59 406 58 q 399 57 401 60 q 244 -11 347 -11 q 112 33 168 -11 q 56 188 56 76 q 124 360 56 306 q 303 415 192 415 l 400 415 q 406 421 406 415 l 406 475 q 374 586 406 544 q 288 628 342 628 q 216 600 246 628 q 181 529 186 572 q 167 515 181 515 l 89 517 q 78 521 82 517 q 76 531 75 525 q 143 663 83 613 q 290 714 203 714 m 265 75 q 364 112 322 75 q 406 214 406 149 l 406 331 q 400 336 406 336 l 301 336 q 196 301 235 336 q 157 196 157 265 q 187 105 157 135 q 265 75 217 75 z "},"ạ":{"ha":571,"x_min":56,"x_max":504,"o":"m 290 714 q 446 651 388 714 q 504 482 504 588 l 504 14 q 490 0 504 0 l 419 0 q 406 14 406 0 l 406 56 q 403 59 406 58 q 399 57 401 60 q 244 -11 347 -11 q 112 33 168 -11 q 56 188 56 76 q 124 360 56 306 q 303 415 192 415 l 400 415 q 406 421 406 415 l 406 475 q 374 586 406 544 q 288 628 342 628 q 216 600 246 628 q 181 529 186 572 q 167 515 181 515 l 89 517 q 78 521 82 517 q 76 531 75 525 q 143 663 83 613 q 290 714 203 714 m 265 75 q 364 112 322 75 q 406 214 406 149 l 406 331 q 400 336 406 336 l 301 336 q 196 301 235 336 q 157 196 157 265 q 187 105 157 135 q 265 75 217 75 m 286 -265 q 233 -244 254 -265 q 213 -192 213 -224 q 233 -139 213 -160 q 286 -118 254 -118 q 339 -139 318 -118 q 360 -192 360 -160 q 339 -244 360 -224 q 286 -265 318 -265 z "},"à":{"ha":571,"x_min":56,"x_max":504,"o":"m 290 714 q 446 651 388 714 q 504 482 504 588 l 504 14 q 490 0 504 0 l 419 0 q 406 14 406 0 l 406 56 q 403 59 406 58 q 399 57 401 60 q 244 -11 347 -11 q 112 33 168 -11 q 56 188 56 76 q 124 360 56 306 q 303 415 192 415 l 400 415 q 406 421 406 415 l 406 475 q 374 586 406 544 q 288 628 342 628 q 216 600 246 628 q 181 529 186 572 q 167 515 181 515 l 89 517 q 78 521 82 517 q 76 531 75 525 q 143 663 83 613 q 290 714 203 714 m 265 75 q 364 112 322 75 q 406 214 406 149 l 406 331 q 400 336 406 336 l 301 336 q 196 301 235 336 q 157 196 157 265 q 187 105 157 135 q 265 75 217 75 m 315 811 q 318 803 318 806 q 306 794 318 794 l 261 794 q 244 804 251 794 l 147 956 q 144 964 144 961 q 156 972 144 972 l 214 972 q 231 963 224 972 l 315 811 z "},"ả":{"ha":571,"x_min":56,"x_max":504,"o":"m 290 714 q 446 651 388 714 q 504 482 504 588 l 504 14 q 490 0 504 0 l 419 0 q 406 14 406 0 l 406 56 q 403 59 406 58 q 399 57 401 60 q 244 -11 347 -11 q 112 33 168 -11 q 56 188 56 76 q 124 360 56 306 q 303 415 192 415 l 400 415 q 406 421 406 415 l 406 475 q 374 586 406 544 q 288 628 342 628 q 216 600 246 628 q 181 529 186 572 q 167 515 181 515 l 89 517 q 78 521 82 517 q 76 531 75 525 q 143 663 83 613 q 290 714 203 714 m 265 75 q 364 112 322 75 q 406 214 406 149 l 406 331 q 400 336 406 336 l 301 336 q 196 301 235 336 q 157 196 157 265 q 187 105 157 135 q 265 75 217 75 m 275 763 q 266 770 268 765 q 267 781 264 775 q 314 846 281 813 q 340 877 332 864 q 349 911 349 890 q 331 947 349 932 q 290 961 314 961 q 251 950 267 961 q 215 911 235 939 q 196 908 207 900 l 174 922 q 169 942 163 931 q 222 999 197 982 q 293 1017 247 1017 q 376 988 344 1017 q 408 911 408 958 q 396 860 408 881 q 357 813 383 840 q 318 765 328 786 q 300 757 313 756 l 275 763 z "},"ā":{"ha":571,"x_min":56,"x_max":504,"o":"m 290 714 q 446 651 388 714 q 504 482 504 588 l 504 14 q 490 0 504 0 l 419 0 q 406 14 406 0 l 406 56 q 403 59 406 58 q 399 57 401 60 q 244 -11 347 -11 q 112 33 168 -11 q 56 188 56 76 q 124 360 56 306 q 303 415 192 415 l 400 415 q 406 421 406 415 l 406 475 q 374 586 406 544 q 288 628 342 628 q 216 600 246 628 q 181 529 186 572 q 167 515 181 515 l 89 517 q 78 521 82 517 q 76 531 75 525 q 143 663 83 613 q 290 714 203 714 m 265 75 q 364 112 322 75 q 406 214 406 149 l 406 331 q 400 336 406 336 l 301 336 q 196 301 235 336 q 157 196 157 265 q 187 105 157 135 q 265 75 217 75 m 157 826 q 143 840 143 826 l 143 885 q 157 899 143 899 l 411 899 q 425 885 425 899 l 425 840 q 411 826 425 826 l 157 826 z "},"ą":{"ha":571,"x_min":56,"x_max":519,"o":"m 504 -196 q 515 -207 513 -196 l 519 -236 l 519 -240 q 510 -253 519 -249 q 469 -257 490 -257 q 390 -231 422 -257 q 358 -143 358 -206 q 422 -7 358 -67 q 424 -2 425 -4 q 421 0 424 0 l 419 0 q 406 14 406 0 l 406 56 q 403 59 406 58 q 399 57 401 60 q 244 -11 347 -11 q 112 33 168 -11 q 56 188 56 76 q 124 360 56 306 q 303 415 192 415 l 400 415 q 406 421 406 415 l 406 475 q 374 586 406 544 q 288 628 342 628 q 216 600 246 628 q 181 529 186 572 q 167 515 181 515 l 89 517 q 78 521 82 517 q 76 531 75 525 q 144 663 83 613 q 290 714 204 714 q 446 651 388 714 q 504 482 504 588 l 504 11 l 504 0 l 500 -3 q 447 -67 467 -33 q 426 -133 426 -100 q 443 -183 426 -167 q 485 -199 460 -199 q 499 -197 494 -199 l 504 -196 m 265 75 q 364 112 322 75 q 406 214 406 149 l 406 331 q 400 336 406 336 l 301 336 q 196 301 235 336 q 157 196 157 265 q 187 105 157 135 q 265 75 217 75 z "},"å":{"ha":571,"x_min":56,"x_max":504,"o":"m 290 714 q 446 651 388 714 q 504 482 504 588 l 504 14 q 490 0 504 0 l 419 0 q 406 14 406 0 l 406 56 q 403 59 406 58 q 399 57 401 60 q 244 -11 347 -11 q 112 33 168 -11 q 56 188 56 76 q 124 360 56 306 q 303 415 192 415 l 400 415 q 406 421 406 415 l 406 475 q 374 586 406 544 q 288 628 342 628 q 216 600 246 628 q 181 529 186 572 q 167 515 181 515 l 89 517 q 78 521 82 517 q 76 531 75 525 q 143 663 83 613 q 290 714 203 714 m 265 75 q 364 112 322 75 q 406 214 406 149 l 406 331 q 400 336 406 336 l 301 336 q 196 301 235 336 q 157 196 157 265 q 187 105 157 135 q 265 75 217 75 m 286 804 q 182 847 225 804 q 139 954 139 890 q 182 1060 139 1017 q 286 1104 225 1104 q 391 1060 349 1104 q 433 954 433 1017 q 391 847 433 890 q 286 804 349 804 m 286 864 q 348 890 322 864 q 374 954 374 915 q 348 1019 374 993 q 286 1046 322 1046 q 224 1019 250 1046 q 199 954 199 993 q 224 890 199 915 q 286 864 250 864 z "},"ã":{"ha":571,"x_min":56,"x_max":504,"o":"m 290 714 q 446 651 388 714 q 504 482 504 588 l 504 14 q 490 0 504 0 l 419 0 q 406 14 406 0 l 406 56 q 403 59 406 58 q 399 57 401 60 q 244 -11 347 -11 q 112 33 168 -11 q 56 188 56 76 q 124 360 56 306 q 303 415 192 415 l 400 415 q 406 421 406 415 l 406 475 q 374 586 406 544 q 288 628 342 628 q 216 600 246 628 q 181 529 186 572 q 167 515 181 515 l 89 517 q 78 521 82 517 q 76 531 75 525 q 143 663 83 613 q 290 714 203 714 m 265 75 q 364 112 322 75 q 406 214 406 149 l 406 331 q 400 336 406 336 l 301 336 q 196 301 235 336 q 157 196 157 265 q 187 105 157 135 q 265 75 217 75 m 372 844 q 338 852 353 844 q 297 875 322 860 q 279 888 292 879 q 257 899 267 896 q 236 903 247 903 q 202 895 217 903 q 174 867 188 888 q 154 863 165 854 l 129 881 q 124 900 118 889 q 229 972 161 972 q 269 964 251 972 q 310 940 288 956 q 325 929 313 938 q 349 916 338 921 q 372 911 361 911 q 404 919 390 911 q 432 950 418 928 q 440 957 435 956 q 451 956 446 958 l 476 939 q 482 928 482 935 q 476 911 482 921 q 428 860 457 876 q 372 844 399 844 z "},"æ":{"ha":906,"x_min":56,"x_max":844,"o":"m 242 -11 q 110 31 164 -11 q 56 186 56 74 q 118 352 56 303 q 292 401 181 401 l 397 401 q 403 407 403 401 l 403 475 q 372 587 403 546 q 285 628 342 628 q 207 601 240 628 q 168 529 174 574 q 153 515 167 515 l 82 519 q 72 524 75 519 q 69 533 68 528 q 136 665 75 615 q 283 714 197 714 q 447 619 394 714 q 456 619 451 614 q 526 689 481 664 q 629 714 571 714 q 785 655 725 714 q 844 501 844 596 l 844 332 q 831 318 844 318 l 513 318 q 507 313 507 318 l 507 207 q 540 117 507 153 q 626 81 574 81 q 701 106 669 81 q 743 174 732 132 q 758 185 747 186 l 828 178 q 840 163 843 175 q 773 35 828 82 q 633 -11 718 -11 q 518 19 567 -11 q 453 93 469 49 q 450 97 451 96 q 447 96 449 99 q 372 18 429 47 q 242 -11 315 -11 m 507 407 q 513 401 507 401 l 740 401 q 746 407 746 401 l 746 494 q 713 591 746 554 q 626 628 679 628 q 540 591 574 628 q 507 494 507 554 l 507 407 m 265 69 q 362 104 321 69 q 403 201 403 139 l 403 311 q 397 317 403 317 l 300 317 q 194 285 233 317 q 156 189 156 253 q 186 99 156 129 q 265 69 217 69 z "},"b":{"ha":588,"x_min":85,"x_max":518,"o":"m 324 714 q 465 656 411 714 q 518 501 518 599 l 518 201 q 465 48 518 107 q 324 -11 413 -11 q 251 3 286 -11 q 190 47 217 18 q 185 49 188 50 q 183 44 183 47 l 183 14 q 169 0 183 0 l 99 0 q 85 14 85 0 l 85 958 q 99 972 85 972 l 169 972 q 183 958 183 972 l 183 658 q 186 654 183 656 q 192 657 189 653 q 251 699 217 685 q 324 714 286 714 m 419 494 q 386 591 419 554 q 299 628 353 628 q 215 591 247 628 q 183 494 183 554 l 183 207 q 215 112 183 149 q 299 75 247 75 q 386 112 353 75 q 419 207 419 149 l 419 494 z "},"c":{"ha":558,"x_min":69,"x_max":506,"o":"m 286 -11 q 128 47 188 -11 q 69 201 69 106 l 69 501 q 129 655 69 596 q 286 714 189 714 q 401 688 351 714 q 478 617 451 661 q 506 521 506 574 l 506 507 q 492 493 506 493 l 421 490 q 407 504 407 490 l 407 514 q 373 594 407 560 q 286 628 339 628 q 201 591 233 628 q 168 494 168 554 l 168 208 q 201 112 168 149 q 286 75 233 75 q 373 109 339 75 q 407 189 407 143 l 407 199 q 421 213 407 213 l 492 211 q 506 197 506 211 l 506 182 q 445 44 506 99 q 286 -11 385 -11 z "},"ć":{"ha":558,"x_min":69,"x_max":506,"o":"m 286 -11 q 128 47 188 -11 q 69 201 69 106 l 69 501 q 129 655 69 596 q 286 714 189 714 q 401 688 351 714 q 478 617 451 661 q 506 521 506 574 l 506 507 q 492 493 506 493 l 421 490 q 407 504 407 490 l 407 514 q 373 594 407 560 q 286 628 339 628 q 201 591 233 628 q 168 494 168 554 l 168 208 q 201 112 168 149 q 286 75 233 75 q 373 109 339 75 q 407 189 407 143 l 407 199 q 421 213 407 213 l 492 211 q 506 197 506 211 l 506 182 q 445 44 506 99 q 286 -11 385 -11 m 239 794 q 228 799 231 794 q 229 811 225 804 l 315 963 q 332 972 322 972 l 389 972 q 399 967 397 972 q 397 956 401 963 l 300 804 q 283 794 293 794 l 239 794 z "},"č":{"ha":558,"x_min":69,"x_max":506,"o":"m 286 -11 q 128 47 188 -11 q 69 201 69 106 l 69 501 q 129 655 69 596 q 286 714 189 714 q 401 688 351 714 q 478 617 451 661 q 506 521 506 574 l 506 507 q 492 493 506 493 l 421 490 q 407 504 407 490 l 407 514 q 373 594 407 560 q 286 628 339 628 q 201 591 233 628 q 168 494 168 554 l 168 208 q 201 112 168 149 q 286 75 233 75 q 373 109 339 75 q 407 189 407 143 l 407 199 q 421 213 407 213 l 492 211 q 506 197 506 211 l 506 182 q 445 44 506 99 q 286 -11 385 -11 m 139 956 q 136 964 136 961 q 147 972 136 972 l 207 972 q 224 963 217 972 l 285 861 q 289 860 286 860 q 293 861 292 860 l 353 963 q 369 972 360 972 l 431 972 q 441 967 439 972 q 439 956 443 963 l 346 813 q 329 803 339 803 l 246 803 q 229 813 236 803 l 139 956 z "},"ç":{"ha":558,"x_min":69,"x_max":506,"o":"m 506 507 q 492 493 506 493 l 421 490 q 407 504 407 490 l 407 514 q 373 594 407 560 q 286 628 339 628 q 201 591 233 628 q 168 494 168 554 l 168 208 q 201 112 168 149 q 286 75 233 75 q 373 109 339 75 q 407 189 407 143 l 407 199 q 421 213 407 213 l 492 211 q 506 197 506 211 l 506 182 q 458 58 506 110 q 331 -7 410 6 q 328 -14 324 -10 q 385 -143 385 -72 q 353 -230 385 -204 q 274 -256 321 -256 q 232 -251 251 -256 q 222 -236 221 -250 l 226 -206 q 240 -194 229 -194 q 246 -196 242 -196 q 296 -185 276 -200 q 315 -131 315 -169 q 254 -11 315 -78 q 247 -8 251 -8 q 117 58 165 1 q 69 201 69 115 l 69 501 q 129 655 69 596 q 286 714 189 714 q 401 688 351 714 q 478 617 451 661 q 506 521 506 574 l 506 507 z "},"ĉ":{"ha":558,"x_min":69,"x_max":506,"o":"m 286 -11 q 128 47 188 -11 q 69 201 69 106 l 69 501 q 129 655 69 596 q 286 714 189 714 q 401 688 351 714 q 478 617 451 661 q 506 521 506 574 l 506 507 q 492 493 506 493 l 421 490 q 407 504 407 490 l 407 514 q 373 594 407 560 q 286 628 339 628 q 201 591 233 628 q 168 494 168 554 l 168 208 q 201 112 168 149 q 286 75 233 75 q 373 109 339 75 q 407 189 407 143 l 407 199 q 421 213 407 213 l 492 211 q 506 197 506 211 l 506 182 q 445 44 506 99 q 286 -11 385 -11 m 144 803 q 134 808 136 803 q 136 819 132 813 l 226 963 q 243 972 233 972 l 326 972 q 343 963 336 972 l 436 819 q 439 811 439 814 q 428 803 439 803 l 367 803 q 350 813 357 803 l 290 914 q 286 917 289 917 q 282 914 283 917 l 221 813 q 204 803 214 803 l 144 803 z "},"ċ":{"ha":558,"x_min":69,"x_max":506,"o":"m 286 -11 q 128 47 188 -11 q 69 201 69 106 l 69 501 q 129 655 69 596 q 286 714 189 714 q 401 688 351 714 q 478 617 451 661 q 506 521 506 574 l 506 507 q 492 493 506 493 l 421 490 q 407 504 407 490 l 407 514 q 373 594 407 560 q 286 628 339 628 q 201 591 233 628 q 168 494 168 554 l 168 208 q 201 112 168 149 q 286 75 233 75 q 373 109 339 75 q 407 189 407 143 l 407 199 q 421 213 407 213 l 492 211 q 506 197 506 211 l 506 182 q 445 44 506 99 q 286 -11 385 -11 m 288 831 q 231 853 253 831 q 210 908 210 875 q 231 965 210 943 q 288 986 253 986 q 343 965 321 986 q 365 908 365 943 q 343 853 365 875 q 288 831 321 831 z "},"d":{"ha":588,"x_min":69,"x_max":503,"o":"m 404 958 q 418 972 404 972 l 489 972 q 503 958 503 972 l 503 14 q 489 0 503 0 l 418 0 q 404 14 404 0 l 404 44 q 402 49 404 47 q 397 47 400 50 q 264 -11 344 -11 q 122 48 175 -11 q 69 201 69 107 l 69 501 q 122 656 69 599 q 264 714 175 714 q 397 654 346 714 q 402 653 400 651 q 404 657 404 654 l 404 958 m 288 75 q 372 112 339 75 q 404 207 404 149 l 404 494 q 372 591 404 554 q 288 628 339 628 q 201 591 235 628 q 167 494 167 554 l 167 207 q 201 112 167 149 q 288 75 235 75 z "},"ð":{"ha":600,"x_min":69,"x_max":528,"o":"m 528 871 q 518 858 528 863 l 422 831 q 419 824 418 828 q 507 485 503 681 l 507 201 q 447 47 507 106 q 288 -11 388 -11 q 128 47 188 -11 q 69 201 69 106 l 69 485 q 127 638 69 578 q 274 697 185 697 q 390 650 347 697 q 396 653 396 646 q 340 801 382 726 q 333 804 338 807 l 231 775 l 225 774 q 213 785 217 774 l 207 807 l 206 813 q 217 825 206 821 l 301 850 q 304 857 308 853 q 226 956 269 908 q 222 964 222 960 q 233 972 222 972 l 299 972 q 315 964 307 972 q 383 879 364 910 q 390 876 386 874 l 504 910 l 510 911 q 521 900 517 911 l 528 875 l 528 871 m 408 478 q 374 574 408 538 q 288 611 340 611 q 201 574 235 611 q 168 478 168 538 l 168 208 q 201 112 168 149 q 288 75 235 75 q 374 112 340 75 q 408 208 408 149 l 408 478 z "},"ď":{"ha":588,"x_min":69,"x_max":761,"o":"m 404 958 q 418 972 404 972 l 489 972 q 503 958 503 972 l 503 14 q 489 0 503 0 l 418 0 q 404 14 404 0 l 404 44 q 402 49 404 47 q 397 47 400 50 q 264 -11 344 -11 q 122 48 175 -11 q 69 201 69 107 l 69 501 q 122 656 69 599 q 264 714 175 714 q 397 654 346 714 q 402 653 400 651 q 404 657 404 654 l 404 958 m 288 75 q 372 112 339 75 q 404 207 404 149 l 404 494 q 372 591 404 554 q 288 628 339 628 q 201 591 235 628 q 167 494 167 554 l 167 207 q 201 112 167 149 q 288 75 235 75 z "},"đ":{"ha":588,"x_min":69,"x_max":569,"o":"m 556 854 q 569 840 569 854 l 569 801 q 556 788 569 788 l 508 788 q 503 782 503 788 l 503 14 q 489 0 503 0 l 418 0 q 404 14 404 0 l 404 44 q 402 49 404 47 q 397 47 400 50 q 264 -11 344 -11 q 122 48 175 -11 q 69 201 69 107 l 69 501 q 122 656 69 599 q 264 714 175 714 q 397 654 346 714 q 402 653 400 651 q 404 657 404 654 l 404 782 q 399 788 404 788 l 213 788 q 199 801 199 788 l 199 840 q 213 854 199 854 l 399 854 q 404 860 404 854 l 404 958 q 418 972 404 972 l 489 972 q 503 958 503 972 l 503 860 q 508 854 503 854 l 556 854 m 288 75 q 372 112 339 75 q 404 207 404 149 l 404 494 q 372 591 404 554 q 288 628 339 628 q 201 591 235 628 q 167 494 167 554 l 167 207 q 201 112 167 149 q 288 75 235 75 z "},"e":{"ha":565,"x_min":69,"x_max":504,"o":"m 504 328 q 490 314 504 314 l 174 314 q 168 308 168 314 l 168 207 q 201 112 168 149 q 286 75 233 75 q 362 102 331 75 q 403 172 393 129 q 418 185 407 185 l 488 182 q 497 178 493 182 q 500 167 501 174 q 433 37 489 85 q 286 -11 376 -11 q 128 47 188 -11 q 69 201 69 106 l 69 501 q 128 655 69 596 q 286 714 188 714 q 445 655 386 714 q 504 501 504 596 l 504 328 m 286 628 q 201 591 233 628 q 168 494 168 554 l 168 401 q 174 396 168 396 l 401 396 q 407 401 407 396 l 407 494 q 374 591 407 554 q 286 628 340 628 z "},"é":{"ha":567,"x_min":69,"x_max":504,"o":"m 504 328 q 490 314 504 314 l 174 314 q 168 308 168 314 l 168 207 q 201 112 168 149 q 286 75 233 75 q 362 102 331 75 q 403 172 393 129 q 418 185 407 185 l 488 182 q 497 178 493 182 q 500 167 501 174 q 433 37 489 85 q 286 -11 376 -11 q 128 47 188 -11 q 69 201 69 106 l 69 501 q 128 655 69 596 q 286 714 188 714 q 445 655 386 714 q 504 501 504 596 l 504 328 m 286 628 q 201 591 233 628 q 168 494 168 554 l 168 401 q 174 396 168 396 l 401 396 q 407 401 407 396 l 407 494 q 374 591 407 554 q 286 628 340 628 m 236 794 q 225 799 228 794 q 226 811 222 804 l 313 963 q 329 972 319 972 l 386 972 q 397 967 394 972 q 394 956 399 963 l 297 804 q 281 794 290 794 l 236 794 z "},"ě":{"ha":567,"x_min":69,"x_max":504,"o":"m 504 328 q 490 314 504 314 l 174 314 q 168 308 168 314 l 168 207 q 201 112 168 149 q 286 75 233 75 q 362 102 331 75 q 403 172 393 129 q 418 185 407 185 l 488 182 q 497 178 493 182 q 500 167 501 174 q 433 37 489 85 q 286 -11 376 -11 q 128 47 188 -11 q 69 201 69 106 l 69 501 q 128 655 69 596 q 286 714 188 714 q 445 655 386 714 q 504 501 504 596 l 504 328 m 286 628 q 201 591 233 628 q 168 494 168 554 l 168 401 q 174 396 168 396 l 401 396 q 407 401 407 396 l 407 494 q 374 591 407 554 q 286 628 340 628 z "},"ȩ":{"ha":567,"x_min":69,"x_max":504,"o":"m 504 328 q 490 314 504 314 l 174 314 q 168 308 168 314 l 168 207 q 201 112 168 149 q 286 75 233 75 q 362 102 331 75 q 403 172 393 129 q 418 185 407 185 l 488 182 q 497 178 493 182 q 500 167 501 174 q 449 51 490 96 q 338 -7 407 6 q 335 -14 329 -8 q 381 -129 381 -68 q 348 -218 381 -192 q 269 -244 315 -244 q 229 -240 247 -244 q 219 -225 218 -239 l 224 -194 q 230 -185 225 -187 q 240 -185 235 -183 q 256 -186 246 -186 q 292 -174 276 -186 q 311 -136 307 -161 q 261 -12 318 -76 q 254 -10 258 -10 q 119 57 169 0 q 69 201 69 114 l 69 501 q 128 655 69 596 q 286 714 188 714 q 445 655 386 714 q 504 501 504 596 l 504 328 m 286 628 q 201 591 233 628 q 168 494 168 554 l 168 401 q 174 396 168 396 l 401 396 q 407 401 407 396 l 407 494 q 374 591 407 554 q 286 628 340 628 z "},"ê":{"ha":567,"x_min":69,"x_max":504,"o":"m 504 328 q 490 314 504 314 l 174 314 q 168 308 168 314 l 168 207 q 201 112 168 149 q 286 75 233 75 q 362 102 331 75 q 403 172 393 129 q 418 185 407 185 l 488 182 q 497 178 493 182 q 500 167 501 174 q 433 37 489 85 q 286 -11 376 -11 q 128 47 188 -11 q 69 201 69 106 l 69 501 q 128 655 69 596 q 286 714 188 714 q 445 655 386 714 q 504 501 504 596 l 504 328 m 286 628 q 201 591 233 628 q 168 494 168 554 l 168 401 q 174 396 168 396 l 401 396 q 407 401 407 396 l 407 494 q 374 591 407 554 q 286 628 340 628 m 142 803 q 131 808 133 803 q 133 819 129 813 l 224 963 q 240 972 231 972 l 324 972 q 340 963 333 972 l 433 819 q 436 811 436 814 q 425 803 436 803 l 364 803 q 347 813 354 803 l 288 914 q 283 917 286 917 q 279 914 281 917 l 218 813 q 201 803 211 803 l 142 803 z "},"ế":{"ha":567,"x_min":69,"x_max":610,"o":"m 504 328 q 490 314 504 314 l 174 314 q 168 308 168 314 l 168 207 q 201 112 168 149 q 286 75 233 75 q 362 102 331 75 q 403 172 393 129 q 418 185 407 185 l 488 182 q 497 178 493 182 q 500 167 501 174 q 433 37 489 85 q 286 -11 376 -11 q 128 47 188 -11 q 69 201 69 106 l 69 501 q 128 655 69 596 q 286 714 188 714 q 445 655 386 714 q 504 501 504 596 l 504 328 m 286 628 q 201 591 233 628 q 168 494 168 554 l 168 401 q 174 396 168 396 l 401 396 q 407 401 407 396 l 407 494 q 374 591 407 554 q 286 628 340 628 z "},"ệ":{"ha":567,"x_min":69,"x_max":504,"o":"m 504 328 q 490 314 504 314 l 174 314 q 168 308 168 314 l 168 207 q 201 112 168 149 q 286 75 233 75 q 362 102 331 75 q 403 172 393 129 q 418 185 407 185 l 488 182 q 497 178 493 182 q 500 167 501 174 q 433 37 489 85 q 286 -11 376 -11 q 128 47 188 -11 q 69 201 69 106 l 69 501 q 128 655 69 596 q 286 714 188 714 q 445 655 386 714 q 504 501 504 596 l 504 328 m 286 628 q 201 591 233 628 q 168 494 168 554 l 168 401 q 174 396 168 396 l 401 396 q 407 401 407 396 l 407 494 q 374 591 407 554 q 286 628 340 628 m 285 -265 q 232 -244 253 -265 q 211 -192 211 -224 q 232 -139 211 -160 q 285 -118 253 -118 q 338 -139 317 -118 q 358 -192 358 -160 q 338 -244 358 -224 q 285 -265 317 -265 m 142 803 q 131 808 133 803 q 133 819 129 813 l 224 963 q 240 972 231 972 l 324 972 q 340 963 333 972 l 433 819 q 436 811 436 814 q 425 803 436 803 l 364 803 q 347 813 354 803 l 288 914 q 283 917 286 917 q 279 914 281 917 l 218 813 q 201 803 211 803 l 142 803 z "},"ề":{"ha":567,"x_min":69,"x_max":511,"o":"m 504 328 q 490 314 504 314 l 174 314 q 168 308 168 314 l 168 207 q 201 112 168 149 q 286 75 233 75 q 362 102 331 75 q 403 172 393 129 q 418 185 407 185 l 488 182 q 497 178 493 182 q 500 167 501 174 q 433 37 489 85 q 286 -11 376 -11 q 128 47 188 -11 q 69 201 69 106 l 69 501 q 128 655 69 596 q 286 714 188 714 q 445 655 386 714 q 504 501 504 596 l 504 328 m 286 628 q 201 591 233 628 q 168 494 168 554 l 168 401 q 174 396 168 396 l 401 396 q 407 401 407 396 l 407 494 q 374 591 407 554 q 286 628 340 628 z "},"ể":{"ha":567,"x_min":69,"x_max":571,"o":"m 504 328 q 490 314 504 314 l 174 314 q 168 308 168 314 l 168 207 q 201 112 168 149 q 286 75 233 75 q 362 102 331 75 q 403 172 393 129 q 418 185 407 185 l 488 182 q 497 178 493 182 q 500 167 501 174 q 433 37 489 85 q 286 -11 376 -11 q 128 47 188 -11 q 69 201 69 106 l 69 501 q 128 655 69 596 q 286 714 188 714 q 445 655 386 714 q 504 501 504 596 l 504 328 m 286 628 q 201 591 233 628 q 168 494 168 554 l 168 401 q 174 396 168 396 l 401 396 q 407 401 407 396 l 407 494 q 374 591 407 554 q 286 628 340 628 m 442 933 q 432 950 426 938 q 478 1014 444 981 q 503 1044 496 1032 q 511 1078 511 1057 q 495 1111 511 1097 q 456 1125 479 1125 q 417 1115 432 1125 q 382 1078 401 1106 q 363 1075 374 1067 l 342 1089 q 338 1108 331 1097 q 389 1164 364 1147 q 457 1181 414 1181 q 539 1151 507 1181 q 571 1078 571 1122 q 558 1026 571 1047 q 518 981 544 1006 q 482 936 490 953 q 464 928 475 924 l 442 933 m 140 803 q 130 808 132 803 q 132 819 128 813 l 222 963 q 239 972 229 972 l 322 972 q 339 963 332 972 l 432 819 q 435 811 435 814 q 424 803 435 803 l 363 803 q 346 813 353 803 l 286 914 q 282 917 285 917 q 278 914 279 917 l 217 813 q 200 803 210 803 l 140 803 z "},"ễ":{"ha":567,"x_min":69,"x_max":504,"o":"m 504 328 q 490 314 504 314 l 174 314 q 168 308 168 314 l 168 207 q 201 112 168 149 q 286 75 233 75 q 362 102 331 75 q 403 172 393 129 q 418 185 407 185 l 488 182 q 497 178 493 182 q 500 167 501 174 q 433 37 489 85 q 286 -11 376 -11 q 128 47 188 -11 q 69 201 69 106 l 69 501 q 128 655 69 596 q 286 714 188 714 q 445 655 386 714 q 504 501 504 596 l 504 328 m 286 628 q 201 591 233 628 q 168 494 168 554 l 168 401 q 174 396 168 396 l 401 396 q 407 401 407 396 l 407 494 q 374 591 407 554 q 286 628 340 628 z "},"ë":{"ha":567,"x_min":69,"x_max":504,"o":"m 504 328 q 490 314 504 314 l 174 314 q 168 308 168 314 l 168 207 q 201 112 168 149 q 286 75 233 75 q 362 102 331 75 q 403 172 393 129 q 418 185 407 185 l 488 182 q 497 178 493 182 q 500 167 501 174 q 433 37 489 85 q 286 -11 376 -11 q 128 47 188 -11 q 69 201 69 106 l 69 501 q 128 655 69 596 q 286 714 188 714 q 445 655 386 714 q 504 501 504 596 l 504 328 m 286 628 q 201 591 233 628 q 168 494 168 554 l 168 401 q 174 396 168 396 l 401 396 q 407 401 407 396 l 407 494 q 374 591 407 554 q 286 628 340 628 z "},"ė":{"ha":567,"x_min":69,"x_max":504,"o":"m 504 328 q 490 314 504 314 l 174 314 q 168 308 168 314 l 168 207 q 201 112 168 149 q 286 75 233 75 q 362 102 331 75 q 403 172 393 129 q 418 185 407 185 l 488 182 q 497 178 493 182 q 500 167 501 174 q 433 37 489 85 q 286 -11 376 -11 q 128 47 188 -11 q 69 201 69 106 l 69 501 q 128 655 69 596 q 286 714 188 714 q 445 655 386 714 q 504 501 504 596 l 504 328 m 286 628 q 201 591 233 628 q 168 494 168 554 l 168 401 q 174 396 168 396 l 401 396 q 407 401 407 396 l 407 494 q 374 591 407 554 q 286 628 340 628 m 285 831 q 228 853 250 831 q 207 908 207 875 q 228 965 207 943 q 285 986 250 986 q 340 965 318 986 q 363 908 363 943 q 340 853 363 875 q 285 831 318 831 z "},"ẹ":{"ha":567,"x_min":69,"x_max":504,"o":"m 504 328 q 490 314 504 314 l 174 314 q 168 308 168 314 l 168 207 q 201 112 168 149 q 286 75 233 75 q 362 102 331 75 q 403 172 393 129 q 418 185 407 185 l 488 182 q 497 178 493 182 q 500 167 501 174 q 433 37 489 85 q 286 -11 376 -11 q 128 47 188 -11 q 69 201 69 106 l 69 501 q 128 655 69 596 q 286 714 188 714 q 445 655 386 714 q 504 501 504 596 l 504 328 m 286 628 q 201 591 233 628 q 168 494 168 554 l 168 401 q 174 396 168 396 l 401 396 q 407 401 407 396 l 407 494 q 374 591 407 554 q 286 628 340 628 m 285 -265 q 232 -244 253 -265 q 211 -192 211 -224 q 232 -139 211 -160 q 285 -118 253 -118 q 338 -139 317 -118 q 358 -192 358 -160 q 338 -244 358 -224 q 285 -265 317 -265 z "},"è":{"ha":567,"x_min":69,"x_max":504,"o":"m 504 328 q 490 314 504 314 l 174 314 q 168 308 168 314 l 168 207 q 201 112 168 149 q 286 75 233 75 q 362 102 331 75 q 403 172 393 129 q 418 185 407 185 l 488 182 q 497 178 493 182 q 500 167 501 174 q 433 37 489 85 q 286 -11 376 -11 q 128 47 188 -11 q 69 201 69 106 l 69 501 q 128 655 69 596 q 286 714 188 714 q 445 655 386 714 q 504 501 504 596 l 504 328 m 286 628 q 201 591 233 628 q 168 494 168 554 l 168 401 q 174 396 168 396 l 401 396 q 407 401 407 396 l 407 494 q 374 591 407 554 q 286 628 340 628 m 313 811 q 315 803 315 806 q 303 794 315 794 l 258 794 q 242 804 249 794 l 144 956 q 142 964 142 961 q 153 972 142 972 l 211 972 q 228 963 221 972 l 313 811 z "},"ẻ":{"ha":567,"x_min":69,"x_max":504,"o":"m 504 328 q 490 314 504 314 l 174 314 q 168 308 168 314 l 168 207 q 201 112 168 149 q 286 75 233 75 q 362 102 331 75 q 403 172 393 129 q 418 185 407 185 l 488 182 q 497 178 493 182 q 500 167 501 174 q 433 37 489 85 q 286 -11 376 -11 q 128 47 188 -11 q 69 201 69 106 l 69 501 q 128 655 69 596 q 286 714 188 714 q 445 655 386 714 q 504 501 504 596 l 504 328 m 286 628 q 201 591 233 628 q 168 494 168 554 l 168 401 q 174 396 168 396 l 401 396 q 407 401 407 396 l 407 494 q 374 591 407 554 q 286 628 340 628 m 272 763 q 263 770 265 765 q 264 781 261 775 q 311 846 278 813 q 338 877 329 864 q 346 911 346 890 q 328 947 346 932 q 288 961 311 961 q 248 950 264 961 q 213 911 232 939 q 193 908 204 900 l 171 922 q 167 942 160 931 q 219 999 194 982 q 290 1017 244 1017 q 374 988 342 1017 q 406 911 406 958 q 393 860 406 881 q 354 813 381 840 q 315 765 325 786 q 297 757 310 756 l 272 763 z "},"ē":{"ha":567,"x_min":69,"x_max":504,"o":"m 504 328 q 490 314 504 314 l 174 314 q 168 308 168 314 l 168 207 q 201 112 168 149 q 286 75 233 75 q 362 102 331 75 q 403 172 393 129 q 418 185 407 185 l 488 182 q 497 178 493 182 q 500 167 501 174 q 433 37 489 85 q 286 -11 376 -11 q 128 47 188 -11 q 69 201 69 106 l 69 501 q 128 655 69 596 q 286 714 188 714 q 445 655 386 714 q 504 501 504 596 l 504 328 m 286 628 q 201 591 233 628 q 168 494 168 554 l 168 401 q 174 396 168 396 l 401 396 q 407 401 407 396 l 407 494 q 374 591 407 554 q 286 628 340 628 m 154 863 q 140 876 140 863 l 140 921 q 154 935 140 935 l 408 935 q 422 921 422 935 l 422 876 q 408 863 422 863 l 154 863 z "},"ę":{"ha":567,"x_min":69,"x_max":504,"o":"m 504 328 q 490 314 504 314 l 174 314 q 168 308 168 314 l 168 207 q 201 112 168 149 q 286 75 233 75 q 362 102 331 75 q 403 172 393 129 q 418 185 407 185 l 488 182 q 497 178 493 182 q 500 167 501 174 q 441 44 489 90 q 314 -10 393 -3 q 307 -12 310 -10 q 254 -122 254 -69 q 271 -173 254 -157 q 313 -189 288 -189 q 326 -187 322 -189 l 332 -186 q 343 -197 340 -186 l 347 -228 l 347 -232 q 338 -243 347 -242 q 296 -247 319 -247 q 227 -229 257 -247 q 188 -167 197 -211 q 185 -135 185 -144 q 235 -12 185 -67 q 232 -6 240 -7 q 113 65 157 10 q 69 201 69 119 l 69 501 q 128 655 69 596 q 286 714 188 714 q 445 655 386 714 q 504 501 504 596 l 504 328 m 286 628 q 201 591 233 628 q 168 494 168 554 l 168 401 q 174 396 168 396 l 401 396 q 407 401 407 396 l 407 494 q 374 591 407 554 q 286 628 340 628 z "},"ẽ":{"ha":567,"x_min":69,"x_max":504,"o":"m 504 328 q 490 314 504 314 l 174 314 q 168 308 168 314 l 168 207 q 201 112 168 149 q 286 75 233 75 q 362 102 331 75 q 403 172 393 129 q 418 185 407 185 l 488 182 q 497 178 493 182 q 500 167 501 174 q 433 37 489 85 q 286 -11 376 -11 q 128 47 188 -11 q 69 201 69 106 l 69 501 q 128 655 69 596 q 286 714 188 714 q 445 655 386 714 q 504 501 504 596 l 504 328 m 286 628 q 201 591 233 628 q 168 494 168 554 l 168 401 q 174 396 168 396 l 401 396 q 407 401 407 396 l 407 494 q 374 591 407 554 q 286 628 340 628 m 371 844 q 336 852 351 844 q 296 875 321 860 q 278 888 290 879 q 256 899 265 896 q 235 903 246 903 q 201 895 215 903 q 172 867 186 888 q 153 863 164 854 l 128 881 q 122 900 117 889 q 228 972 160 972 q 268 964 250 972 q 308 940 286 956 q 324 929 311 938 q 348 916 336 921 q 371 911 360 911 q 403 919 389 911 q 431 950 417 928 q 439 957 433 956 q 450 956 444 958 l 475 939 q 481 928 481 935 q 475 911 481 921 q 426 860 456 876 q 371 844 397 844 z "},"ə":{"ha":567,"x_min":61,"x_max":497,"o":"m 279 714 q 438 656 379 714 q 497 501 497 597 l 497 201 q 438 48 497 107 q 279 -11 378 -11 q 121 48 181 -11 q 61 201 61 107 l 61 375 q 75 389 61 389 l 393 389 q 399 394 399 389 l 399 494 q 365 591 399 554 q 279 628 332 628 q 204 601 235 628 q 163 531 174 574 q 147 518 158 518 l 78 521 q 67 525 71 521 q 65 536 64 529 q 133 666 76 618 q 279 714 189 714 m 279 75 q 365 112 332 75 q 399 208 399 149 l 399 301 q 393 307 399 307 l 165 307 q 160 301 160 307 l 160 208 q 193 112 160 149 q 279 75 226 75 z "},"ʒ":{"ha":610,"x_min":72,"x_max":553,"o":"m 251 347 q 250 342 249 344 q 254 340 251 340 q 477 243 401 328 q 553 32 553 158 q 505 -144 553 -72 q 378 -253 457 -217 q 211 -289 300 -289 q 83 -269 149 -289 q 72 -253 72 -265 l 75 -193 q 92 -182 75 -178 q 201 -199 138 -199 q 380 -143 306 -199 q 454 36 454 -87 q 399 195 454 132 q 214 258 343 258 q 140 253 193 258 l 138 253 q 124 263 129 253 l 107 308 q 106 315 106 311 q 111 328 106 322 l 378 606 q 375 613 382 613 l 103 613 q 89 626 89 613 l 89 689 q 103 703 89 703 l 492 703 q 506 689 506 703 l 506 622 q 499 606 506 613 l 251 347 z "},"ǯ":{"ha":610,"x_min":72,"x_max":553,"o":"m 251 347 q 250 342 249 344 q 254 340 251 340 q 477 243 401 328 q 553 32 553 158 q 505 -144 553 -72 q 378 -253 457 -217 q 211 -289 300 -289 q 83 -269 149 -289 q 72 -253 72 -265 l 75 -193 q 92 -182 75 -178 q 201 -199 138 -199 q 380 -143 306 -199 q 454 36 454 -87 q 399 195 454 132 q 214 258 343 258 q 140 253 193 258 l 138 253 q 124 263 129 253 l 107 308 q 106 315 106 311 q 111 328 106 322 l 378 606 q 375 613 382 613 l 103 613 q 89 626 89 613 l 89 689 q 103 703 89 703 l 492 703 q 506 689 506 703 l 506 622 q 499 606 506 613 l 251 347 z "},"f":{"ha":385,"x_min":39,"x_max":340,"o":"m 308 897 q 233 862 256 897 q 211 751 211 826 l 211 708 q 217 703 211 703 l 324 703 q 338 689 338 703 l 338 643 q 324 629 338 629 l 217 629 q 211 624 211 629 l 211 14 q 197 0 211 0 l 128 0 q 114 14 114 0 l 114 624 q 108 629 114 629 l 53 629 q 39 643 39 629 l 39 689 q 53 703 39 703 l 108 703 q 114 708 114 703 l 114 753 q 158 928 114 874 q 307 982 203 982 l 326 982 q 340 968 340 982 l 339 911 q 325 897 339 897 l 308 897 z "},"g":{"ha":574,"x_min":69,"x_max":503,"o":"m 404 689 q 418 703 404 703 l 489 703 q 503 689 503 703 l 503 14 q 434 -212 503 -135 q 204 -282 365 -289 q 190 -267 190 -281 l 190 -207 q 204 -193 190 -193 q 360 -142 315 -196 q 404 22 404 -89 l 404 64 q 402 68 404 67 q 397 67 400 69 q 337 14 374 32 q 258 -4 300 -4 q 120 54 171 -4 q 69 208 69 113 l 69 501 q 120 656 69 599 q 258 714 171 714 q 337 697 300 714 q 397 644 374 679 q 402 641 400 640 q 404 646 404 642 l 404 689 m 288 82 q 372 119 339 82 q 404 214 404 156 l 404 494 q 372 591 404 554 q 288 628 339 628 q 201 591 235 628 q 168 494 168 554 l 168 214 q 201 119 168 156 q 288 82 235 82 z "},"ğ":{"ha":574,"x_min":69,"x_max":503,"o":"m 404 689 q 418 703 404 703 l 489 703 q 503 689 503 703 l 503 14 q 434 -212 503 -135 q 204 -282 365 -289 q 190 -267 190 -281 l 190 -207 q 204 -193 190 -193 q 360 -142 315 -196 q 404 22 404 -89 l 404 64 q 402 68 404 67 q 397 67 400 69 q 337 14 374 32 q 258 -4 300 -4 q 120 54 171 -4 q 69 208 69 113 l 69 501 q 120 656 69 599 q 258 714 171 714 q 337 697 300 714 q 397 644 374 679 q 402 641 400 640 q 404 646 404 642 l 404 689 m 288 82 q 372 119 339 82 q 404 214 404 156 l 404 494 q 372 591 404 554 q 288 628 339 628 q 201 591 235 628 q 168 494 168 554 l 168 214 q 201 119 168 156 q 288 82 235 82 m 288 775 q 188 813 228 775 q 142 907 147 850 q 156 921 142 921 l 188 921 q 203 907 201 921 q 231 850 207 872 q 288 828 254 828 q 344 850 321 828 q 372 907 368 872 q 388 921 374 921 l 419 921 q 433 907 433 921 q 388 812 428 849 q 288 775 347 775 z "},"ǧ":{"ha":574,"x_min":69,"x_max":503,"o":"m 404 689 q 418 703 404 703 l 489 703 q 503 689 503 703 l 503 14 q 434 -212 503 -135 q 204 -282 365 -289 q 190 -267 190 -281 l 190 -207 q 204 -193 190 -193 q 360 -142 315 -196 q 404 22 404 -89 l 404 64 q 402 68 404 67 q 397 67 400 69 q 337 14 374 32 q 258 -4 300 -4 q 120 54 171 -4 q 69 208 69 113 l 69 501 q 120 656 69 599 q 258 714 171 714 q 337 697 300 714 q 397 644 374 679 q 402 641 400 640 q 404 646 404 642 l 404 689 m 288 82 q 372 119 339 82 q 404 214 404 156 l 404 494 q 372 591 404 554 q 288 628 339 628 q 201 591 235 628 q 168 494 168 554 l 168 214 q 201 119 168 156 q 288 82 235 82 z "},"ĝ":{"ha":574,"x_min":69,"x_max":503,"o":"m 404 689 q 418 703 404 703 l 489 703 q 503 689 503 703 l 503 14 q 434 -212 503 -135 q 204 -282 365 -289 q 190 -267 190 -281 l 190 -207 q 204 -193 190 -193 q 360 -142 315 -196 q 404 22 404 -89 l 404 64 q 402 68 404 67 q 397 67 400 69 q 337 14 374 32 q 258 -4 300 -4 q 120 54 171 -4 q 69 208 69 113 l 69 501 q 120 656 69 599 q 258 714 171 714 q 337 697 300 714 q 397 644 374 679 q 402 641 400 640 q 404 646 404 642 l 404 689 m 288 82 q 372 119 339 82 q 404 214 404 156 l 404 494 q 372 591 404 554 q 288 628 339 628 q 201 591 235 628 q 168 494 168 554 l 168 214 q 201 119 168 156 q 288 82 235 82 m 146 803 q 135 808 138 803 q 138 819 133 813 l 228 963 q 244 972 235 972 l 328 972 q 344 963 338 972 l 438 819 q 440 811 440 814 q 429 803 440 803 l 368 803 q 351 813 358 803 l 292 914 q 288 917 290 917 q 283 914 285 917 l 222 813 q 206 803 215 803 l 146 803 z "},"ġ":{"ha":574,"x_min":69,"x_max":503,"o":"m 404 689 q 418 703 404 703 l 489 703 q 503 689 503 703 l 503 14 q 434 -212 503 -135 q 204 -282 365 -289 q 190 -267 190 -281 l 190 -207 q 204 -193 190 -193 q 360 -142 315 -196 q 404 22 404 -89 l 404 64 q 402 68 404 67 q 397 67 400 69 q 337 14 374 32 q 258 -4 300 -4 q 120 54 171 -4 q 69 208 69 113 l 69 501 q 120 656 69 599 q 258 714 171 714 q 337 697 300 714 q 397 644 374 679 q 402 641 400 640 q 404 646 404 642 l 404 689 m 288 82 q 372 119 339 82 q 404 214 404 156 l 404 494 q 372 591 404 554 q 288 628 339 628 q 201 591 235 628 q 168 494 168 554 l 168 214 q 201 119 168 156 q 288 82 235 82 m 289 831 q 233 853 254 831 q 211 908 211 875 q 233 965 211 943 q 289 986 254 986 q 344 965 322 986 q 367 908 367 943 q 344 853 367 875 q 289 831 322 831 z "},"ǥ":{"ha":585,"x_min":69,"x_max":581,"o":"m 567 382 q 581 368 581 382 l 581 329 q 567 315 581 315 l 508 315 q 503 310 503 315 l 503 14 q 434 -212 503 -135 q 204 -282 365 -289 q 190 -267 190 -281 l 190 -207 q 204 -193 190 -193 q 360 -142 315 -196 q 404 22 404 -89 l 404 64 q 402 68 404 67 q 397 67 400 69 q 337 14 374 32 q 258 -4 300 -4 q 120 54 171 -4 q 69 208 69 113 l 69 501 q 120 656 69 599 q 258 714 171 714 q 337 697 300 714 q 397 644 374 679 q 402 641 400 640 q 404 646 404 642 l 404 689 q 418 703 404 703 l 489 703 q 503 689 503 703 l 503 388 q 508 382 503 382 l 567 382 m 288 82 q 372 119 339 82 q 404 214 404 156 l 404 310 q 399 315 404 315 l 286 315 q 272 329 272 315 l 272 368 q 286 382 272 382 l 399 382 q 404 388 404 382 l 404 494 q 372 591 404 554 q 288 628 339 628 q 201 591 235 628 q 168 494 168 554 l 168 214 q 201 119 168 156 q 288 82 235 82 z "},"h":{"ha":589,"x_min":85,"x_max":513,"o":"m 335 713 q 466 654 419 713 q 513 492 513 596 l 513 14 q 499 0 513 0 l 428 0 q 414 14 414 0 l 414 483 q 384 589 414 551 q 301 626 354 626 q 215 586 246 626 q 183 476 183 546 l 183 14 q 169 0 183 0 l 99 0 q 85 14 85 0 l 85 958 q 99 972 85 972 l 169 972 q 183 958 183 972 l 183 644 q 186 640 183 642 q 190 643 189 639 q 253 695 215 678 q 335 713 292 713 z "},"ħ":{"ha":589,"x_min":10,"x_max":513,"o":"m 335 713 q 466 654 419 713 q 513 492 513 596 l 513 14 q 499 0 513 0 l 428 0 q 414 14 414 0 l 414 483 q 384 589 414 551 q 301 626 354 626 q 215 586 246 626 q 183 476 183 546 l 183 14 q 169 0 183 0 l 99 0 q 85 14 85 0 l 85 764 q 79 769 85 769 l 24 769 q 10 783 10 769 l 10 821 q 24 835 10 835 l 79 835 q 85 840 85 835 l 85 958 q 99 972 85 972 l 169 972 q 183 958 183 972 l 183 840 q 189 835 183 835 l 365 835 q 379 821 379 835 l 379 783 q 365 769 379 769 l 189 769 q 183 764 183 769 l 183 644 q 186 640 183 642 q 190 643 189 639 q 253 695 215 678 q 335 713 292 713 z "},"ȟ":{"ha":589,"x_min":85,"x_max":513,"o":"m 335 713 q 466 654 419 713 q 513 492 513 596 l 513 14 q 499 0 513 0 l 428 0 q 414 14 414 0 l 414 483 q 384 589 414 551 q 301 626 354 626 q 215 586 246 626 q 183 476 183 546 l 183 14 q 169 0 183 0 l 99 0 q 85 14 85 0 l 85 958 q 99 972 85 972 l 169 972 q 183 958 183 972 l 183 644 q 186 640 183 642 q 190 643 189 639 q 253 695 215 678 q 335 713 292 713 z "},"ĥ":{"ha":589,"x_min":85,"x_max":513,"o":"m 335 713 q 466 654 419 713 q 513 492 513 596 l 513 14 q 499 0 513 0 l 428 0 q 414 14 414 0 l 414 483 q 384 589 414 551 q 301 626 354 626 q 215 586 246 626 q 183 476 183 546 l 183 14 q 169 0 183 0 l 99 0 q 85 14 85 0 l 85 958 q 99 972 85 972 l 169 972 q 183 958 183 972 l 183 644 q 186 640 183 642 q 190 643 189 639 q 253 695 215 678 q 335 713 292 713 m 161 1042 q 151 1047 153 1042 q 153 1058 149 1051 l 243 1201 q 260 1211 250 1211 l 343 1211 q 360 1201 353 1211 l 453 1058 q 456 1050 456 1053 q 444 1042 456 1042 l 383 1042 q 367 1051 374 1042 l 307 1153 q 303 1156 306 1156 q 299 1153 300 1156 l 238 1051 q 221 1042 231 1042 l 161 1042 z "},"i":{"ha":289,"x_min":67,"x_max":221,"o":"m 144 831 q 88 853 110 831 q 67 908 67 875 q 88 965 67 943 q 144 986 110 986 q 199 965 178 986 q 221 908 221 943 q 199 853 221 875 q 144 831 178 831 m 110 0 q 96 14 96 0 l 96 689 q 110 703 96 703 l 181 703 q 194 689 194 703 l 194 14 q 181 0 194 0 l 110 0 z "},"ı":{"ha":235,"x_min":68,"x_max":167,"o":"m 82 0 q 68 14 68 0 l 68 689 q 82 703 68 703 l 153 703 q 167 689 167 703 l 167 14 q 153 0 167 0 l 82 0 z "},"í":{"ha":235,"x_min":56,"x_max":232,"o":"m 82 0 q 68 14 68 0 l 68 689 q 82 703 68 703 l 153 703 q 167 689 167 703 l 167 14 q 153 0 167 0 l 82 0 m 69 794 q 58 799 61 794 q 60 811 56 804 l 146 963 q 163 972 153 972 l 219 972 q 230 967 228 972 q 228 956 232 963 l 131 804 q 114 794 124 794 l 69 794 z "},"ĭ":{"ha":235,"x_min":-29,"x_max":263,"o":"m 82 0 q 68 14 68 0 l 68 689 q 82 703 68 703 l 153 703 q 167 689 167 703 l 167 14 q 153 0 167 0 l 82 0 m 117 806 q 17 843 57 806 q -29 938 -24 881 q -15 951 -29 951 l 17 951 q 32 938 31 951 q 60 879 36 901 q 117 857 83 857 q 174 879 150 857 q 201 938 197 901 q 217 951 203 951 l 249 951 q 263 938 263 951 q 217 843 257 881 q 117 806 176 806 z "},"î":{"ha":235,"x_min":-37,"x_max":269,"o":"m 82 0 q 68 14 68 0 l 68 689 q 82 703 68 703 l 153 703 q 167 689 167 703 l 167 14 q 153 0 167 0 l 82 0 m -25 803 q -35 808 -33 803 q -33 819 -37 813 l 57 963 q 74 972 64 972 l 157 972 q 174 963 167 972 l 267 819 q 269 811 269 814 q 258 803 269 803 l 197 803 q 181 813 188 803 l 121 914 q 117 917 119 917 q 113 914 114 917 l 51 813 q 35 803 44 803 l -25 803 z "},"ï":{"ha":235,"x_min":-64,"x_max":299,"o":"m 82 0 q 68 14 68 0 l 68 689 q 82 703 68 703 l 153 703 q 167 689 167 703 l 167 14 q 153 0 167 0 l 82 0 z "},"ị":{"ha":289,"x_min":67,"x_max":221,"o":"m 144 831 q 88 853 110 831 q 67 908 67 875 q 88 965 67 943 q 144 986 110 986 q 199 965 178 986 q 221 908 221 943 q 199 853 221 875 q 144 831 178 831 m 110 0 q 96 14 96 0 l 96 689 q 110 703 96 703 l 181 703 q 194 689 194 703 l 194 14 q 181 0 194 0 l 110 0 m 144 -265 q 92 -244 113 -265 q 71 -192 71 -224 q 92 -139 71 -160 q 144 -118 113 -118 q 197 -139 176 -118 q 218 -192 218 -160 q 197 -244 218 -224 q 144 -265 176 -265 z "},"ì":{"ha":235,"x_min":-24,"x_max":167,"o":"m 82 0 q 68 14 68 0 l 68 689 q 82 703 68 703 l 153 703 q 167 689 167 703 l 167 14 q 153 0 167 0 l 82 0 m 147 811 q 150 803 150 806 q 138 794 150 794 l 93 794 q 76 804 83 794 l -21 956 q -24 964 -24 961 q -12 972 -24 972 l 46 972 q 63 963 56 972 l 147 811 z "},"ỉ":{"ha":235,"x_min":-7,"x_max":239,"o":"m 82 0 q 68 14 68 0 l 68 689 q 82 703 68 703 l 153 703 q 167 689 167 703 l 167 14 q 153 0 167 0 l 82 0 m 106 763 q 97 770 99 765 q 97 781 94 775 q 144 846 111 813 q 171 877 163 864 q 179 911 179 890 q 162 947 179 932 q 121 961 144 961 q 81 950 97 961 q 46 911 65 939 q 26 908 38 900 l 4 922 q 0 942 -7 931 q 53 999 28 982 q 124 1017 78 1017 q 207 988 175 1017 q 239 911 239 958 q 226 860 239 881 q 188 813 214 840 q 149 765 158 786 q 131 757 143 756 l 106 763 z "},"ĳ":{"ha":568,"x_min":67,"x_max":501,"o":"m 144 831 q 88 853 110 831 q 67 908 67 875 q 88 965 67 943 q 144 986 110 986 q 199 965 178 986 q 221 908 221 943 q 199 853 221 875 q 144 831 178 831 m 110 0 q 96 14 96 0 l 96 689 q 110 703 96 703 l 181 703 q 194 689 194 703 l 194 14 q 181 0 194 0 l 110 0 m 424 831 q 368 853 390 831 q 346 908 346 875 q 368 965 346 943 q 424 986 390 986 q 480 965 458 986 q 501 908 501 943 q 479 853 501 875 q 424 831 457 831 m 263 -289 q 249 -275 249 -289 l 249 -217 q 263 -203 249 -203 q 375 -61 375 -199 l 375 689 q 389 703 375 703 l 460 703 q 474 689 474 703 l 474 -61 q 429 -232 474 -175 q 263 -289 385 -289 z "},"ī":{"ha":235,"x_min":-25,"x_max":257,"o":"m 82 0 q 68 14 68 0 l 68 689 q 82 703 68 703 l 153 703 q 167 689 167 703 l 167 14 q 153 0 167 0 l 82 0 m -11 826 q -25 840 -25 826 l -25 885 q -11 899 -25 899 l 243 899 q 257 885 257 899 l 257 840 q 243 826 257 826 l -11 826 z "},"į":{"ha":311,"x_min":74,"x_max":246,"o":"m 132 0 q 118 14 118 0 l 118 689 q 132 703 118 703 l 203 703 q 217 689 217 703 l 217 14 q 203 0 217 0 l 132 0 m 168 831 q 112 853 133 831 q 90 908 90 875 q 112 965 90 943 q 168 986 133 986 q 224 965 201 986 q 246 908 246 943 q 224 853 246 875 q 168 831 201 831 m 235 -240 q 225 -253 235 -249 q 185 -257 207 -257 q 106 -231 138 -257 q 74 -143 74 -206 q 135 -10 74 -67 l 140 -4 q 154 0 146 0 l 193 0 q 205 -5 203 0 q 200 -17 207 -10 q 155 -81 171 -47 q 143 -147 139 -115 q 163 -186 149 -174 q 199 -199 178 -199 q 214 -197 208 -199 l 219 -196 q 231 -207 228 -196 l 235 -236 l 235 -240 z "},"ĩ":{"ha":235,"x_min":-50,"x_max":314,"o":"m 82 0 q 68 14 68 0 l 68 689 q 82 703 68 703 l 153 703 q 167 689 167 703 l 167 14 q 153 0 167 0 l 82 0 m 204 844 q 169 852 185 844 q 129 875 154 860 q 111 888 124 879 q 89 899 99 896 q 68 903 79 903 q 34 895 49 903 q 6 867 19 888 q -14 863 -3 854 l -39 881 q -44 900 -50 889 q 61 972 -7 972 q 101 964 83 972 q 142 940 119 956 q 157 929 144 938 q 181 916 169 921 q 204 911 193 911 q 236 919 222 911 q 264 950 250 928 q 272 957 267 956 q 283 956 278 958 l 308 939 q 314 928 314 935 q 308 911 314 921 q 260 860 289 876 q 204 844 231 844 z "},"j":{"ha":278,"x_min":-42,"x_max":211,"o":"m 133 831 q 78 853 100 831 q 56 908 56 875 q 78 965 56 943 q 133 986 100 986 q 190 965 168 986 q 211 908 211 943 q 189 853 211 875 q 133 831 167 831 m -28 -289 q -42 -275 -42 -289 l -42 -217 q -28 -203 -42 -203 q 85 -61 85 -199 l 85 689 q 99 703 85 703 l 169 703 q 183 689 183 703 l 183 -61 q 139 -232 183 -175 q -28 -289 94 -289 z "},"ȷ":{"ha":275,"x_min":-42,"x_max":183,"o":"m -28 -289 q -42 -275 -42 -289 l -42 -217 q -28 -203 -42 -203 q 85 -61 85 -199 l 85 689 q 99 703 85 703 l 169 703 q 183 689 183 703 l 183 -61 q 139 -232 183 -175 q -28 -289 94 -289 z "},"ĵ":{"ha":275,"x_min":-42,"x_max":286,"o":"m -28 -289 q -42 -275 -42 -289 l -42 -217 q -28 -203 -42 -203 q 85 -61 85 -199 l 85 689 q 99 703 85 703 l 169 703 q 183 689 183 703 l 183 -61 q 139 -232 183 -175 q -28 -289 94 -289 m -8 803 q -19 808 -17 803 q -17 819 -21 813 l 74 963 q 90 972 81 972 l 174 972 q 190 963 183 972 l 283 819 q 286 811 286 814 q 275 803 286 803 l 214 803 q 197 813 204 803 l 138 914 q 133 917 136 917 q 129 914 131 917 l 68 813 q 51 803 61 803 l -8 803 z "},"k":{"ha":563,"x_min":85,"x_max":522,"o":"m 99 0 q 85 14 85 0 l 85 958 q 99 972 85 972 l 169 972 q 183 958 183 972 l 183 400 q 186 396 183 397 q 190 397 189 394 l 399 694 q 415 703 404 703 l 488 703 q 499 698 496 703 q 496 686 501 693 l 358 489 q 357 481 354 485 l 521 15 l 522 10 q 510 0 522 0 l 436 0 q 419 11 424 0 l 296 397 q 288 399 294 406 l 186 254 q 183 247 183 251 l 183 14 q 169 0 183 0 l 99 0 z "},"ǩ":{"ha":563,"x_min":85,"x_max":522,"o":"m 99 0 q 85 14 85 0 l 85 958 q 99 972 85 972 l 169 972 q 183 958 183 972 l 183 400 q 186 396 183 397 q 190 397 189 394 l 399 694 q 415 703 404 703 l 488 703 q 499 698 496 703 q 496 686 501 693 l 358 489 q 357 481 354 485 l 521 15 l 522 10 q 510 0 522 0 l 436 0 q 419 11 424 0 l 296 397 q 288 399 294 406 l 186 254 q 183 247 183 251 l 183 14 q 169 0 183 0 l 99 0 z "},"l":{"ha":251,"x_min":76,"x_max":175,"o":"m 90 0 q 76 14 76 0 l 76 958 q 90 972 76 972 l 161 972 q 175 958 175 972 l 175 14 q 161 0 175 0 l 90 0 z "},"ĺ":{"ha":251,"x_min":65,"x_max":242,"o":"m 90 0 q 76 14 76 0 l 76 958 q 90 972 76 972 l 161 972 q 175 958 175 972 l 175 14 q 161 0 175 0 l 90 0 m 79 1064 q 68 1069 71 1064 q 69 1081 65 1074 l 156 1232 q 172 1242 163 1242 l 229 1242 q 240 1237 238 1242 q 238 1225 242 1232 l 140 1074 q 124 1064 133 1064 l 79 1064 z "},"ľ":{"ha":460,"x_min":76,"x_max":406,"o":"m 90 0 q 76 14 76 0 l 76 958 q 90 972 76 972 l 161 972 q 175 958 175 972 l 175 14 q 161 0 175 0 l 90 0 z "},"ļ":{"ha":251,"x_min":-21,"x_max":175,"o":"m 90 0 q 76 14 76 0 l 76 958 q 90 972 76 972 l 161 972 q 175 958 175 972 l 175 14 q 161 0 175 0 l 90 0 z "},"ŀ":{"ha":310,"x_min":78,"x_max":233,"o":"m 118 0 q 104 14 104 0 l 104 958 q 118 972 104 972 l 189 972 q 203 958 203 972 l 203 14 q 189 0 203 0 l 118 0 z "},"ł":{"ha":406,"x_min":28,"x_max":376,"o":"m 375 544 q 376 538 376 542 q 369 525 376 529 l 249 454 q 244 447 244 453 l 244 14 q 231 0 244 0 l 160 0 q 146 14 146 0 l 146 386 q 144 390 146 389 q 139 390 142 392 l 72 351 q 65 350 69 350 q 53 357 57 350 l 31 399 q 28 407 28 404 q 35 418 28 414 l 142 481 q 146 488 146 483 l 146 958 q 160 972 146 972 l 231 972 q 244 958 244 972 l 244 549 q 247 544 244 546 q 251 544 249 543 l 331 592 q 339 594 336 594 q 350 586 346 594 l 375 544 z "},"m":{"ha":900,"x_min":85,"x_max":822,"o":"m 647 713 q 776 651 731 713 q 822 482 822 590 l 822 14 q 808 0 822 0 l 739 0 q 725 14 725 0 l 725 474 q 695 585 725 544 q 617 626 665 626 q 533 586 564 626 q 503 476 503 546 l 503 14 q 489 0 503 0 l 418 0 q 404 14 404 0 l 404 474 q 374 585 404 544 q 297 626 344 626 q 213 586 244 626 q 182 476 182 546 l 182 14 q 168 0 182 0 l 99 0 q 85 14 85 0 l 85 689 q 99 703 85 703 l 168 703 q 182 689 182 703 l 182 646 q 184 642 182 643 q 189 644 186 642 q 251 696 215 679 q 328 713 288 713 q 419 687 381 713 q 479 614 458 661 q 483 611 481 611 q 488 615 486 611 q 556 689 513 665 q 647 713 599 713 z "},"n":{"ha":589,"x_min":85,"x_max":513,"o":"m 335 713 q 466 654 419 713 q 513 492 513 596 l 513 14 q 499 0 513 0 l 428 0 q 414 14 414 0 l 414 483 q 384 589 414 551 q 301 626 354 626 q 215 586 246 626 q 183 476 183 546 l 183 14 q 169 0 183 0 l 99 0 q 85 14 85 0 l 85 689 q 99 703 85 703 l 169 703 q 183 689 183 703 l 183 644 q 186 640 183 642 q 190 643 189 639 q 253 695 215 678 q 335 713 292 713 z "},"ń":{"ha":589,"x_min":85,"x_max":513,"o":"m 335 713 q 466 654 419 713 q 513 492 513 596 l 513 14 q 499 0 513 0 l 428 0 q 414 14 414 0 l 414 483 q 384 589 414 551 q 301 626 354 626 q 215 586 246 626 q 183 476 183 546 l 183 14 q 169 0 183 0 l 99 0 q 85 14 85 0 l 85 689 q 99 703 85 703 l 169 703 q 183 689 183 703 l 183 644 q 186 640 183 642 q 190 643 189 639 q 253 695 215 678 q 335 713 292 713 m 253 794 q 242 799 244 794 q 243 811 239 804 l 329 963 q 346 972 336 972 l 403 972 q 413 967 411 972 q 411 956 415 963 l 314 804 q 297 794 307 794 l 253 794 z "},"ň":{"ha":589,"x_min":85,"x_max":513,"o":"m 335 713 q 466 654 419 713 q 513 492 513 596 l 513 14 q 499 0 513 0 l 428 0 q 414 14 414 0 l 414 483 q 384 589 414 551 q 301 626 354 626 q 215 586 246 626 q 183 476 183 546 l 183 14 q 169 0 183 0 l 99 0 q 85 14 85 0 l 85 689 q 99 703 85 703 l 169 703 q 183 689 183 703 l 183 644 q 186 640 183 642 q 190 643 189 639 q 253 695 215 678 q 335 713 292 713 m 153 956 q 150 964 150 961 q 161 972 150 972 l 221 972 q 238 963 231 972 l 299 861 q 303 860 300 860 q 307 861 306 860 l 367 963 q 383 972 374 972 l 444 972 q 455 967 453 972 q 453 956 457 963 l 360 813 q 343 803 353 803 l 260 803 q 243 813 250 803 l 153 956 z "},"ŋ":{"ha":589,"x_min":85,"x_max":513,"o":"m 335 713 q 466 654 419 713 q 513 492 513 596 l 513 -11 q 499 -128 513 -82 q 444 -201 486 -174 q 319 -231 401 -229 q 306 -217 306 -231 l 306 -160 q 319 -146 306 -146 q 394 -109 374 -143 q 414 -11 414 -75 l 414 483 q 384 589 414 551 q 301 626 354 626 q 215 586 246 626 q 183 476 183 546 l 183 14 q 169 0 183 0 l 99 0 q 85 14 85 0 l 85 689 q 99 703 85 703 l 169 703 q 183 689 183 703 l 183 644 q 186 640 183 642 q 190 643 189 639 q 253 695 215 678 q 335 713 292 713 z "},"ñ":{"ha":589,"x_min":85,"x_max":513,"o":"m 256 903 q 226 895 239 903 q 201 868 214 888 q 182 864 193 856 l 161 881 q 156 899 151 888 q 249 972 189 972 q 284 964 268 972 q 319 940 300 956 q 334 928 324 938 q 355 915 344 919 q 375 911 365 911 q 403 919 390 911 q 426 949 415 928 q 435 957 429 956 q 446 954 440 958 l 467 939 q 472 921 476 933 q 427 863 454 881 q 374 844 400 844 q 344 851 357 844 q 308 875 331 858 q 292 888 303 879 q 274 899 282 896 q 256 903 265 903 m 335 713 q 466 654 419 713 q 513 492 513 596 l 513 14 q 499 0 513 0 l 428 0 q 414 14 414 0 l 414 483 q 384 589 414 551 q 301 626 354 626 q 215 586 246 626 q 183 476 183 546 l 183 14 q 169 0 183 0 l 99 0 q 85 14 85 0 l 85 689 q 99 703 85 703 l 169 703 q 183 689 183 703 l 183 644 q 186 640 183 642 q 190 643 189 639 q 253 695 215 678 q 335 713 292 713 z "},"o":{"ha":576,"x_min":69,"x_max":507,"o":"m 288 -11 q 128 47 188 -11 q 69 201 69 106 l 69 500 q 129 654 69 594 q 288 714 189 714 q 447 654 388 714 q 507 500 507 594 l 507 201 q 447 47 507 106 q 288 -11 388 -11 m 288 76 q 374 113 340 76 q 408 208 408 149 l 408 494 q 374 591 408 554 q 288 628 340 628 q 201 591 235 628 q 168 494 168 554 l 168 208 q 201 113 168 149 q 288 76 235 76 z "},"ó":{"ha":575,"x_min":69,"x_max":507,"o":"m 288 -11 q 128 47 188 -11 q 69 201 69 106 l 69 500 q 129 654 69 594 q 288 714 189 714 q 447 654 388 714 q 507 500 507 594 l 507 201 q 447 47 507 106 q 288 -11 388 -11 m 288 76 q 374 113 340 76 q 408 208 408 149 l 408 494 q 374 591 408 554 q 288 628 340 628 q 201 591 235 628 q 168 494 168 554 l 168 208 q 201 113 168 149 q 288 76 235 76 m 240 794 q 229 799 232 794 q 231 811 226 804 l 317 963 q 333 972 324 972 l 390 972 q 401 967 399 972 q 399 956 403 963 l 301 804 q 285 794 294 794 l 240 794 z "},"ŏ":{"ha":575,"x_min":69,"x_max":507,"o":"m 288 -11 q 128 47 188 -11 q 69 201 69 106 l 69 500 q 129 654 69 594 q 288 714 189 714 q 447 654 388 714 q 507 500 507 594 l 507 201 q 447 47 507 106 q 288 -11 388 -11 m 288 76 q 374 113 340 76 q 408 208 408 149 l 408 494 q 374 591 408 554 q 288 628 340 628 q 201 591 235 628 q 168 494 168 554 l 168 208 q 201 113 168 149 q 288 76 235 76 m 288 806 q 188 843 228 806 q 142 938 147 881 q 156 951 142 951 l 188 951 q 203 938 201 951 q 231 879 207 901 q 288 857 254 857 q 344 879 321 857 q 372 938 368 901 q 388 951 374 951 l 419 951 q 433 938 433 951 q 388 843 428 881 q 288 806 347 806 z "},"ô":{"ha":575,"x_min":69,"x_max":507,"o":"m 288 -11 q 128 47 188 -11 q 69 201 69 106 l 69 500 q 129 654 69 594 q 288 714 189 714 q 447 654 388 714 q 507 500 507 594 l 507 201 q 447 47 507 106 q 288 -11 388 -11 m 288 76 q 374 113 340 76 q 408 208 408 149 l 408 494 q 374 591 408 554 q 288 628 340 628 q 201 591 235 628 q 168 494 168 554 l 168 208 q 201 113 168 149 q 288 76 235 76 m 146 803 q 135 808 138 803 q 138 819 133 813 l 228 963 q 244 972 235 972 l 328 972 q 344 963 338 972 l 438 819 q 440 811 440 814 q 429 803 440 803 l 368 803 q 351 813 358 803 l 292 914 q 288 917 290 917 q 283 914 285 917 l 222 813 q 206 803 215 803 l 146 803 z "},"ố":{"ha":575,"x_min":69,"x_max":614,"o":"m 288 -11 q 128 47 188 -11 q 69 201 69 106 l 69 500 q 129 654 69 594 q 288 714 189 714 q 447 654 388 714 q 507 500 507 594 l 507 201 q 447 47 507 106 q 288 -11 388 -11 m 288 76 q 374 113 340 76 q 408 208 408 149 l 408 494 q 374 591 408 554 q 288 628 340 628 q 201 591 235 628 q 168 494 168 554 l 168 208 q 201 113 168 149 q 288 76 235 76 z "},"ộ":{"ha":575,"x_min":69,"x_max":507,"o":"m 288 -11 q 128 47 188 -11 q 69 201 69 106 l 69 500 q 129 654 69 594 q 288 714 189 714 q 447 654 388 714 q 507 500 507 594 l 507 201 q 447 47 507 106 q 288 -11 388 -11 m 288 76 q 374 113 340 76 q 408 208 408 149 l 408 494 q 374 591 408 554 q 288 628 340 628 q 201 591 235 628 q 168 494 168 554 l 168 208 q 201 113 168 149 q 288 76 235 76 m 289 -265 q 236 -244 257 -265 q 215 -192 215 -224 q 236 -139 215 -160 q 289 -118 257 -118 q 342 -139 321 -118 q 363 -192 363 -160 q 342 -244 363 -224 q 289 -265 321 -265 m 146 803 q 135 808 138 803 q 138 819 133 813 l 228 963 q 244 972 235 972 l 328 972 q 344 963 338 972 l 438 819 q 440 811 440 814 q 429 803 440 803 l 368 803 q 351 813 358 803 l 292 914 q 288 917 290 917 q 283 914 285 917 l 222 813 q 206 803 215 803 l 146 803 z "},"ồ":{"ha":575,"x_min":69,"x_max":515,"o":"m 288 -11 q 128 47 188 -11 q 69 201 69 106 l 69 500 q 129 654 69 594 q 288 714 189 714 q 447 654 388 714 q 507 500 507 594 l 507 201 q 447 47 507 106 q 288 -11 388 -11 m 288 76 q 374 113 340 76 q 408 208 408 149 l 408 494 q 374 591 408 554 q 288 628 340 628 q 201 591 235 628 q 168 494 168 554 l 168 208 q 201 113 168 149 q 288 76 235 76 z "},"ổ":{"ha":575,"x_min":69,"x_max":575,"o":"m 288 -11 q 128 47 188 -11 q 69 201 69 106 l 69 500 q 129 654 69 594 q 288 714 189 714 q 447 654 388 714 q 507 500 507 594 l 507 201 q 447 47 507 106 q 288 -11 388 -11 m 288 76 q 374 113 340 76 q 408 208 408 149 l 408 494 q 374 591 408 554 q 288 628 340 628 q 201 591 235 628 q 168 494 168 554 l 168 208 q 201 113 168 149 q 288 76 235 76 m 446 933 q 436 950 431 938 q 482 1014 449 981 q 508 1044 500 1032 q 515 1078 515 1057 q 499 1111 515 1097 q 460 1125 483 1125 q 421 1115 436 1125 q 386 1078 406 1106 q 367 1075 378 1067 l 346 1089 q 342 1108 335 1097 q 393 1164 368 1147 q 461 1181 418 1181 q 543 1151 511 1181 q 575 1078 575 1122 q 562 1026 575 1047 q 522 981 549 1006 q 486 936 494 953 q 468 928 479 924 l 446 933 m 144 803 q 134 808 136 803 q 136 819 132 813 l 226 963 q 243 972 233 972 l 326 972 q 343 963 336 972 l 436 819 q 439 811 439 814 q 428 803 439 803 l 367 803 q 350 813 357 803 l 290 914 q 286 917 289 917 q 282 914 283 917 l 221 813 q 204 803 214 803 l 144 803 z "},"ỗ":{"ha":575,"x_min":69,"x_max":507,"o":"m 288 -11 q 128 47 188 -11 q 69 201 69 106 l 69 500 q 129 654 69 594 q 288 714 189 714 q 447 654 388 714 q 507 500 507 594 l 507 201 q 447 47 507 106 q 288 -11 388 -11 m 288 76 q 374 113 340 76 q 408 208 408 149 l 408 494 q 374 591 408 554 q 288 628 340 628 q 201 591 235 628 q 168 494 168 554 l 168 208 q 201 113 168 149 q 288 76 235 76 z "},"ö":{"ha":575,"x_min":69,"x_max":507,"o":"m 288 -11 q 128 47 188 -11 q 69 201 69 106 l 69 500 q 129 654 69 594 q 288 714 189 714 q 447 654 388 714 q 507 500 507 594 l 507 201 q 447 47 507 106 q 288 -11 388 -11 m 288 76 q 374 113 340 76 q 408 208 408 149 l 408 494 q 374 591 408 554 q 288 628 340 628 q 201 591 235 628 q 168 494 168 554 l 168 208 q 201 113 168 149 q 288 76 235 76 z "},"ọ":{"ha":575,"x_min":69,"x_max":507,"o":"m 288 -11 q 128 47 188 -11 q 69 201 69 106 l 69 500 q 129 654 69 594 q 288 714 189 714 q 447 654 388 714 q 507 500 507 594 l 507 201 q 447 47 507 106 q 288 -11 388 -11 m 288 76 q 374 113 340 76 q 408 208 408 149 l 408 494 q 374 591 408 554 q 288 628 340 628 q 201 591 235 628 q 168 494 168 554 l 168 208 q 201 113 168 149 q 288 76 235 76 m 289 -265 q 236 -244 257 -265 q 215 -192 215 -224 q 236 -139 215 -160 q 289 -118 257 -118 q 342 -139 321 -118 q 363 -192 363 -160 q 342 -244 363 -224 q 289 -265 321 -265 z "},"ò":{"ha":575,"x_min":69,"x_max":507,"o":"m 288 -11 q 128 47 188 -11 q 69 201 69 106 l 69 500 q 129 654 69 594 q 288 714 189 714 q 447 654 388 714 q 507 500 507 594 l 507 201 q 447 47 507 106 q 288 -11 388 -11 m 288 76 q 374 113 340 76 q 408 208 408 149 l 408 494 q 374 591 408 554 q 288 628 340 628 q 201 591 235 628 q 168 494 168 554 l 168 208 q 201 113 168 149 q 288 76 235 76 m 317 811 q 319 803 319 806 q 307 794 319 794 l 263 794 q 246 804 253 794 l 149 956 q 146 964 146 961 q 157 972 146 972 l 215 972 q 232 963 225 972 l 317 811 z "},"ỏ":{"ha":575,"x_min":69,"x_max":507,"o":"m 288 -11 q 128 47 188 -11 q 69 201 69 106 l 69 500 q 129 654 69 594 q 288 714 189 714 q 447 654 388 714 q 507 500 507 594 l 507 201 q 447 47 507 106 q 288 -11 388 -11 m 288 76 q 374 113 340 76 q 408 208 408 149 l 408 494 q 374 591 408 554 q 288 628 340 628 q 201 591 235 628 q 168 494 168 554 l 168 208 q 201 113 168 149 q 288 76 235 76 m 276 763 q 267 770 269 765 q 268 781 265 775 q 315 846 282 813 q 342 877 333 864 q 350 911 350 890 q 333 947 350 932 q 292 961 315 961 q 252 950 268 961 q 217 911 236 939 q 197 908 208 900 l 175 922 q 171 942 164 931 q 224 999 199 982 q 294 1017 249 1017 q 378 988 346 1017 q 410 911 410 958 q 397 860 410 881 q 358 813 385 840 q 319 765 329 786 q 301 757 314 756 l 276 763 z "},"ơ":{"ha":575,"x_min":69,"x_max":514,"o":"m 439 669 q 439 663 435 667 q 489 592 471 635 q 507 500 507 550 l 507 201 q 447 47 507 106 q 288 -11 388 -11 q 128 47 188 -11 q 69 201 69 106 l 69 500 q 129 654 69 594 q 288 714 189 714 q 363 704 321 714 q 368 703 364 703 q 427 730 403 706 q 456 799 451 754 q 469 813 456 813 l 500 813 q 510 808 507 813 q 513 794 514 803 q 490 719 510 751 q 439 669 471 686 m 408 494 q 374 591 408 554 q 288 628 340 628 q 201 591 235 628 q 168 494 168 554 l 168 208 q 201 113 168 149 q 288 76 235 76 q 374 113 340 76 q 408 208 408 149 l 408 494 z "},"ớ":{"ha":575,"x_min":69,"x_max":514,"o":"m 439 669 q 439 663 435 667 q 489 592 471 635 q 507 500 507 550 l 507 201 q 447 47 507 106 q 288 -11 388 -11 q 128 47 188 -11 q 69 201 69 106 l 69 500 q 129 654 69 594 q 288 714 189 714 q 363 704 321 714 q 368 703 364 703 q 427 730 403 706 q 456 799 451 754 q 469 813 456 813 l 500 813 q 510 808 507 813 q 513 794 514 803 q 490 719 510 751 q 439 669 471 686 m 408 494 q 374 591 408 554 q 288 628 340 628 q 201 591 235 628 q 168 494 168 554 l 168 208 q 201 113 168 149 q 288 76 235 76 q 374 113 340 76 q 408 208 408 149 l 408 494 m 240 794 q 229 799 232 794 q 231 811 226 804 l 317 963 q 333 972 324 972 l 390 972 q 401 967 399 972 q 399 956 403 963 l 301 804 q 285 794 294 794 l 240 794 z "},"ợ":{"ha":575,"x_min":69,"x_max":514,"o":"m 439 669 q 439 663 435 667 q 489 592 471 635 q 507 500 507 550 l 507 201 q 447 47 507 106 q 288 -11 388 -11 q 128 47 188 -11 q 69 201 69 106 l 69 500 q 129 654 69 594 q 288 714 189 714 q 363 704 321 714 q 368 703 364 703 q 427 730 403 706 q 456 799 451 754 q 469 813 456 813 l 500 813 q 510 808 507 813 q 513 794 514 803 q 490 719 510 751 q 439 669 471 686 m 408 494 q 374 591 408 554 q 288 628 340 628 q 201 591 235 628 q 168 494 168 554 l 168 208 q 201 113 168 149 q 288 76 235 76 q 374 113 340 76 q 408 208 408 149 l 408 494 m 289 -265 q 236 -244 257 -265 q 215 -192 215 -224 q 236 -139 215 -160 q 289 -118 257 -118 q 342 -139 321 -118 q 363 -192 363 -160 q 342 -244 363 -224 q 289 -265 321 -265 z "},"ờ":{"ha":575,"x_min":69,"x_max":514,"o":"m 439 669 q 439 663 435 667 q 489 592 471 635 q 507 500 507 550 l 507 201 q 447 47 507 106 q 288 -11 388 -11 q 128 47 188 -11 q 69 201 69 106 l 69 500 q 129 654 69 594 q 288 714 189 714 q 363 704 321 714 q 368 703 364 703 q 427 730 403 706 q 456 799 451 754 q 469 813 456 813 l 500 813 q 510 808 507 813 q 513 794 514 803 q 490 719 510 751 q 439 669 471 686 m 408 494 q 374 591 408 554 q 288 628 340 628 q 201 591 235 628 q 168 494 168 554 l 168 208 q 201 113 168 149 q 288 76 235 76 q 374 113 340 76 q 408 208 408 149 l 408 494 m 317 811 q 319 803 319 806 q 307 794 319 794 l 263 794 q 246 804 253 794 l 149 956 q 146 964 146 961 q 157 972 146 972 l 215 972 q 232 963 225 972 l 317 811 z "},"ở":{"ha":575,"x_min":69,"x_max":514,"o":"m 439 669 q 439 663 435 667 q 489 592 471 635 q 507 500 507 550 l 507 201 q 447 47 507 106 q 288 -11 388 -11 q 128 47 188 -11 q 69 201 69 106 l 69 500 q 129 654 69 594 q 288 714 189 714 q 363 704 321 714 q 368 703 364 703 q 427 730 403 706 q 456 799 451 754 q 469 813 456 813 l 500 813 q 510 808 507 813 q 513 794 514 803 q 490 719 510 751 q 439 669 471 686 m 408 494 q 374 591 408 554 q 288 628 340 628 q 201 591 235 628 q 168 494 168 554 l 168 208 q 201 113 168 149 q 288 76 235 76 q 374 113 340 76 q 408 208 408 149 l 408 494 m 276 763 q 267 770 269 765 q 268 781 265 775 q 315 846 282 813 q 342 877 333 864 q 350 911 350 890 q 333 947 350 932 q 292 961 315 961 q 252 950 268 961 q 217 911 236 939 q 197 908 208 900 l 175 922 q 171 942 164 931 q 224 999 199 982 q 294 1017 249 1017 q 378 988 346 1017 q 410 911 410 958 q 397 860 410 881 q 358 813 385 840 q 319 765 329 786 q 301 757 314 756 l 276 763 z "},"ỡ":{"ha":575,"x_min":69,"x_max":514,"o":"m 439 669 q 439 663 435 667 q 489 592 471 635 q 507 500 507 550 l 507 201 q 447 47 507 106 q 288 -11 388 -11 q 128 47 188 -11 q 69 201 69 106 l 69 500 q 129 654 69 594 q 288 714 189 714 q 363 704 321 714 q 368 703 364 703 q 427 730 403 706 q 456 799 451 754 q 469 813 456 813 l 500 813 q 510 808 507 813 q 513 794 514 803 q 490 719 510 751 q 439 669 471 686 m 408 494 q 374 591 408 554 q 288 628 340 628 q 201 591 235 628 q 168 494 168 554 l 168 208 q 201 113 168 149 q 288 76 235 76 q 374 113 340 76 q 408 208 408 149 l 408 494 m 358 850 q 324 858 339 850 q 283 881 308 865 q 265 893 278 885 q 243 905 253 901 q 222 908 233 908 q 188 901 203 908 q 160 872 174 893 q 140 868 151 860 l 115 886 q 110 906 104 894 q 215 978 147 978 q 256 969 238 978 q 296 946 274 961 q 311 935 299 943 q 335 922 324 926 q 358 917 347 917 q 390 925 376 917 q 418 956 404 933 q 426 963 421 961 q 438 961 432 964 l 463 944 q 468 933 468 940 q 463 917 468 926 q 414 866 443 882 q 358 850 385 850 z "},"ő":{"ha":575,"x_min":69,"x_max":510,"o":"m 288 -11 q 128 47 188 -11 q 69 201 69 106 l 69 500 q 129 654 69 594 q 288 714 189 714 q 447 654 388 714 q 507 500 507 594 l 507 201 q 447 47 507 106 q 288 -11 388 -11 m 288 76 q 374 113 340 76 q 408 208 408 149 l 408 494 q 374 591 408 554 q 288 628 340 628 q 201 591 235 628 q 168 494 168 554 l 168 208 q 201 113 168 149 q 288 76 235 76 m 178 794 q 168 799 171 794 q 168 811 165 804 l 247 963 q 264 972 251 972 l 322 972 q 333 967 331 972 q 332 956 336 963 l 249 804 q 232 794 244 794 l 178 794 m 353 794 q 342 799 346 794 q 343 811 339 804 l 425 963 q 442 972 429 972 l 496 972 q 507 967 504 972 q 506 956 510 963 l 422 804 q 406 794 418 794 l 353 794 z "},"ō":{"ha":575,"x_min":69,"x_max":507,"o":"m 288 -11 q 128 47 188 -11 q 69 201 69 106 l 69 500 q 129 654 69 594 q 288 714 189 714 q 447 654 388 714 q 507 500 507 594 l 507 201 q 447 47 507 106 q 288 -11 388 -11 m 288 76 q 374 113 340 76 q 408 208 408 149 l 408 494 q 374 591 408 554 q 288 628 340 628 q 201 591 235 628 q 168 494 168 554 l 168 208 q 201 113 168 149 q 288 76 235 76 m 158 826 q 144 840 144 826 l 144 885 q 158 899 144 899 l 413 899 q 426 885 426 899 l 426 840 q 413 826 426 826 l 158 826 z "},"ø":{"ha":597,"x_min":71,"x_max":513,"o":"m 501 744 q 507 725 513 738 l 468 639 q 469 631 467 636 q 508 500 508 576 l 508 201 q 449 47 508 106 q 290 -11 390 -11 q 192 7 233 -11 q 183 4 185 10 l 156 -58 q 138 -65 150 -71 l 89 -39 q 83 -19 78 -32 l 118 56 q 117 63 119 60 q 71 201 71 117 l 71 500 q 131 654 71 594 q 290 714 192 714 q 394 692 351 714 q 403 694 401 689 l 435 765 q 453 772 442 781 l 501 744 m 169 208 q 171 192 169 197 q 174 188 171 188 q 178 192 176 189 l 361 600 q 358 607 363 604 q 290 628 331 628 q 203 591 238 628 q 169 494 169 554 l 169 208 m 410 492 q 407 496 410 496 q 403 493 404 496 l 228 99 q 229 92 226 93 q 290 76 257 76 q 376 113 343 76 q 410 208 410 149 l 410 492 z "},"ǿ":{"ha":575,"x_min":71,"x_max":513,"o":"m 501 744 q 507 725 513 738 l 468 639 q 469 631 467 636 q 508 500 508 576 l 508 201 q 449 47 508 106 q 290 -11 390 -11 q 192 7 233 -11 q 183 4 185 10 l 156 -58 q 138 -65 150 -71 l 89 -39 q 83 -19 78 -32 l 118 56 q 117 63 119 60 q 71 201 71 117 l 71 500 q 131 654 71 594 q 290 714 192 714 q 394 692 351 714 q 403 694 401 689 l 435 765 q 453 772 442 781 l 501 744 m 169 208 q 171 192 169 197 q 174 188 171 188 q 178 192 176 189 l 361 600 q 358 607 363 604 q 290 628 331 628 q 203 591 238 628 q 169 494 169 554 l 169 208 m 410 492 q 407 496 410 496 q 403 493 404 496 l 228 99 q 229 92 226 93 q 290 76 257 76 q 376 113 343 76 q 410 208 410 149 l 410 492 m 240 794 q 229 799 232 794 q 231 811 226 804 l 317 963 q 333 972 324 972 l 390 972 q 401 967 399 972 q 399 956 403 963 l 301 804 q 285 794 294 794 l 240 794 z "},"õ":{"ha":575,"x_min":69,"x_max":507,"o":"m 288 -11 q 128 47 188 -11 q 69 201 69 106 l 69 500 q 129 654 69 594 q 288 714 189 714 q 447 654 388 714 q 507 500 507 594 l 507 201 q 447 47 507 106 q 288 -11 388 -11 m 288 76 q 374 113 340 76 q 408 208 408 149 l 408 494 q 374 591 408 554 q 288 628 340 628 q 201 591 235 628 q 168 494 168 554 l 168 208 q 201 113 168 149 q 288 76 235 76 m 375 844 q 340 852 356 844 q 300 875 325 860 q 282 888 294 879 q 260 899 269 896 q 239 903 250 903 q 205 895 219 903 q 176 867 190 888 q 157 863 168 854 l 132 881 q 126 900 121 889 q 232 972 164 972 q 272 964 254 972 q 313 940 290 956 q 328 929 315 938 q 352 916 340 921 q 375 911 364 911 q 407 919 393 911 q 435 950 421 928 q 443 957 438 956 q 454 956 449 958 l 479 939 q 485 928 485 935 q 479 911 485 921 q 431 860 460 876 q 375 844 401 844 z "},"œ":{"ha":914,"x_min":69,"x_max":853,"o":"m 853 338 q 839 324 853 324 l 521 324 q 515 318 515 324 l 515 208 q 549 112 515 149 q 635 75 582 75 q 710 102 679 75 q 751 172 740 129 q 767 185 756 185 l 836 182 q 846 178 842 182 q 849 167 850 174 q 781 36 836 83 q 635 -11 725 -11 q 467 81 524 -11 q 458 81 463 85 q 288 -11 399 -11 q 128 47 188 -11 q 69 201 69 106 l 69 500 q 129 654 69 594 q 288 714 189 714 q 458 621 397 714 q 467 621 463 617 q 537 689 494 664 q 635 714 579 714 q 793 654 733 714 q 853 500 853 594 l 853 338 m 408 494 q 375 591 408 554 q 288 628 342 628 q 201 591 235 628 q 168 494 168 554 l 168 208 q 201 112 168 149 q 288 75 235 75 q 375 112 342 75 q 408 208 408 149 l 408 494 m 635 628 q 549 591 582 628 q 515 494 515 554 l 515 397 q 521 392 515 392 l 749 392 q 754 397 754 392 l 754 494 q 721 591 754 554 q 635 628 688 628 z "},"p":{"ha":594,"x_min":92,"x_max":525,"o":"m 332 714 q 472 655 419 714 q 525 501 525 596 l 525 201 q 472 47 525 104 q 332 -11 419 -11 q 258 3 293 -11 q 197 49 224 18 q 192 50 194 51 q 190 46 190 49 l 190 -256 q 176 -269 190 -269 l 106 -269 q 92 -256 92 -269 l 92 689 q 106 703 92 703 l 176 703 q 190 689 190 703 l 190 657 q 193 653 190 654 q 199 656 196 653 q 259 699 224 685 q 332 714 294 714 m 428 494 q 394 591 428 554 q 307 628 360 628 q 223 591 256 628 q 190 494 190 554 l 190 208 q 223 112 190 149 q 307 75 256 75 q 394 112 360 75 q 428 208 428 149 l 428 494 z "},"þ":{"ha":579,"x_min":76,"x_max":511,"o":"m 324 714 q 461 656 411 714 q 511 501 511 599 l 511 201 q 461 47 511 106 q 324 -11 411 -11 q 242 8 279 -11 q 182 67 204 28 q 178 70 181 71 q 175 65 175 69 l 175 -264 q 161 -278 175 -278 l 90 -278 q 76 -264 76 -278 l 76 958 q 90 972 76 972 l 161 972 q 175 958 175 972 l 175 635 q 178 631 175 631 q 182 635 181 631 q 242 694 206 674 q 324 714 279 714 m 413 494 q 378 591 413 554 q 292 628 344 628 q 208 591 240 628 q 176 494 176 554 l 176 208 q 208 112 176 149 q 292 75 240 75 q 378 112 344 75 q 413 208 413 149 l 413 494 z "},"q":{"ha":594,"x_min":69,"x_max":503,"o":"m 404 689 q 418 703 404 703 l 489 703 q 503 689 503 703 l 503 -256 q 489 -269 503 -269 l 418 -269 q 404 -256 404 -269 l 404 46 q 402 50 404 49 q 397 49 400 51 q 264 -11 346 -11 q 122 47 175 -11 q 69 201 69 104 l 69 501 q 122 655 69 596 q 264 714 175 714 q 397 656 344 714 q 402 654 400 653 q 404 658 404 656 l 404 689 m 288 75 q 372 112 339 75 q 404 208 404 149 l 404 494 q 372 591 404 554 q 288 628 339 628 q 201 591 235 628 q 167 494 167 554 l 167 208 q 201 112 167 149 q 288 75 235 75 z "},"r":{"ha":406,"x_min":85,"x_max":392,"o":"m 322 710 q 382 694 357 710 q 389 676 392 689 l 372 604 q 356 596 371 592 q 314 604 339 604 q 297 603 303 604 q 215 551 247 600 q 183 431 183 501 l 183 14 q 169 0 183 0 l 99 0 q 85 14 85 0 l 85 689 q 99 703 85 703 l 169 703 q 183 689 183 703 l 183 606 q 185 601 183 601 q 190 604 188 601 q 322 710 231 710 z "},"ŕ":{"ha":406,"x_min":85,"x_max":392,"o":"m 322 710 q 382 694 357 710 q 389 676 392 689 l 372 604 q 356 596 371 592 q 314 604 339 604 q 297 603 303 604 q 215 551 247 600 q 183 431 183 501 l 183 14 q 169 0 183 0 l 99 0 q 85 14 85 0 l 85 689 q 99 703 85 703 l 169 703 q 183 689 183 703 l 183 606 q 185 601 183 601 q 190 604 188 601 q 322 710 231 710 m 193 794 q 182 799 185 794 q 183 811 179 804 l 269 963 q 286 972 276 972 l 343 972 q 353 967 351 972 q 351 956 356 963 l 254 804 q 238 794 247 794 l 193 794 z "},"ř":{"ha":406,"x_min":85,"x_max":397,"o":"m 322 710 q 382 694 357 710 q 389 676 392 689 l 372 604 q 356 596 371 592 q 314 604 339 604 q 297 603 303 604 q 215 551 247 600 q 183 431 183 501 l 183 14 q 169 0 183 0 l 99 0 q 85 14 85 0 l 85 689 q 99 703 85 703 l 169 703 q 183 689 183 703 l 183 606 q 185 601 183 601 q 190 604 188 601 q 322 710 231 710 m 93 956 q 90 964 90 961 q 101 972 90 972 l 161 972 q 178 963 171 972 l 239 861 q 243 860 240 860 q 247 861 246 860 l 307 963 q 324 972 314 972 l 385 972 q 395 967 393 972 q 393 956 397 963 l 300 813 q 283 803 293 803 l 200 803 q 183 813 190 803 l 93 956 z "},"s":{"ha":519,"x_min":57,"x_max":479,"o":"m 268 -7 q 115 42 172 -7 q 57 174 57 92 l 57 183 q 71 197 57 197 l 138 197 q 151 183 151 197 l 151 175 q 184 100 151 131 q 269 69 217 69 q 350 100 319 69 q 381 178 381 131 q 361 238 381 214 q 316 276 342 263 q 239 313 290 290 q 149 356 185 335 q 88 417 114 378 q 63 518 63 457 q 117 658 63 607 q 265 710 172 710 q 415 657 360 710 q 471 517 471 604 l 471 513 q 457 499 471 499 l 393 499 q 379 513 379 499 l 379 521 q 348 599 379 568 q 267 629 317 629 q 187 598 217 629 q 157 521 157 567 q 175 465 157 488 q 219 427 193 442 q 293 392 246 413 q 387 344 350 367 q 451 282 424 322 q 479 182 479 242 q 422 44 479 96 q 268 -7 365 -7 z "},"ś":{"ha":521,"x_min":57,"x_max":479,"o":"m 268 -7 q 115 42 172 -7 q 57 174 57 92 l 57 183 q 71 197 57 197 l 138 197 q 151 183 151 197 l 151 175 q 184 100 151 131 q 269 69 217 69 q 350 100 319 69 q 381 178 381 131 q 361 238 381 214 q 316 276 342 263 q 239 313 290 290 q 149 356 185 335 q 88 417 114 378 q 63 518 63 457 q 117 658 63 607 q 265 710 172 710 q 415 657 360 710 q 471 517 471 604 l 471 513 q 457 499 471 499 l 393 499 q 379 513 379 499 l 379 521 q 348 599 379 568 q 267 629 317 629 q 187 598 217 629 q 157 521 157 567 q 175 465 157 488 q 219 427 193 442 q 293 392 246 413 q 387 344 350 367 q 451 282 424 322 q 479 182 479 242 q 422 44 479 96 q 268 -7 365 -7 m 218 794 q 207 799 210 794 q 208 811 204 804 l 294 963 q 311 972 301 972 l 368 972 q 378 967 376 972 q 376 956 381 963 l 279 804 q 263 794 272 794 l 218 794 z "},"š":{"ha":521,"x_min":57,"x_max":479,"o":"m 268 -7 q 115 42 172 -7 q 57 174 57 92 l 57 183 q 71 197 57 197 l 138 197 q 151 183 151 197 l 151 175 q 184 100 151 131 q 269 69 217 69 q 350 100 319 69 q 381 178 381 131 q 361 238 381 214 q 316 276 342 263 q 239 313 290 290 q 149 356 185 335 q 88 417 114 378 q 63 518 63 457 q 117 658 63 607 q 265 710 172 710 q 415 657 360 710 q 471 517 471 604 l 471 513 q 457 499 471 499 l 393 499 q 379 513 379 499 l 379 521 q 348 599 379 568 q 267 629 317 629 q 187 598 217 629 q 157 521 157 567 q 175 465 157 488 q 219 427 193 442 q 293 392 246 413 q 387 344 350 367 q 451 282 424 322 q 479 182 479 242 q 422 44 479 96 q 268 -7 365 -7 m 118 956 q 115 964 115 961 q 126 972 115 972 l 186 972 q 203 963 196 972 l 264 861 q 268 860 265 860 q 272 861 271 860 l 332 963 q 349 972 339 972 l 410 972 q 420 967 418 972 q 418 956 422 963 l 325 813 q 308 803 318 803 l 225 803 q 208 813 215 803 l 118 956 z "},"ş":{"ha":521,"x_min":57,"x_max":479,"o":"m 479 182 q 435 58 479 107 q 314 -3 390 8 q 311 -10 307 -6 q 369 -139 369 -68 q 337 -226 369 -200 q 258 -253 304 -253 q 217 -249 235 -253 q 207 -232 206 -244 l 211 -203 q 217 -194 213 -197 q 228 -192 221 -190 q 244 -193 233 -193 q 285 -177 269 -193 q 300 -126 300 -161 q 238 -8 300 -71 q 231 -6 235 -6 q 103 52 150 4 q 57 174 57 100 l 57 183 q 71 197 57 197 l 138 197 q 151 183 151 197 l 151 175 q 184 100 151 131 q 269 69 217 69 q 350 100 319 69 q 381 178 381 131 q 361 238 381 214 q 316 276 342 263 q 239 313 290 290 q 149 356 185 335 q 88 417 114 378 q 63 518 63 457 q 117 658 63 607 q 265 710 172 710 q 415 657 360 710 q 471 517 471 604 l 471 513 q 457 499 471 499 l 393 499 q 379 513 379 499 l 379 521 q 348 599 379 568 q 267 629 317 629 q 187 598 217 629 q 157 521 157 567 q 175 465 157 488 q 219 427 193 442 q 293 392 246 413 q 387 344 350 367 q 451 282 424 322 q 479 182 479 242 z "},"ŝ":{"ha":521,"x_min":57,"x_max":479,"o":"m 268 -7 q 115 42 172 -7 q 57 174 57 92 l 57 183 q 71 197 57 197 l 138 197 q 151 183 151 197 l 151 175 q 184 100 151 131 q 269 69 217 69 q 350 100 319 69 q 381 178 381 131 q 361 238 381 214 q 316 276 342 263 q 239 313 290 290 q 149 356 185 335 q 88 417 114 378 q 63 518 63 457 q 117 658 63 607 q 265 710 172 710 q 415 657 360 710 q 471 517 471 604 l 471 513 q 457 499 471 499 l 393 499 q 379 513 379 499 l 379 521 q 348 599 379 568 q 267 629 317 629 q 187 598 217 629 q 157 521 157 567 q 175 465 157 488 q 219 427 193 442 q 293 392 246 413 q 387 344 350 367 q 451 282 424 322 q 479 182 479 242 q 422 44 479 96 q 268 -7 365 -7 m 124 803 q 113 808 115 803 q 115 819 111 813 l 206 963 q 222 972 213 972 l 306 972 q 322 963 315 972 l 415 819 q 418 811 418 814 q 407 803 418 803 l 346 803 q 329 813 336 803 l 269 914 q 265 917 268 917 q 261 914 263 917 l 200 813 q 183 803 193 803 l 124 803 z "},"ß":{"ha":597,"x_min":85,"x_max":529,"o":"m 99 0 q 85 14 85 0 l 85 708 q 140 912 85 839 q 296 985 196 985 q 460 914 400 985 q 519 722 519 843 q 494 595 519 647 q 424 518 468 543 q 424 511 417 515 q 501 420 474 483 q 529 269 529 357 q 466 72 529 143 q 290 0 403 0 l 250 0 q 236 14 236 0 l 236 71 q 250 85 236 85 l 292 86 q 395 138 358 88 q 432 279 432 188 q 400 421 432 371 q 310 474 368 471 l 268 474 q 254 488 254 474 l 254 540 q 268 554 254 554 l 310 554 q 392 597 363 554 q 422 717 422 640 q 388 850 422 801 q 297 899 354 899 q 213 852 243 899 q 183 721 183 806 l 183 14 q 169 0 183 0 l 99 0 z "},"t":{"ha":371,"x_min":36,"x_max":332,"o":"m 332 643 q 318 629 332 629 l 213 629 q 207 624 207 629 l 207 199 q 229 110 207 135 q 297 88 251 86 l 311 88 q 325 74 325 88 l 325 14 q 311 0 325 0 l 276 0 q 152 35 194 0 q 110 169 110 71 l 110 624 q 104 629 110 629 l 50 629 q 36 643 36 629 l 36 689 q 50 703 36 703 l 104 703 q 110 708 110 703 l 110 864 q 124 878 110 878 l 193 878 q 207 864 207 878 l 207 708 q 213 703 207 703 l 318 703 q 332 689 332 703 l 332 643 z "},"ŧ":{"ha":371,"x_min":36,"x_max":332,"o":"m 332 643 q 318 629 332 629 l 213 629 q 207 624 207 629 l 207 490 q 213 485 207 485 l 317 485 q 331 471 331 485 l 331 432 q 317 418 331 418 l 213 418 q 207 413 207 418 l 207 199 q 229 110 207 135 q 297 88 251 86 l 311 88 q 325 74 325 88 l 325 14 q 311 0 325 0 l 276 0 q 152 35 194 0 q 110 169 110 71 l 110 413 q 104 418 110 418 l 53 418 q 39 432 39 418 l 39 471 q 53 485 39 485 l 104 485 q 110 490 110 485 l 110 624 q 104 629 110 629 l 50 629 q 36 643 36 629 l 36 689 q 50 703 36 703 l 104 703 q 110 708 110 703 l 110 864 q 124 878 110 878 l 193 878 q 207 864 207 878 l 207 708 q 213 703 207 703 l 318 703 q 332 689 332 703 l 332 643 z "},"ť":{"ha":371,"x_min":36,"x_max":411,"o":"m 332 643 q 318 629 332 629 l 213 629 q 207 624 207 629 l 207 199 q 229 110 207 135 q 297 88 251 86 l 311 88 q 325 74 325 88 l 325 14 q 311 0 325 0 l 276 0 q 152 35 194 0 q 110 169 110 71 l 110 624 q 104 629 110 629 l 50 629 q 36 643 36 629 l 36 689 q 50 703 36 703 l 104 703 q 110 708 110 703 l 110 864 q 124 878 110 878 l 193 878 q 207 864 207 878 l 207 708 q 213 703 207 703 l 318 703 q 332 689 332 703 l 332 643 z "},"u":{"ha":589,"x_min":78,"x_max":504,"o":"m 406 689 q 419 703 406 703 l 490 703 q 504 689 504 703 l 504 14 q 490 0 504 0 l 419 0 q 406 14 406 0 l 406 61 q 403 65 406 65 q 399 63 401 65 q 260 -10 356 -10 q 127 41 176 -10 q 78 194 78 92 l 78 689 q 92 703 78 703 l 163 703 q 176 689 176 703 l 176 217 q 205 112 176 147 q 288 76 233 76 q 374 117 343 76 q 406 226 406 157 l 406 689 z "},"ú":{"ha":589,"x_min":78,"x_max":504,"o":"m 406 689 q 419 703 406 703 l 490 703 q 504 689 504 703 l 504 14 q 490 0 504 0 l 419 0 q 406 14 406 0 l 406 61 q 403 65 406 65 q 399 63 401 65 q 260 -10 356 -10 q 127 41 176 -10 q 78 194 78 92 l 78 689 q 92 703 78 703 l 163 703 q 176 689 176 703 l 176 217 q 205 112 176 147 q 288 76 233 76 q 374 117 343 76 q 406 226 406 157 l 406 689 m 242 794 q 231 799 233 794 q 232 811 228 804 l 318 963 q 335 972 325 972 l 392 972 q 402 967 400 972 q 400 956 404 963 l 303 804 q 286 794 296 794 l 242 794 z "},"ŭ":{"ha":589,"x_min":78,"x_max":504,"o":"m 406 689 q 419 703 406 703 l 490 703 q 504 689 504 703 l 504 14 q 490 0 504 0 l 419 0 q 406 14 406 0 l 406 61 q 403 65 406 65 q 399 63 401 65 q 260 -10 356 -10 q 127 41 176 -10 q 78 194 78 92 l 78 689 q 92 703 78 703 l 163 703 q 176 689 176 703 l 176 217 q 205 112 176 147 q 288 76 233 76 q 374 117 343 76 q 406 226 406 157 l 406 689 m 290 806 q 190 843 231 806 q 144 938 150 881 q 158 951 144 951 l 190 951 q 206 938 204 951 q 233 879 210 901 q 290 857 257 857 q 347 879 324 857 q 375 938 371 901 q 390 951 376 951 l 422 951 q 436 938 436 951 q 390 843 431 881 q 290 806 350 806 z "},"ǔ":{"ha":589,"x_min":78,"x_max":504,"o":"m 406 689 q 419 703 406 703 l 490 703 q 504 689 504 703 l 504 14 q 490 0 504 0 l 419 0 q 406 14 406 0 l 406 61 q 403 65 406 65 q 399 63 401 65 q 260 -10 356 -10 q 127 41 176 -10 q 78 194 78 92 l 78 689 q 92 703 78 703 l 163 703 q 176 689 176 703 l 176 217 q 205 112 176 147 q 288 76 233 76 q 374 117 343 76 q 406 226 406 157 l 406 689 z "},"û":{"ha":589,"x_min":78,"x_max":504,"o":"m 406 689 q 419 703 406 703 l 490 703 q 504 689 504 703 l 504 14 q 490 0 504 0 l 419 0 q 406 14 406 0 l 406 61 q 403 65 406 65 q 399 63 401 65 q 260 -10 356 -10 q 127 41 176 -10 q 78 194 78 92 l 78 689 q 92 703 78 703 l 163 703 q 176 689 176 703 l 176 217 q 205 112 176 147 q 288 76 233 76 q 374 117 343 76 q 406 226 406 157 l 406 689 m 147 803 q 137 808 139 803 q 139 819 135 813 l 229 963 q 246 972 236 972 l 329 972 q 346 963 339 972 l 439 819 q 442 811 442 814 q 431 803 442 803 l 369 803 q 353 813 360 803 l 293 914 q 289 917 292 917 q 285 914 286 917 l 224 813 q 207 803 217 803 l 147 803 z "},"ü":{"ha":589,"x_min":78,"x_max":504,"o":"m 406 689 q 419 703 406 703 l 490 703 q 504 689 504 703 l 504 14 q 490 0 504 0 l 419 0 q 406 14 406 0 l 406 61 q 403 65 406 65 q 399 63 401 65 q 260 -10 356 -10 q 127 41 176 -10 q 78 194 78 92 l 78 689 q 92 703 78 703 l 163 703 q 176 689 176 703 l 176 217 q 205 112 176 147 q 288 76 233 76 q 374 117 343 76 q 406 226 406 157 l 406 689 z "},"ụ":{"ha":589,"x_min":78,"x_max":504,"o":"m 406 689 q 419 703 406 703 l 490 703 q 504 689 504 703 l 504 14 q 490 0 504 0 l 419 0 q 406 14 406 0 l 406 61 q 403 65 406 65 q 399 63 401 65 q 260 -10 356 -10 q 127 41 176 -10 q 78 194 78 92 l 78 689 q 92 703 78 703 l 163 703 q 176 689 176 703 l 176 217 q 205 112 176 147 q 288 76 233 76 q 374 117 343 76 q 406 226 406 157 l 406 689 m 290 -265 q 238 -244 258 -265 q 217 -192 217 -224 q 238 -139 217 -160 q 290 -118 258 -118 q 343 -139 322 -118 q 364 -192 364 -160 q 343 -244 364 -224 q 290 -265 322 -265 z "},"ù":{"ha":589,"x_min":78,"x_max":504,"o":"m 406 689 q 419 703 406 703 l 490 703 q 504 689 504 703 l 504 14 q 490 0 504 0 l 419 0 q 406 14 406 0 l 406 61 q 403 65 406 65 q 399 63 401 65 q 260 -10 356 -10 q 127 41 176 -10 q 78 194 78 92 l 78 689 q 92 703 78 703 l 163 703 q 176 689 176 703 l 176 217 q 205 112 176 147 q 288 76 233 76 q 374 117 343 76 q 406 226 406 157 l 406 689 m 319 811 q 322 803 322 806 q 310 794 322 794 l 265 794 q 249 804 256 794 l 151 956 q 149 964 149 961 q 160 972 149 972 l 218 972 q 235 963 228 972 l 319 811 z "},"ủ":{"ha":589,"x_min":78,"x_max":504,"o":"m 406 689 q 419 703 406 703 l 490 703 q 504 689 504 703 l 504 14 q 490 0 504 0 l 419 0 q 406 14 406 0 l 406 61 q 403 65 406 65 q 399 63 401 65 q 260 -10 356 -10 q 127 41 176 -10 q 78 194 78 92 l 78 689 q 92 703 78 703 l 163 703 q 176 689 176 703 l 176 217 q 205 112 176 147 q 288 76 233 76 q 374 117 343 76 q 406 226 406 157 l 406 689 m 278 763 q 269 770 271 765 q 269 781 267 775 q 317 846 283 813 q 343 877 335 864 q 351 911 351 890 q 334 947 351 932 q 293 961 317 961 q 253 950 269 961 q 218 911 238 939 q 199 908 210 900 l 176 922 q 172 942 165 931 q 225 999 200 982 q 296 1017 250 1017 q 379 988 347 1017 q 411 911 411 958 q 399 860 411 881 q 360 813 386 840 q 321 765 331 786 q 303 757 315 756 l 278 763 z "},"ư":{"ha":589,"x_min":78,"x_max":610,"o":"m 596 813 q 610 799 610 813 q 578 708 606 744 q 508 658 551 672 q 504 653 504 657 l 504 14 q 490 0 504 0 l 419 0 q 406 14 406 0 l 406 61 q 403 65 406 65 q 399 63 401 65 q 260 -10 356 -10 q 127 41 176 -10 q 78 194 78 92 l 78 689 q 92 703 78 703 l 163 703 q 176 689 176 703 l 176 217 q 205 112 176 147 q 288 76 233 76 q 374 117 343 76 q 406 226 406 157 l 406 689 q 419 703 406 703 l 456 703 q 519 728 492 703 q 550 799 546 753 q 564 813 550 813 l 596 813 z "},"ứ":{"ha":589,"x_min":78,"x_max":610,"o":"m 596 813 q 610 799 610 813 q 578 708 606 744 q 508 658 551 672 q 504 653 504 657 l 504 14 q 490 0 504 0 l 419 0 q 406 14 406 0 l 406 61 q 403 65 406 65 q 399 63 401 65 q 260 -10 356 -10 q 127 41 176 -10 q 78 194 78 92 l 78 689 q 92 703 78 703 l 163 703 q 176 689 176 703 l 176 217 q 205 112 176 147 q 288 76 233 76 q 374 117 343 76 q 406 226 406 157 l 406 689 q 419 703 406 703 l 456 703 q 519 728 492 703 q 550 799 546 753 q 564 813 550 813 l 596 813 m 242 794 q 231 799 233 794 q 232 811 228 804 l 318 963 q 335 972 325 972 l 392 972 q 402 967 400 972 q 400 956 404 963 l 303 804 q 286 794 296 794 l 242 794 z "},"ự":{"ha":589,"x_min":78,"x_max":610,"o":"m 596 813 q 610 799 610 813 q 578 708 606 744 q 508 658 551 672 q 504 653 504 657 l 504 14 q 490 0 504 0 l 419 0 q 406 14 406 0 l 406 61 q 403 65 406 65 q 399 63 401 65 q 260 -10 356 -10 q 127 41 176 -10 q 78 194 78 92 l 78 689 q 92 703 78 703 l 163 703 q 176 689 176 703 l 176 217 q 205 112 176 147 q 288 76 233 76 q 374 117 343 76 q 406 226 406 157 l 406 689 q 419 703 406 703 l 456 703 q 519 728 492 703 q 550 799 546 753 q 564 813 550 813 l 596 813 m 290 -265 q 238 -244 258 -265 q 217 -192 217 -224 q 238 -139 217 -160 q 290 -118 258 -118 q 343 -139 322 -118 q 364 -192 364 -160 q 343 -244 364 -224 q 290 -265 322 -265 z "},"ừ":{"ha":589,"x_min":78,"x_max":610,"o":"m 596 813 q 610 799 610 813 q 578 708 606 744 q 508 658 551 672 q 504 653 504 657 l 504 14 q 490 0 504 0 l 419 0 q 406 14 406 0 l 406 61 q 403 65 406 65 q 399 63 401 65 q 260 -10 356 -10 q 127 41 176 -10 q 78 194 78 92 l 78 689 q 92 703 78 703 l 163 703 q 176 689 176 703 l 176 217 q 205 112 176 147 q 288 76 233 76 q 374 117 343 76 q 406 226 406 157 l 406 689 q 419 703 406 703 l 456 703 q 519 728 492 703 q 550 799 546 753 q 564 813 550 813 l 596 813 m 319 811 q 322 803 322 806 q 310 794 322 794 l 265 794 q 249 804 256 794 l 151 956 q 149 964 149 961 q 160 972 149 972 l 218 972 q 235 963 228 972 l 319 811 z "},"ử":{"ha":589,"x_min":78,"x_max":610,"o":"m 596 813 q 610 799 610 813 q 578 708 606 744 q 508 658 551 672 q 504 653 504 657 l 504 14 q 490 0 504 0 l 419 0 q 406 14 406 0 l 406 61 q 403 65 406 65 q 399 63 401 65 q 260 -10 356 -10 q 127 41 176 -10 q 78 194 78 92 l 78 689 q 92 703 78 703 l 163 703 q 176 689 176 703 l 176 217 q 205 112 176 147 q 288 76 233 76 q 374 117 343 76 q 406 226 406 157 l 406 689 q 419 703 406 703 l 456 703 q 519 728 492 703 q 550 799 546 753 q 564 813 550 813 l 596 813 m 278 763 q 269 770 271 765 q 269 781 267 775 q 317 846 283 813 q 343 877 335 864 q 351 911 351 890 q 334 947 351 932 q 293 961 317 961 q 253 950 269 961 q 218 911 238 939 q 199 908 210 900 l 176 922 q 172 942 165 931 q 225 999 200 982 q 296 1017 250 1017 q 379 988 347 1017 q 411 911 411 958 q 399 860 411 881 q 360 813 386 840 q 321 765 331 786 q 303 757 315 756 l 278 763 z "}}}
